<svg xmlns="http://www.w3.org/2000/svg" xmlns:xlink="http://www.w3.org/1999/xlink" width="500" zoomAndPan="magnify" viewBox="0 0 375 374.999991" height="500" preserveAspectRatio="xMidYMid meet" version="1.0"><defs><clipPath id="95f14e4d9a"><path d="M 37.5 82.5 L 204 82.5 L 204 290 L 37.5 290 Z M 37.5 82.5 " clip-rule="nonzero"/></clipPath><clipPath id="0f4f79638a"><path d="M 180 127 L 337.5 127 L 337.5 290 L 180 290 Z M 180 127 " clip-rule="nonzero"/></clipPath></defs><rect x="-37.5" width="450" fill="#ffffff" y="-37.499999" height="449.999989" fill-opacity="1"/><rect x="-37.5" width="450" fill="#000000" y="-37.499999" height="449.999989" fill-opacity="1"/><g clip-path="url(#95f14e4d9a)"><path fill="#ff2323" d="M 146.121094 274.152344 C 146.121094 186 183.078125 139.1875 203.800781 114.230469 L 203.800781 82.5 L 44.949219 82.5 L 37.777344 149.085938 L 52.269531 149.085938 C 52.984375 140.714844 55.421875 134.910156 59.570312 131.722656 C 63.25 128.648438 68.355469 127.105469 74.90625 127.105469 L 172.226562 127.105469 C 172.226562 127.105469 77.589844 217.21875 77.589844 285.050781 C 77.589844 286.597656 77.441406 288.082031 77.589844 289.535156 L 146.160156 289.535156 C 146.121094 289.515625 146.121094 280.679688 146.121094 274.152344 Z M 146.121094 274.152344 " fill-opacity="1" fill-rule="nonzero"/></g><g clip-path="url(#0f4f79638a)"><path fill="#ffffff" d="M 314.960938 276.433594 C 311.9375 274.792969 310.433594 272.078125 310.433594 268.292969 L 310.433594 127.066406 L 282.132812 127.066406 L 282.132812 134.382812 C 282.132812 140.941406 280.59375 146.070312 277.53125 149.78125 C 274.34375 153.96875 268.578125 156.402344 260.246094 157.117188 L 260.246094 171.671875 L 278.808594 171.671875 L 278.808594 268.292969 C 278.808594 272.078125 277.304688 274.792969 274.285156 276.433594 C 272.050781 277.660156 245.171875 277.660156 242.941406 276.433594 C 239.914062 274.792969 238.414062 272.078125 238.414062 268.292969 L 238.414062 127.066406 L 210.109375 127.066406 L 210.109375 134.382812 C 210.109375 140.941406 208.570312 146.070312 205.507812 149.78125 C 202.320312 153.96875 196.558594 156.402344 188.222656 157.117188 L 188.222656 171.671875 L 206.785156 171.671875 L 206.785156 268.292969 C 206.785156 272.078125 205.285156 274.792969 202.261719 276.433594 C 199.242188 278.074219 180.039062 282.167969 180.039062 282.167969 L 180.039062 289.496094 L 337.222656 289.496094 L 337.222656 282.167969 C 337.183594 282.183594 317.964844 278.074219 314.960938 276.433594 Z M 314.960938 276.433594 " fill-opacity="1" fill-rule="nonzero"/></g></svg>