<svg xmlns="http://www.w3.org/2000/svg" xmlns:xlink="http://www.w3.org/1999/xlink" width="500" zoomAndPan="magnify" viewBox="0 0 375 374.999991" height="500" preserveAspectRatio="xMidYMid meet" version="1.0"><defs><clipPath id="6808399a4a"><path d="M 38 115 L 128 115 L 128 260.183594 L 38 260.183594 Z M 38 115 " clip-rule="nonzero"/></clipPath></defs><rect x="-37.5" width="450" fill="#ffffff" y="-37.499999" height="449.999989" fill-opacity="1"/><rect x="-37.5" width="450" fill="#00193f" y="-37.499999" height="449.999989" fill-opacity="1"/><path fill="#00f4ff" d="M 102.753906 147.265625 L 102.753906 138.738281 L 63.449219 138.652344 L 63.363281 200.914062 C 63.363281 201.335938 63.363281 201.800781 63.386719 202.222656 C 64.210938 214.847656 70.84375 223.101562 79.394531 229.960938 C 79.480469 230.027344 79.5 230.046875 79.523438 230.066406 L 82.945312 232.410156 L 86.386719 230.089844 C 86.40625 230.066406 86.472656 230.027344 86.554688 229.984375 C 86.554688 229.984375 86.554688 229.984375 86.578125 229.960938 C 89.765625 227.554688 93.589844 223.839844 96.015625 220.460938 C 99.503906 215.648438 102.542969 209.230469 102.671875 201.335938 L 102.734375 172.558594 L 83.746094 172.539062 L 94.074219 164.726562 C 99.523438 160.566406 102.753906 154.128906 102.753906 147.265625 Z M 90.503906 180.222656 L 90.484375 200.953125 C 90.460938 207.246094 87.589844 212.25 83.027344 216.894531 C 78.445312 212.25 75.613281 207.203125 75.59375 200.933594 L 75.613281 180.203125 Z M 86.195312 160.230469 L 75.636719 170.871094 L 75.65625 149.695312 L 90.570312 149.714844 C 90.546875 153.640625 88.984375 157.421875 86.195312 160.230469 Z M 86.195312 160.230469 " fill-opacity="1" fill-rule="nonzero"/><g clip-path="url(#6808399a4a)"><path fill="#00f4ff" d="M 38.949219 200.871094 C 38.949219 209.609375 40.933594 218.078125 44.863281 225.953125 C 50.96875 239.25 66.109375 251.835938 74.75 255.910156 L 82.945312 260.003906 L 91.140625 255.910156 C 99.839844 251.835938 114.984375 239.273438 121.109375 226.035156 C 125.058594 218.140625 127.105469 209.695312 127.105469 200.953125 L 127.171875 172.515625 L 114.960938 172.496094 L 114.898438 200.933594 C 115.027344 223.082031 98.128906 238.808594 82.945312 246.34375 C 75.425781 242.609375 61.867188 233.425781 55.78125 220.484375 C 52.699219 214.277344 51.136719 207.667969 51.15625 200.847656 L 51.261719 126.449219 L 114.984375 126.535156 L 114.960938 148.914062 L 121.785156 143.761719 C 125.183594 141.1875 127.191406 137.175781 127.191406 132.929688 L 127.253906 115.597656 L 39.097656 115.449219 Z M 38.949219 200.871094 " fill-opacity="1" fill-rule="nonzero"/></g><path fill="#ffffff" d="M 193.996094 145.703125 C 198.894531 142.980469 202.105469 138.210938 202.105469 131.875 C 202.128906 121.574219 193.679688 115.367188 183.226562 115.367188 L 158.007812 115.324219 L 157.984375 127.167969 L 170.636719 127.1875 L 161.574219 134.03125 C 159.292969 135.738281 157.964844 138.421875 157.941406 141.292969 L 157.878906 178.617188 L 187.890625 178.660156 C 197.691406 178.679688 205.867188 170.808594 205.84375 161.011719 C 205.867188 152.863281 201.621094 147.605469 193.996094 145.703125 Z M 171.015625 127.1875 L 183.203125 127.210938 C 187.089844 127.210938 190.257812 130.207031 190.257812 134.070312 C 190.257812 137.933594 187.089844 140.871094 183.183594 140.871094 L 170.996094 140.847656 Z M 186.964844 166.816406 L 170.953125 166.796875 L 170.976562 152.691406 L 186.984375 152.714844 C 190.871094 152.714844 194.039062 155.878906 194.039062 159.785156 C 194.039062 163.648438 190.871094 166.816406 186.964844 166.816406 Z M 186.964844 166.816406 " fill-opacity="1" fill-rule="nonzero"/><path fill="#ffffff" d="M 226.058594 166.859375 L 226.078125 152.757812 L 250.496094 152.796875 L 250.515625 140.953125 L 226.101562 140.910156 L 226.121094 127.273438 L 253.875 127.316406 L 253.894531 115.472656 L 213.109375 115.410156 L 213.089844 127.253906 L 225.742188 127.273438 L 216.679688 134.113281 C 214.398438 135.824219 213.066406 138.503906 213.046875 141.375 L 212.984375 178.703125 L 254.125 178.765625 L 254.148438 166.921875 Z M 226.058594 166.859375 " fill-opacity="1" fill-rule="nonzero"/><path fill="#ffffff" d="M 284.730469 127.359375 L 287.960938 127.359375 L 278.902344 134.199219 C 276.621094 135.910156 275.289062 138.589844 275.269531 141.460938 L 275.207031 178.789062 L 288.238281 178.808594 L 288.320312 127.359375 L 304.226562 127.378906 L 304.246094 115.535156 L 259.40625 115.472656 L 259.386719 127.316406 L 275.289062 127.335938 Z M 284.730469 127.359375 " fill-opacity="1" fill-rule="nonzero"/><path fill="#ffffff" d="M 183.5 239.652344 C 175.09375 239.632812 168.589844 231.945312 168.609375 219.363281 L 168.609375 219.089844 C 168.628906 206.800781 173.785156 198.949219 184.957031 198.96875 C 199.890625 198.992188 204.132812 213.347656 204.132812 213.347656 L 204.15625 195.210938 C 199.277344 190.230469 193.214844 186.789062 183.816406 186.789062 C 167.089844 186.765625 155.132812 199.773438 155.09375 218.941406 L 155.09375 219.746094 C 155.070312 239.082031 166.265625 251.855469 182.886719 251.878906 C 192.558594 251.898438 198.621094 247.824219 204.324219 241.953125 L 204.34375 224.453125 C 204.386719 224.410156 198.136719 239.675781 183.5 239.652344 Z M 183.5 239.652344 " fill-opacity="1" fill-rule="nonzero"/><path fill="#ffffff" d="M 213.023438 187.714844 L 212.929688 250.988281 L 226.046875 251.007812 L 226.140625 187.734375 Z M 213.023438 187.714844 " fill-opacity="1" fill-rule="nonzero"/><path fill="#ffffff" d="M 322.175781 187.863281 L 309.589844 212.714844 L 297.128906 187.824219 L 282.300781 187.800781 L 302.851562 226.164062 L 302.832031 251.117188 L 315.949219 251.136719 L 315.96875 226.015625 L 336.644531 187.886719 Z M 322.175781 187.863281 " fill-opacity="1" fill-rule="nonzero"/><path fill="#ffffff" d="M 234.441406 199.582031 L 250.347656 199.605469 L 259.765625 199.625 L 262.996094 199.625 L 253.9375 206.464844 C 251.65625 208.175781 250.324219 210.855469 250.304688 213.726562 L 250.242188 251.054688 L 263.273438 251.074219 L 263.355469 199.625 L 279.261719 199.644531 L 279.28125 187.800781 L 234.441406 187.738281 Z M 234.441406 199.582031 " fill-opacity="1" fill-rule="nonzero"/></svg>