<svg xmlns="http://www.w3.org/2000/svg" xmlns:xlink="http://www.w3.org/1999/xlink" width="500" zoomAndPan="magnify" viewBox="0 0 375 374.999991" height="500" preserveAspectRatio="xMidYMid meet" version="1.0"><defs><clipPath id="f52849a708"><path d="M 37.5 145 L 84 145 L 84 229 L 37.5 229 Z M 37.5 145 " clip-rule="nonzero"/></clipPath><clipPath id="5c764219f4"><path d="M 94 144.683594 L 117 144.683594 L 117 229 L 94 229 Z M 94 144.683594 " clip-rule="nonzero"/></clipPath><clipPath id="b62a3a9440"><path d="M 290 172 L 337.5 172 L 337.5 230 L 290 230 Z M 290 172 " clip-rule="nonzero"/></clipPath></defs><rect x="-37.5" width="450" fill="#ffffff" y="-37.499999" height="449.999989" fill-opacity="1"/><rect x="-37.5" width="450" fill="#ffffff" y="-37.499999" height="449.999989" fill-opacity="1"/><g clip-path="url(#f52849a708)"><path fill="#df2025" d="M 80.738281 209.050781 C 79.734375 209.054688 78.734375 208.984375 77.742188 208.851562 C 76.746094 208.714844 75.765625 208.511719 74.800781 208.242188 C 73.832031 207.972656 72.886719 207.640625 71.96875 207.242188 C 71.046875 206.84375 70.15625 206.386719 69.296875 205.867188 C 68.4375 205.347656 67.617188 204.773438 66.839844 204.144531 C 66.058594 203.515625 65.324219 202.835938 64.636719 202.105469 C 63.949219 201.375 63.3125 200.601562 62.730469 199.785156 C 62.148438 198.96875 61.625 198.117188 61.160156 197.226562 C 60.695312 196.339844 60.292969 195.425781 59.949219 194.480469 C 59.609375 193.539062 59.335938 192.578125 59.125 191.597656 C 58.917969 190.617188 58.773438 189.628906 58.699219 188.628906 C 58.625 187.628906 58.621094 186.628906 58.679688 185.628906 C 58.742188 184.628906 58.871094 183.636719 59.070312 182.65625 C 59.269531 181.671875 59.53125 180.707031 59.859375 179.761719 C 60.1875 178.8125 60.582031 177.894531 61.035156 177 C 61.492188 176.105469 62.003906 175.25 62.574219 174.425781 C 63.683594 172.757812 65.015625 171.296875 66.570312 170.035156 C 68.550781 168.375 70.757812 167.105469 73.1875 166.222656 C 75.617188 165.339844 78.125 164.898438 80.710938 164.898438 C 81.632812 164.902344 82.554688 164.960938 83.46875 165.074219 L 83.46875 145.90625 C 82.0625 145.769531 80.644531 145.707031 79.152344 145.707031 C 77.789062 145.695312 76.429688 145.753906 75.074219 145.878906 C 73.714844 146.003906 72.367188 146.195312 71.03125 146.453125 C 69.691406 146.710938 68.371094 147.03125 67.066406 147.421875 C 65.757812 147.808594 64.476562 148.261719 63.214844 148.777344 C 61.953125 149.292969 60.722656 149.871094 59.519531 150.507812 C 58.3125 151.144531 57.144531 151.839844 56.011719 152.59375 C 54.875 153.34375 53.78125 154.152344 52.726562 155.015625 C 51.671875 155.875 50.660156 156.785156 49.699219 157.75 C 48.734375 158.710938 47.820312 159.714844 46.953125 160.769531 C 46.089844 161.820312 45.28125 162.910156 44.523438 164.042969 C 43.769531 165.175781 43.070312 166.339844 42.429688 167.542969 C 41.789062 168.742188 41.210938 169.972656 40.691406 171.230469 C 40.171875 172.488281 39.71875 173.769531 39.328125 175.074219 C 38.933594 176.375 38.609375 177.695312 38.347656 179.03125 C 38.089844 180.367188 37.894531 181.710938 37.769531 183.066406 C 37.640625 184.421875 37.582031 185.777344 37.589844 187.140625 C 37.597656 188.5 37.671875 189.855469 37.816406 191.210938 C 37.957031 192.5625 38.167969 193.90625 38.441406 195.238281 C 38.71875 196.570312 39.058594 197.886719 39.464844 199.183594 C 39.871094 200.484375 40.34375 201.757812 40.875 203.011719 C 41.40625 204.261719 42 205.484375 42.65625 206.679688 C 43.308594 207.875 44.019531 209.03125 44.789062 210.15625 C 45.558594 211.277344 46.382812 212.359375 47.257812 213.402344 C 48.136719 214.445312 49.0625 215.4375 50.035156 216.390625 C 51.011719 217.339844 52.03125 218.238281 53.097656 219.089844 C 54.160156 219.9375 55.265625 220.730469 56.40625 221.472656 C 57.550781 222.210938 58.726562 222.894531 59.941406 223.515625 C 61.152344 224.140625 62.390625 224.703125 63.65625 225.203125 C 64.921875 225.707031 66.210938 226.140625 67.523438 226.515625 C 68.832031 226.890625 70.15625 227.195312 71.5 227.441406 C 72.839844 227.683594 74.1875 227.855469 75.546875 227.964844 C 76.90625 228.074219 78.265625 228.117188 79.628906 228.089844 C 80.917969 228.097656 82.203125 228.039062 83.484375 227.914062 L 83.484375 208.882812 C 82.574219 208.996094 81.65625 209.050781 80.738281 209.050781 Z M 80.738281 209.050781 " fill-opacity="1" fill-rule="nonzero"/></g><g clip-path="url(#5c764219f4)"><path fill="#df2025" d="M 116.210938 155.617188 C 116.210938 156.316406 116.140625 157.011719 116.003906 157.695312 C 115.867188 158.382812 115.664062 159.050781 115.398438 159.695312 C 115.128906 160.34375 114.800781 160.957031 114.410156 161.539062 C 114.019531 162.121094 113.578125 162.660156 113.082031 163.152344 C 112.585938 163.648438 112.046875 164.089844 111.464844 164.476562 C 110.882812 164.867188 110.265625 165.195312 109.617188 165.460938 C 108.96875 165.730469 108.304688 165.933594 107.617188 166.070312 C 106.929688 166.207031 106.234375 166.273438 105.53125 166.273438 C 104.832031 166.273438 104.136719 166.203125 103.449219 166.066406 C 102.761719 165.929688 102.09375 165.730469 101.449219 165.460938 C 100.800781 165.191406 100.183594 164.863281 99.601562 164.476562 C 99.019531 164.085938 98.480469 163.644531 97.984375 163.148438 C 97.488281 162.652344 97.046875 162.117188 96.65625 161.535156 C 96.269531 160.953125 95.941406 160.335938 95.671875 159.691406 C 95.402344 159.042969 95.203125 158.378906 95.066406 157.691406 C 94.929688 157.003906 94.859375 156.3125 94.859375 155.613281 C 94.859375 154.910156 94.929688 154.21875 95.066406 153.53125 C 95.203125 152.847656 95.40625 152.179688 95.671875 151.53125 C 95.941406 150.886719 96.269531 150.273438 96.660156 149.691406 C 97.050781 149.109375 97.492188 148.570312 97.988281 148.074219 C 98.484375 147.582031 99.023438 147.136719 99.605469 146.75 C 100.1875 146.359375 100.800781 146.03125 101.449219 145.765625 C 102.097656 145.496094 102.765625 145.292969 103.453125 145.160156 C 104.140625 145.023438 104.835938 144.953125 105.535156 144.953125 C 106.238281 144.953125 106.929688 145.023438 107.617188 145.160156 C 108.304688 145.296875 108.972656 145.496094 109.621094 145.765625 C 110.269531 146.035156 110.886719 146.363281 111.46875 146.75 C 112.050781 147.140625 112.589844 147.582031 113.085938 148.078125 C 113.582031 148.574219 114.023438 149.109375 114.414062 149.691406 C 114.804688 150.277344 115.132812 150.890625 115.398438 151.535156 C 115.667969 152.183594 115.871094 152.851562 116.007812 153.539062 C 116.144531 154.222656 116.210938 154.917969 116.210938 155.617188 Z M 115.0625 228.117188 L 96 228.117188 L 96 183.257812 L 115.0625 183.257812 Z M 115.0625 228.117188 " fill-opacity="1" fill-rule="nonzero"/></g><path fill="#222121" d="M 146.652344 183.269531 L 146.863281 183.269531 C 147.289062 182.511719 147.765625 181.785156 148.292969 181.089844 C 148.824219 180.398438 149.394531 179.742188 150.015625 179.132812 C 150.636719 178.519531 151.296875 177.953125 151.996094 177.429688 C 152.695312 176.910156 153.425781 176.441406 154.191406 176.023438 C 154.957031 175.605469 155.746094 175.242188 156.5625 174.933594 C 157.378906 174.625 158.210938 174.375 159.0625 174.183594 C 159.914062 173.992188 160.773438 173.863281 161.644531 173.792969 C 162.511719 173.722656 163.382812 173.710938 164.253906 173.761719 L 167.929688 173.761719 L 167.929688 192.066406 C 165.410156 190.730469 162.722656 190.140625 159.871094 190.292969 C 149.296875 190.292969 146.679688 197.304688 146.679688 206.492188 L 146.679688 228.128906 L 127.621094 228.128906 L 127.621094 174.503906 L 146.691406 174.503906 Z M 146.652344 183.269531 " fill-opacity="1" fill-rule="nonzero"/><path fill="#222121" d="M 215.535156 191.96875 C 214.132812 190.832031 212.59375 189.941406 210.90625 189.296875 C 209.222656 188.65625 207.476562 188.292969 205.675781 188.207031 C 204.8125 188.195312 203.957031 188.269531 203.109375 188.425781 C 202.261719 188.585938 201.4375 188.828125 200.636719 189.148438 C 199.839844 189.472656 199.078125 189.875 198.359375 190.347656 C 197.640625 190.824219 196.976562 191.367188 196.367188 191.976562 C 195.757812 192.585938 195.214844 193.25 194.738281 193.96875 C 194.257812 194.6875 193.859375 195.445312 193.535156 196.242188 C 193.210938 197.042969 192.96875 197.863281 192.8125 198.710938 C 192.652344 199.558594 192.578125 200.410156 192.59375 201.273438 C 192.578125 201.710938 192.582031 202.152344 192.613281 202.589844 C 192.644531 203.03125 192.695312 203.464844 192.769531 203.898438 C 192.847656 204.332031 192.945312 204.761719 193.0625 205.1875 C 193.183594 205.609375 193.324219 206.027344 193.488281 206.433594 C 193.648438 206.84375 193.832031 207.242188 194.039062 207.632812 C 194.242188 208.023438 194.46875 208.402344 194.710938 208.769531 C 194.953125 209.136719 195.21875 209.488281 195.496094 209.828125 C 195.777344 210.167969 196.074219 210.492188 196.390625 210.800781 C 196.703125 211.109375 197.03125 211.402344 197.375 211.675781 C 197.722656 211.949219 198.078125 212.207031 198.449219 212.445312 C 198.820312 212.683594 199.203125 212.898438 199.597656 213.097656 C 199.992188 213.296875 200.394531 213.472656 200.804688 213.628906 C 201.21875 213.785156 201.636719 213.921875 202.0625 214.035156 C 202.488281 214.148438 202.917969 214.238281 203.355469 214.304688 C 203.789062 214.375 204.226562 214.421875 204.667969 214.441406 C 205.109375 214.464844 205.546875 214.46875 205.988281 214.445312 C 207.746094 214.421875 209.441406 214.097656 211.082031 213.464844 C 212.71875 212.832031 214.195312 211.9375 215.511719 210.773438 L 215.511719 226.867188 C 211.285156 228.929688 206.820312 229.941406 202.113281 229.902344 C 201.175781 229.929688 200.234375 229.914062 199.296875 229.847656 C 198.359375 229.785156 197.425781 229.675781 196.496094 229.519531 C 195.570312 229.359375 194.652344 229.160156 193.746094 228.910156 C 192.835938 228.664062 191.945312 228.371094 191.066406 228.03125 C 190.1875 227.695312 189.328125 227.316406 188.488281 226.894531 C 187.648438 226.472656 186.832031 226.007812 186.035156 225.503906 C 185.242188 225 184.476562 224.457031 183.734375 223.878906 C 182.996094 223.296875 182.285156 222.683594 181.609375 222.03125 C 180.929688 221.378906 180.285156 220.699219 179.675781 219.984375 C 179.066406 219.269531 178.492188 218.523438 177.957031 217.753906 C 177.417969 216.980469 176.921875 216.183594 176.464844 215.363281 C 176.007812 214.542969 175.59375 213.699219 175.222656 212.835938 C 174.847656 211.972656 174.519531 211.09375 174.234375 210.199219 C 173.949219 209.304688 173.710938 208.398438 173.515625 207.480469 C 173.324219 206.558594 173.175781 205.632812 173.074219 204.699219 C 172.972656 203.765625 172.914062 202.828125 172.90625 201.890625 C 172.890625 200.910156 172.925781 199.933594 173.007812 198.960938 C 173.09375 197.988281 173.226562 197.019531 173.410156 196.058594 C 173.589844 195.097656 173.820312 194.148438 174.101562 193.210938 C 174.382812 192.273438 174.707031 191.355469 175.082031 190.449219 C 175.457031 189.546875 175.875 188.664062 176.339844 187.800781 C 176.800781 186.941406 177.308594 186.105469 177.859375 185.296875 C 178.40625 184.488281 178.996094 183.707031 179.625 182.957031 C 180.253906 182.210938 180.921875 181.492188 181.625 180.8125 C 182.324219 180.128906 183.058594 179.488281 183.828125 178.878906 C 184.597656 178.273438 185.394531 177.707031 186.21875 177.183594 C 187.046875 176.65625 187.898438 176.175781 188.773438 175.734375 C 189.648438 175.296875 190.542969 174.90625 191.457031 174.558594 C 192.375 174.210938 193.304688 173.910156 194.25 173.65625 C 195.199219 173.40625 196.152344 173.203125 197.121094 173.046875 C 198.089844 172.890625 199.058594 172.785156 200.039062 172.730469 C 201.015625 172.675781 201.992188 172.667969 202.972656 172.714844 C 207.429688 172.683594 211.617188 173.730469 215.535156 175.851562 Z M 215.535156 191.96875 " fill-opacity="1" fill-rule="nonzero"/><path fill="#222121" d="M 245.628906 174.5 L 245.628906 203.136719 C 245.628906 209.933594 247.296875 214.738281 255.15625 214.738281 C 263.011719 214.738281 264.675781 209.929688 264.675781 203.136719 L 264.675781 174.5 L 283.738281 174.5 L 283.738281 206.796875 C 283.738281 224.460938 271.28125 229.90625 255.164062 229.90625 C 239.042969 229.90625 226.578125 224.480469 226.578125 206.796875 L 226.578125 174.5 Z M 245.628906 174.5 " fill-opacity="1" fill-rule="nonzero"/><g clip-path="url(#b62a3a9440)"><path fill="#222121" d="M 329.542969 188.296875 C 326.324219 186.644531 322.902344 185.773438 319.285156 185.6875 C 317.082031 185.6875 313.320312 186.628906 313.320312 189.359375 C 313.320312 193.03125 319.285156 193.539062 321.890625 194.066406 C 330.789062 195.84375 337.492188 200.023438 337.492188 209.957031 C 337.492188 224.078125 324.632812 229.917969 312.15625 229.917969 C 308.332031 229.90625 304.578125 229.375 300.898438 228.328125 C 297.21875 227.277344 293.75 225.753906 290.488281 223.753906 L 297.394531 210.453125 C 299.621094 212.007812 302.011719 213.25 304.566406 214.171875 C 307.125 215.09375 309.757812 215.664062 312.464844 215.886719 C 314.875 215.886719 318.433594 214.738281 318.433594 211.808594 C 318.433594 207.628906 312.464844 207.421875 306.5 205.851562 C 300.535156 204.28125 294.570312 201.375 294.570312 191.75 C 294.570312 178.585938 306.5 172.71875 318.226562 172.71875 C 324.371094 172.59375 330.269531 173.746094 335.917969 176.167969 Z M 329.542969 188.296875 " fill-opacity="1" fill-rule="nonzero"/></g></svg>