<svg xmlns="http://www.w3.org/2000/svg" xmlns:xlink="http://www.w3.org/1999/xlink" width="179" zoomAndPan="magnify" viewBox="0 0 134.25 30.750001" height="41" preserveAspectRatio="xMidYMid meet" version="1.0"><defs><clipPath id="28d7bad655"><path d="M 118.082031 20.265625 L 127.15625 20.265625 L 127.15625 27.214844 L 118.082031 27.214844 Z M 118.082031 20.265625 " clip-rule="nonzero"/></clipPath><clipPath id="31003487ca"><path d="M 0.167969 0 L 132.59375 0 L 132.59375 30.503906 L 0.167969 30.503906 Z M 0.167969 0 " clip-rule="nonzero"/></clipPath></defs><g clip-path="url(#28d7bad655)"><path fill="#1ac734" d="M 118.082031 20.265625 L 127.148438 20.265625 L 127.148438 27.214844 L 118.082031 27.214844 Z M 118.082031 20.265625 " fill-opacity="1" fill-rule="nonzero"/></g><g clip-path="url(#31003487ca)"><path fill="#1ac734" d="M -0.8125 -0.628906 L 132.929688 -0.628906 L 132.929688 30.816406 L -0.8125 30.816406 Z M -0.8125 -0.628906 " fill-opacity="1" fill-rule="nonzero"/></g><path fill="#ffffff" d="M 13.78125 25.066406 L 14.542969 21.199219 L 3.863281 21.199219 L 6.667969 6.992188 L 21.339844 6.992188 L 20.578125 10.859375 L 9.910156 10.859375 L 8.628906 17.316406 L 15.308594 17.316406 L 15.550781 16.03125 L 20.316406 12.148438 L 18.550781 21.199219 Z M 13.78125 25.066406 " fill-opacity="1" fill-rule="nonzero"/><path fill="#ffffff" d="M 32.828125 17.316406 L 34.09375 10.859375 L 27.433594 10.859375 L 26.152344 17.316406 Z M 21.382812 21.183594 L 24.191406 6.972656 L 38.859375 6.972656 L 36.070312 21.183594 Z M 21.382812 21.183594 " fill-opacity="1" fill-rule="nonzero"/><path fill="#ffffff" d="M 54.238281 28.375 L 43.976562 16.097656 L 42.960938 21.273438 L 38.949219 21.273438 L 41.757812 7.066406 L 45.761719 7.066406 L 44.738281 12.214844 L 51.097656 7.066406 L 57.105469 7.066406 L 48.367188 14.164062 L 55.378906 22.558594 Z M 54.238281 28.375 " fill-opacity="1" fill-rule="nonzero"/><path fill="#ffffff" d="M 70.867188 28.375 L 60.605469 16.097656 L 59.59375 21.273438 L 55.578125 21.273438 L 58.386719 7.066406 L 62.390625 7.066406 L 61.367188 12.214844 L 67.726562 7.066406 L 73.734375 7.066406 L 64.996094 14.164062 L 72.007812 22.558594 Z M 70.867188 28.375 " fill-opacity="1" fill-rule="nonzero"/><path fill="#ffffff" d="M 72.007812 21.183594 L 74.8125 6.972656 L 89.484375 6.972656 L 88.722656 10.859375 L 78.054688 10.859375 L 77.796875 12.148438 L 88.476562 12.148438 L 87.714844 16.015625 L 77.035156 16.015625 L 76.773438 17.316406 L 87.457031 17.316406 L 86.695312 21.183594 Z M 72.007812 21.183594 " fill-opacity="1" fill-rule="nonzero"/><path fill="#ffffff" d="M 103.410156 25.097656 L 95.851562 16.058594 L 94.511719 16.058594 L 93.5 21.222656 L 89.484375 21.222656 L 91.269531 12.175781 L 101.953125 12.175781 L 102.210938 10.882812 L 91.53125 10.882812 L 92.292969 7.015625 L 106.976562 7.015625 L 105.195312 16.058594 L 101.851562 16.058594 L 104.558594 19.28125 Z M 103.410156 25.097656 " fill-opacity="1" fill-rule="nonzero"/><path fill="#ffffff" d="M 103.652344 21.183594 L 116.371094 10.859375 L 109.023438 10.859375 L 109.785156 6.972656 L 127.136719 6.972656 L 114.425781 17.316406 L 122.425781 17.316406 L 121.664062 21.183594 Z M 103.652344 21.183594 " fill-opacity="1" fill-rule="nonzero"/></svg>