<svg xmlns="http://www.w3.org/2000/svg" xmlns:xlink="http://www.w3.org/1999/xlink" width="500" zoomAndPan="magnify" viewBox="0 0 375 374.999991" height="500" preserveAspectRatio="xMidYMid meet" version="1.0"><defs><clipPath id="2a700cfd1f"><path d="M 89 266.089844 L 116 266.089844 L 116 294 L 89 294 Z M 89 266.089844 " clip-rule="nonzero"/></clipPath><clipPath id="f67a43fb92"><path d="M 118 266.089844 L 148 266.089844 L 148 294 L 118 294 Z M 118 266.089844 " clip-rule="nonzero"/></clipPath><clipPath id="d97160728a"><path d="M 151 266.089844 L 172 266.089844 L 172 294 L 151 294 Z M 151 266.089844 " clip-rule="nonzero"/></clipPath><clipPath id="18ecd7f0b6"><path d="M 174 266.089844 L 200 266.089844 L 200 294 L 174 294 Z M 174 266.089844 " clip-rule="nonzero"/></clipPath><clipPath id="1ff0d662dd"><path d="M 203 266.089844 L 228 266.089844 L 228 294 L 203 294 Z M 203 266.089844 " clip-rule="nonzero"/></clipPath><clipPath id="9c64f5634c"><path d="M 230 266.089844 L 256 266.089844 L 256 294 L 230 294 Z M 230 266.089844 " clip-rule="nonzero"/></clipPath><clipPath id="f4d7afab5b"><path d="M 259 266.089844 L 285 266.089844 L 285 294 L 259 294 Z M 259 266.089844 " clip-rule="nonzero"/></clipPath></defs><rect x="-37.5" width="450" fill="#ffffff" y="-37.499999" height="449.999989" fill-opacity="1"/><rect x="-37.5" width="450" fill="#222121" y="-37.499999" height="449.999989" fill-opacity="1"/><g clip-path="url(#2a700cfd1f)"><path fill="#ffffff" d="M 89.808594 280.226562 L 89.808594 280.148438 C 89.808594 272.414062 95.875 266.332031 104.082031 266.332031 C 108.726562 266.332031 112.03125 267.78125 114.84375 270.1875 L 110.535156 275.386719 C 108.625 273.808594 106.765625 272.878906 104.132812 272.878906 C 100.3125 272.878906 97.347656 276.113281 97.347656 280.148438 L 97.347656 280.226562 C 97.347656 284.519531 100.339844 287.574219 104.546875 287.574219 C 106.328125 287.574219 107.695312 287.1875 108.78125 286.488281 L 108.78125 283.253906 L 103.566406 283.253906 L 103.566406 277.898438 L 115.75 277.898438 L 115.75 289.851562 C 112.933594 292.179688 109.039062 293.964844 104.238281 293.964844 C 95.976562 293.964844 89.808594 288.273438 89.808594 280.226562 Z M 89.808594 280.226562 " fill-opacity="1" fill-rule="nonzero"/></g><g clip-path="url(#f67a43fb92)"><path fill="#ffffff" d="M 118.921875 280.226562 L 118.921875 280.148438 C 118.921875 272.515625 125.066406 266.332031 133.246094 266.332031 C 141.429688 266.332031 147.492188 272.4375 147.492188 280.070312 L 147.492188 280.148438 C 147.492188 287.78125 141.351562 293.964844 133.167969 293.964844 C 124.988281 293.964844 118.921875 287.859375 118.921875 280.226562 Z M 139.984375 280.226562 L 139.984375 280.148438 C 139.984375 276.320312 137.222656 272.957031 133.167969 272.957031 C 129.144531 272.957031 126.460938 276.214844 126.460938 280.046875 L 126.460938 280.125 C 126.460938 283.953125 129.222656 287.316406 133.246094 287.316406 C 137.300781 287.339844 139.984375 284.082031 139.984375 280.226562 Z M 139.984375 280.226562 " fill-opacity="1" fill-rule="nonzero"/></g><g clip-path="url(#d97160728a)"><path fill="#ffffff" d="M 151.3125 266.851562 L 158.644531 266.851562 L 158.644531 286.953125 L 171.496094 286.953125 L 171.496094 293.394531 L 151.3125 293.394531 Z M 151.3125 266.851562 " fill-opacity="1" fill-rule="nonzero"/></g><g clip-path="url(#18ecd7f0b6)"><path fill="#ffffff" d="M 174.621094 266.851562 L 184.839844 266.851562 C 194.3125 266.851562 199.808594 272.335938 199.808594 279.96875 L 199.808594 280.046875 C 199.808594 287.730469 194.261719 293.421875 184.6875 293.421875 L 174.621094 293.421875 Z M 184.96875 286.902344 C 189.355469 286.902344 192.273438 284.46875 192.273438 280.175781 L 192.273438 280.097656 C 192.273438 275.855469 189.355469 273.371094 184.96875 273.371094 L 181.976562 273.371094 L 181.976562 286.875 Z M 184.96875 286.902344 " fill-opacity="1" fill-rule="nonzero"/></g><g clip-path="url(#1ff0d662dd)"><path fill="#ffffff" d="M 203.605469 266.851562 L 216.148438 266.851562 C 220.199219 266.851562 222.988281 267.910156 224.769531 269.722656 C 226.316406 271.25 227.117188 273.292969 227.117188 275.90625 L 227.117188 275.984375 C 227.117188 280.046875 224.949219 282.734375 221.644531 284.160156 L 227.96875 293.421875 L 219.476562 293.421875 L 214.132812 285.375 L 210.910156 285.375 L 210.910156 293.421875 L 203.578125 293.421875 Z M 215.785156 279.632812 C 218.289062 279.632812 219.734375 278.414062 219.734375 276.476562 L 219.734375 276.398438 C 219.734375 274.328125 218.210938 273.242188 215.761719 273.242188 L 210.960938 273.242188 L 210.960938 279.632812 Z M 215.785156 279.632812 " fill-opacity="1" fill-rule="nonzero"/></g><g clip-path="url(#9c64f5634c)"><path fill="#ffffff" d="M 230.496094 281.804688 L 230.496094 266.851562 L 237.957031 266.851562 L 237.957031 281.625 C 237.957031 285.453125 239.894531 287.261719 242.835938 287.261719 C 245.777344 287.261719 247.714844 285.53125 247.714844 281.777344 L 247.714844 266.851562 L 255.171875 266.851562 L 255.171875 281.597656 C 255.171875 290.1875 250.292969 293.9375 242.757812 293.9375 C 235.222656 293.9375 230.496094 290.109375 230.496094 281.804688 Z M 230.496094 281.804688 " fill-opacity="1" fill-rule="nonzero"/></g><g clip-path="url(#f4d7afab5b)"><path fill="#ffffff" d="M 259.535156 266.851562 L 266.375 266.851562 L 277.265625 280.898438 L 277.265625 266.851562 L 284.515625 266.851562 L 284.515625 293.421875 L 278.089844 293.421875 L 266.785156 278.855469 L 266.785156 293.421875 L 259.507812 293.421875 Z M 259.535156 266.851562 " fill-opacity="1" fill-rule="nonzero"/></g><path fill="#01051b" d="M 188.339844 59.152344 C 241.070312 59.152344 283.90625 102.351562 283.90625 155.695312 C 283.90625 209.042969 241.148438 252.242188 188.339844 252.242188 C 135.613281 252.242188 92.859375 209.042969 92.859375 155.695312 C 92.859375 102.351562 135.613281 59.152344 188.339844 59.152344 Z M 188.339844 59.152344 " fill-opacity="1" fill-rule="evenodd"/><path fill="#fd6800" d="M 188.339844 66.023438 C 237.308594 66.023438 277.039062 106.195312 277.039062 155.695312 C 277.039062 205.195312 237.308594 245.289062 188.339844 245.289062 C 139.375 245.289062 99.726562 205.195312 99.726562 155.695312 C 99.726562 106.195312 139.375 66.023438 188.339844 66.023438 Z M 188.339844 66.023438 " fill-opacity="1" fill-rule="evenodd"/><path fill="#01051b" d="M 161.199219 83.042969 C 160.953125 79.851562 158.910156 75.105469 157.601562 72.160156 C 156.296875 69.132812 154.742188 66.1875 153.269531 63.242188 C 148.527344 63.078125 144.6875 59.152344 144.6875 54.242188 C 144.6875 49.253906 148.691406 45.242188 153.597656 45.242188 C 158.503906 45.242188 162.425781 49.253906 162.425781 54.242188 C 163.816406 54.980469 166.757812 55.46875 167.660156 55.550781 C 169.621094 55.714844 172.5625 55.550781 174.363281 54.816406 C 177.632812 53.425781 180.738281 50.480469 181.390625 46.878906 C 179.757812 45.078125 178.777344 42.707031 178.777344 40.007812 C 178.777344 34.359375 183.273438 29.859375 188.832031 29.859375 C 194.390625 29.859375 198.886719 34.441406 198.886719 40.007812 C 198.886719 42.789062 197.742188 45.324219 195.941406 47.207031 C 196.679688 50.644531 199.785156 53.507812 202.890625 54.816406 C 204.691406 55.550781 207.632812 55.714844 209.59375 55.550781 C 210.496094 55.46875 212.945312 55.144531 214.5 54.488281 C 214.5 54.40625 214.5 54.324219 214.5 54.242188 C 214.5 49.253906 218.507812 45.242188 223.410156 45.242188 C 228.316406 45.242188 232.238281 49.253906 232.238281 54.242188 C 232.238281 58.988281 228.644531 62.832031 223.984375 63.160156 C 222.511719 66.105469 221.039062 69.050781 219.652344 72.078125 C 218.34375 75.023438 216.296875 79.769531 216.054688 82.960938 L 215.480469 89.914062 L 209.105469 87.296875 C 198.3125 82.878906 178.859375 82.796875 168.066406 87.296875 L 161.691406 89.996094 Z M 161.199219 83.042969 " fill-opacity="1" fill-rule="evenodd"/><path fill="#ffffff" d="M 166.269531 82.222656 C 178.285156 77.234375 199.132812 77.316406 211.148438 82.222656 C 211.3125 79.933594 212.210938 76.824219 213.4375 73.714844 C 210.902344 72.980469 208.367188 72.488281 205.753906 72.324219 L 203.21875 67.414062 C 207.226562 67.824219 211.3125 68.398438 215.234375 69.460938 C 216.460938 66.597656 217.851562 63.816406 218.996094 61.523438 C 217.933594 60.871094 216.953125 59.96875 216.21875 58.90625 C 211.640625 60.871094 204.609375 60.707031 200.929688 59.234375 C 196.84375 57.515625 193 53.996094 191.445312 49.578125 C 190.628906 49.824219 189.730469 49.90625 188.832031 49.90625 C 187.851562 49.90625 186.789062 49.742188 185.886719 49.496094 C 184.335938 53.996094 180.492188 57.515625 176.324219 59.234375 C 172.5625 60.789062 165.371094 60.953125 160.792969 58.824219 C 160.136719 59.804688 159.238281 60.707031 158.257812 61.359375 C 159.484375 63.734375 160.875 66.597656 162.097656 69.542969 C 166.105469 68.480469 170.109375 67.90625 174.199219 67.496094 L 171.664062 72.40625 C 169.046875 72.652344 166.433594 73.0625 163.980469 73.796875 C 165.125 76.90625 166.105469 79.933594 166.269531 82.222656 Z M 188.339844 58.660156 C 189.484375 62.996094 192.265625 65.777344 196.515625 66.925781 C 192.183594 68.152344 189.484375 70.851562 188.339844 75.269531 C 187.195312 70.933594 184.417969 68.152344 180.085938 66.925781 C 184.417969 65.777344 187.195312 62.996094 188.339844 58.660156 Z M 223.328125 49.332031 C 225.78125 49.332031 227.824219 51.378906 227.824219 53.914062 C 227.824219 56.453125 225.78125 58.496094 223.328125 58.496094 C 220.796875 58.496094 218.832031 56.453125 218.832031 53.914062 C 218.832031 51.378906 220.875 49.332031 223.328125 49.332031 Z M 188.832031 34.851562 C 191.445312 34.851562 193.65625 37.0625 193.65625 39.679688 C 193.65625 42.378906 191.527344 44.507812 188.832031 44.507812 C 186.214844 44.507812 184.007812 42.296875 184.007812 39.679688 C 184.089844 37.0625 186.214844 34.851562 188.832031 34.851562 Z M 153.597656 49.332031 C 156.050781 49.332031 158.09375 51.378906 158.09375 53.914062 C 158.09375 56.453125 156.050781 58.496094 153.597656 58.496094 C 151.144531 58.496094 149.101562 56.453125 149.101562 53.914062 C 149.101562 51.378906 151.144531 49.332031 153.597656 49.332031 Z M 153.597656 49.332031 " fill-opacity="1" fill-rule="evenodd"/><path fill="#01051b" d="M 223.738281 84.023438 C 227.90625 81.242188 233.382812 78.789062 238.207031 77.316406 C 241.476562 76.332031 244.582031 75.597656 248.097656 75.023438 C 250.796875 74.617188 256.355469 73.796875 258.972656 73.878906 C 259.378906 74.453125 260.605469 78.378906 260.933594 79.277344 C 263.058594 85.578125 263.792969 91.386719 262.488281 98.097656 C 261.261719 104.234375 257.582031 109.714844 253.167969 114.214844 C 260.933594 126.40625 265.511719 140.886719 265.511719 156.515625 C 265.511719 199.550781 231.011719 234.40625 188.503906 234.40625 C 145.996094 234.40625 111.496094 199.550781 111.496094 156.515625 C 111.496094 140.5625 116.238281 125.667969 124.414062 113.316406 C 120.40625 108.980469 117.054688 103.824219 115.910156 98.097656 C 114.601562 91.386719 115.339844 85.578125 117.464844 79.277344 C 117.792969 78.378906 119.019531 74.453125 119.425781 73.878906 C 122.042969 73.878906 127.601562 74.617188 130.300781 75.023438 C 133.8125 75.597656 137.003906 76.414062 140.191406 77.316406 C 145.09375 78.789062 150.574219 81.242188 154.742188 84.023438 C 155.3125 84.433594 156.050781 84.925781 156.703125 85.496094 C 166.433594 80.996094 177.140625 78.542969 188.503906 78.542969 C 200.195312 78.542969 211.3125 81.160156 221.285156 85.90625 C 222.101562 85.171875 223.003906 84.515625 223.738281 84.023438 Z M 223.738281 84.023438 " fill-opacity="1" fill-rule="evenodd"/><path fill="#ffffff" d="M 237.796875 147.597656 C 232.8125 156.269531 232.8125 155.289062 226.109375 160.851562 C 226.4375 163.0625 226.761719 161.914062 227.5 168.542969 C 227.742188 170.75 227.578125 174.023438 227.335938 176.234375 C 226.355469 184.167969 223.246094 191.042969 218.425781 195.953125 C 217.28125 197.097656 215.5625 198.242188 214.664062 199.222656 C 222.921875 196.523438 230.195312 187.605469 234.445312 177.214844 C 236.816406 171.488281 238.125 164.941406 238.453125 158.886719 C 238.535156 158.152344 238.535156 157.742188 238.535156 157.007812 C 238.617188 155.125 238.535156 149.152344 237.796875 147.597656 Z M 140.84375 98.261719 L 140.273438 97.605469 C 138.964844 96.050781 137.820312 94.25 136.511719 92.617188 L 134.796875 90.734375 C 134.222656 90.324219 133.8125 89.832031 132.507812 88.933594 C 130.953125 87.871094 128.992188 87.132812 127.191406 86.5625 L 124.902344 85.90625 C 124.820312 85.90625 124.578125 85.824219 124.578125 85.824219 C 124.332031 85.824219 124.414062 85.824219 124.25 85.90625 C 123.921875 86.722656 123.59375 90.078125 123.515625 91.222656 C 123.105469 97.441406 124.003906 101.453125 126.539062 106.769531 C 126.210938 106.605469 125.066406 104.96875 124.660156 104.480469 C 123.023438 102.351562 121.308594 98.34375 120.898438 95.398438 C 120.488281 92.859375 120.570312 89.914062 120.980469 87.460938 C 121.226562 86.234375 122.125 81.734375 122.53125 80.832031 C 126.375 80.425781 135.53125 83.207031 139.210938 84.925781 C 140.4375 85.496094 141.582031 86.070312 142.726562 86.722656 C 144.933594 87.953125 147.140625 89.425781 149.101562 90.980469 C 149.347656 91.222656 149.589844 91.46875 149.917969 91.632812 C 146.894531 93.351562 143.871094 95.5625 140.84375 98.261719 Z M 236.574219 98.261719 L 237.144531 97.605469 C 238.535156 96.050781 239.679688 94.25 240.988281 92.617188 L 242.703125 90.734375 C 243.277344 90.324219 243.765625 89.832031 245.074219 88.933594 C 246.710938 87.871094 248.671875 87.132812 250.550781 86.5625 L 252.839844 85.90625 C 252.921875 85.90625 253.167969 85.824219 253.25 85.824219 C 253.496094 85.824219 253.414062 85.824219 253.574219 85.90625 C 253.902344 86.722656 254.230469 90.078125 254.3125 91.222656 C 254.71875 97.441406 253.820312 101.453125 251.207031 106.769531 C 251.53125 106.605469 252.757812 104.96875 253.167969 104.480469 C 254.882812 102.351562 256.601562 98.34375 257.007812 95.398438 C 257.417969 92.859375 257.335938 89.914062 256.847656 87.460938 C 256.601562 86.234375 255.703125 81.734375 255.292969 80.832031 C 251.367188 80.425781 241.96875 83.207031 238.207031 84.925781 C 236.980469 85.496094 235.753906 86.070312 234.609375 86.722656 C 232.320312 87.953125 230.113281 89.425781 228.070312 90.980469 C 227.824219 91.222656 227.5 91.46875 227.253906 91.632812 C 230.359375 93.351562 233.464844 95.5625 236.574219 98.261719 Z M 118.527344 139.332031 C 120.980469 136.140625 122.613281 134.914062 126.210938 134.179688 C 125.882812 135.652344 118.199219 146.859375 116.074219 158.96875 C 117.875 155.453125 120.324219 153.570312 124.085938 151.195312 C 120.570312 162.324219 115.828125 167.886719 121.878906 187.605469 C 122.777344 185.96875 120.40625 174.515625 126.949219 169.6875 C 122.613281 180.816406 128.746094 198.980469 136.511719 207.816406 C 137.085938 208.46875 139.453125 210.84375 140.273438 211.167969 C 140.027344 209.859375 139.535156 208.550781 139.292969 206.996094 C 138.882812 204.214844 138.882812 198.816406 140.84375 196.851562 C 143.132812 218.53125 159.320312 224.832031 178.613281 227.613281 C 167.25 222.214844 160.21875 212.070312 158.746094 203.558594 C 139.699219 196.523438 130.054688 174.84375 130.054688 156.105469 C 130.054688 148.089844 131.523438 140.398438 134.386719 132.707031 C 135.695312 129.269531 137.820312 123.953125 139.945312 121.007812 C 140.273438 120.597656 140.679688 120.023438 140.84375 119.535156 C 140.027344 119.535156 137.738281 120.515625 136.839844 120.84375 C 135.613281 121.332031 133.8125 121.90625 132.507812 122.234375 C 132.75 121.496094 133.160156 121.578125 133.894531 120.84375 L 139.453125 115.6875 C 142.316406 113.152344 145.421875 111.433594 148.285156 109.796875 C 147.710938 111.105469 147.304688 112.332031 146.976562 113.480469 C 146.566406 115.117188 146.238281 117.078125 146.078125 118.796875 C 145.585938 124.6875 146.402344 132.460938 150.410156 137.042969 C 152.289062 139.167969 155.234375 140.96875 158.257812 141.378906 L 159.15625 141.542969 C 160.546875 142.035156 149.753906 151.035156 141.988281 135.078125 C 140.191406 138.433594 147.304688 157.496094 158.339844 153.242188 C 166.1875 150.214844 167.167969 143.015625 166.105469 138.023438 C 162.753906 137.777344 162.097656 138.269531 159.238281 136.632812 C 156.539062 135.078125 154.660156 132.050781 154.167969 128.777344 C 153.761719 126.488281 154.089844 127.222656 153.023438 125.667969 C 152.289062 124.605469 150.328125 121.414062 150.164062 119.941406 C 152.453125 120.269531 156.703125 121.332031 158.992188 121.90625 C 161.855469 122.644531 164.46875 123.625 166.59375 125.097656 C 175.832031 131.398438 175.015625 143.75 169.945312 152.507812 C 167.085938 157.332031 163.488281 160.523438 158.746094 163.140625 L 155.152344 165.105469 C 155.640625 165.84375 157.113281 167.234375 157.929688 167.886719 C 164.46875 173.859375 168.558594 170.832031 169.457031 172.796875 C 171.089844 176.316406 165.042969 178.277344 158.910156 174.597656 C 157.683594 173.859375 156.457031 172.304688 155.96875 172.304688 C 157.113281 175.085938 157.03125 177.542969 160.136719 179.667969 C 163.488281 181.960938 165.449219 182.125 169.292969 181.140625 C 171.828125 180.488281 172.5625 185.152344 166.59375 186.132812 C 164.960938 186.378906 162.753906 186.296875 161.28125 185.804688 C 160.546875 185.558594 159.890625 185.316406 159.15625 184.988281 C 158.421875 184.660156 157.765625 184.25 157.113281 184.007812 C 157.441406 185.070312 158.664062 186.953125 159.238281 187.769531 C 161.773438 191.453125 166.351562 193.578125 171.171875 193.167969 C 176.242188 192.679688 179.347656 190.222656 182.128906 186.789062 C 185.070312 183.105469 185.152344 176.96875 182.617188 173.453125 C 179.675781 169.359375 177.386719 171.570312 174.523438 169.933594 C 172.074219 168.542969 170.683594 165.84375 171.089844 161.832031 C 171.335938 159.707031 172.890625 154.796875 174.523438 153.570312 C 174.28125 154.960938 173.871094 155.777344 173.789062 157.578125 C 173.789062 158.722656 173.542969 161.425781 174.035156 162.242188 C 174.199219 162.488281 181.308594 162.570312 188.339844 162.488281 C 195.289062 162.488281 202.402344 162.40625 202.648438 162.242188 C 203.136719 161.425781 202.972656 158.722656 202.890625 157.578125 C 202.808594 155.859375 202.402344 154.960938 202.15625 153.570312 C 203.710938 154.796875 205.34375 159.707031 205.589844 161.832031 C 206 165.84375 204.609375 168.542969 202.15625 169.933594 C 199.375 171.570312 197.007812 169.359375 194.0625 173.453125 C 191.527344 176.96875 191.609375 183.105469 194.554688 186.789062 C 197.332031 190.222656 200.441406 192.679688 205.507812 193.167969 C 210.332031 193.660156 214.910156 191.453125 217.441406 187.769531 C 218.015625 186.953125 219.242188 185.070312 219.570312 184.007812 C 218.914062 184.25 218.261719 184.660156 217.523438 184.988281 C 216.789062 185.316406 216.136719 185.558594 215.398438 185.804688 C 213.929688 186.296875 211.640625 186.378906 210.085938 186.132812 C 204.117188 185.152344 204.855469 180.488281 207.386719 181.140625 C 211.230469 182.207031 213.191406 181.960938 216.542969 179.667969 C 219.652344 177.542969 219.488281 175.085938 220.714844 172.304688 C 220.140625 172.386719 218.914062 173.941406 217.769531 174.597656 C 211.640625 178.277344 205.507812 176.316406 207.226562 172.796875 C 208.125 170.832031 212.210938 173.859375 218.75 167.886719 C 219.488281 167.234375 220.957031 165.84375 221.53125 165.105469 L 217.933594 163.140625 C 213.191406 160.523438 209.59375 157.332031 206.734375 152.507812 C 201.664062 143.75 200.847656 131.398438 210.085938 125.097656 C 212.210938 123.625 214.828125 122.644531 217.6875 121.90625 C 219.976562 121.25 224.226562 120.269531 226.515625 119.941406 C 226.355469 121.496094 224.390625 124.605469 223.65625 125.667969 C 222.511719 127.222656 222.839844 126.488281 222.511719 128.777344 C 222.019531 131.96875 220.140625 135.078125 217.441406 136.632812 C 214.582031 138.269531 213.929688 137.777344 210.578125 138.023438 C 209.59375 143.015625 210.578125 150.214844 218.34375 153.242188 C 229.378906 157.578125 236.492188 138.433594 234.691406 135.078125 C 232.238281 140.152344 228.152344 145.878906 221.695312 144.324219 C 220.796875 144.078125 215.972656 142.117188 217.523438 141.542969 L 218.425781 141.378906 C 221.367188 140.96875 224.390625 139.167969 226.273438 137.042969 C 230.277344 132.460938 231.175781 124.6875 230.605469 118.796875 C 230.441406 117.078125 230.113281 115.117188 229.707031 113.480469 C 229.378906 112.25 228.886719 110.777344 228.234375 109.386719 C 231.257812 111.105469 234.609375 112.90625 237.71875 115.6875 L 243.277344 120.84375 C 244.09375 121.578125 244.421875 121.496094 244.664062 122.234375 C 243.359375 121.90625 241.558594 121.332031 240.332031 120.84375 C 239.433594 120.515625 237.144531 119.535156 236.328125 119.535156 C 236.492188 120.023438 236.898438 120.597656 237.226562 121.007812 C 239.351562 124.035156 241.476562 129.351562 242.785156 132.707031 C 245.726562 140.398438 247.199219 148.167969 247.117188 156.105469 C 247.117188 174.925781 237.390625 196.523438 218.425781 203.558594 C 216.953125 212.070312 209.921875 222.132812 198.558594 227.613281 C 217.851562 224.914062 234.039062 218.53125 236.328125 196.851562 C 238.289062 198.816406 238.289062 204.214844 237.878906 206.996094 C 237.636719 208.550781 237.144531 209.859375 236.898438 211.167969 C 237.796875 210.84375 240.085938 208.46875 240.660156 207.816406 C 248.34375 198.980469 254.558594 180.816406 250.222656 169.6875 C 256.765625 174.515625 254.394531 186.050781 255.292969 187.605469 C 261.425781 167.886719 256.601562 162.324219 253.085938 151.195312 C 256.847656 153.488281 259.296875 155.453125 261.097656 158.96875 C 258.972656 146.859375 251.289062 135.652344 250.960938 134.179688 C 254.558594 134.914062 256.191406 136.0625 258.644531 139.332031 C 256.683594 130.988281 250.960938 118.222656 241.804688 109.0625 C 231.914062 99.242188 221.449219 93.597656 213.191406 89.34375 C 205.835938 86.5625 199.785156 85.578125 189.8125 85.089844 L 189.8125 85.007812 C 189.484375 85.007812 189.160156 85.007812 188.832031 85.007812 C 188.503906 85.007812 188.175781 85.007812 187.851562 85.007812 L 187.851562 85.089844 C 177.796875 85.578125 171.746094 86.5625 164.46875 89.34375 C 156.214844 93.515625 145.75 99.160156 135.859375 109.0625 C 126.210938 118.222656 120.488281 130.988281 118.527344 139.332031 Z M 164.226562 202.824219 C 168.804688 214.851562 177.46875 220.332031 188.421875 220.332031 C 194.472656 220.332031 199.621094 218.453125 203.710938 215.179688 C 206.734375 212.722656 212.210938 206.425781 212.292969 202.742188 C 207.304688 203.480469 201.910156 201.761719 197.90625 199.632812 C 195.207031 198.160156 192.347656 195.542969 190.300781 193.414062 L 188.667969 191.453125 C 188.09375 190.796875 188.832031 191.289062 187.933594 190.960938 C 186.789062 193.414062 181.636719 198.078125 178.449219 199.796875 C 176.570312 200.777344 174.28125 201.761719 171.992188 202.25 C 169.046875 202.90625 167.085938 202.578125 164.226562 202.824219 Z M 166.105469 131.722656 C 165.941406 130.660156 164.304688 129.023438 163.570312 128.617188 C 162.917969 128.207031 160.300781 127.0625 159.566406 127.140625 C 159.402344 131.398438 162.425781 134.261719 166.105469 131.722656 Z M 210.332031 131.722656 C 210.496094 130.660156 212.128906 129.023438 212.867188 128.617188 C 213.519531 128.207031 216.136719 127.0625 216.871094 127.140625 C 217.035156 131.398438 214.011719 134.261719 210.332031 131.722656 Z M 137.328125 147.105469 C 142.316406 155.777344 142.316406 156.597656 149.019531 162.160156 C 147.222656 178.035156 149.347656 183.761719 158.992188 196.195312 C 152.699219 195.707031 144.6875 186.625 139.535156 174.515625 C 135.941406 166.085938 134.796875 155.859375 137.328125 147.105469 Z M 188.175781 120.433594 C 180.328125 110.695312 165.777344 109.796875 165.777344 109.796875 C 165.777344 109.796875 180.328125 107.261719 188.175781 110.859375 C 195.78125 107.34375 210.578125 109.796875 210.578125 109.796875 C 210.578125 109.796875 196.023438 110.617188 188.175781 120.433594 Z M 188.175781 103.988281 C 170.191406 93.105469 155.886719 101.777344 155.886719 101.777344 C 173.625 89.261719 202.402344 89.75 220.46875 101.777344 C 220.46875 101.859375 206.082031 93.1875 188.175781 103.988281 Z M 188.175781 103.988281 " fill-opacity="1" fill-rule="evenodd"/><path fill="#ffffff" d="M 124.542969 314.347656 L 124.542969 314.28125 C 124.542969 307.882812 129.28125 302.605469 135.894531 302.605469 C 139.953125 302.605469 142.398438 304.054688 144.648438 306.1875 L 142.921875 308.058594 C 141.023438 306.253906 138.925781 304.957031 135.871094 304.957031 C 130.894531 304.957031 127.183594 309.023438 127.183594 314.214844 L 127.183594 314.28125 C 127.183594 319.515625 130.9375 323.605469 135.871094 323.605469 C 138.949219 323.605469 140.957031 322.417969 143.117188 320.351562 L 144.800781 322 C 142.464844 324.398438 139.886719 325.957031 135.828125 325.957031 C 129.300781 325.957031 124.542969 320.835938 124.542969 314.347656 Z M 124.542969 314.347656 " fill-opacity="1" fill-rule="nonzero"/><path fill="#ffffff" d="M 157.460938 302.824219 L 159.839844 302.824219 L 170.054688 325.5625 L 167.328125 325.5625 L 164.707031 319.601562 L 152.503906 319.601562 L 149.84375 325.5625 L 147.246094 325.5625 Z M 163.703125 317.316406 L 158.617188 305.792969 L 153.488281 317.316406 Z M 163.703125 317.316406 " fill-opacity="1" fill-rule="nonzero"/><path fill="#ffffff" d="M 172.542969 322.285156 L 174.117188 320.417969 C 176.453125 322.550781 178.699219 323.625 181.800781 323.625 C 184.8125 323.625 186.796875 322 186.796875 319.777344 L 186.796875 319.710938 C 186.796875 317.625 185.683594 316.4375 180.96875 315.425781 C 175.820312 314.304688 173.4375 312.609375 173.4375 308.894531 L 173.4375 308.828125 C 173.4375 305.265625 176.5625 302.648438 180.796875 302.648438 C 184.046875 302.648438 186.40625 303.570312 188.675781 305.417969 L 187.214844 307.398438 C 185.140625 305.703125 183.042969 304.957031 180.730469 304.957031 C 177.828125 304.957031 175.972656 306.585938 175.972656 308.605469 L 175.972656 308.671875 C 175.972656 310.804688 177.128906 311.992188 182.0625 313.050781 C 187.058594 314.148438 189.351562 315.972656 189.351562 319.449219 L 189.351562 319.515625 C 189.351562 323.386719 186.164062 325.914062 181.710938 325.914062 C 178.152344 325.890625 175.25 324.726562 172.542969 322.285156 Z M 172.542969 322.285156 " fill-opacity="1" fill-rule="nonzero"/><path fill="#ffffff" d="M 194.742188 302.976562 L 197.277344 302.976562 L 197.277344 325.5625 L 194.742188 325.5625 Z M 194.742188 302.976562 " fill-opacity="1" fill-rule="nonzero"/><path fill="#ffffff" d="M 203.847656 302.976562 L 206.226562 302.976562 L 220.347656 321.074219 L 220.347656 302.976562 L 222.816406 302.976562 L 222.816406 325.5625 L 220.785156 325.5625 L 206.3125 307.046875 L 206.3125 325.585938 L 203.847656 325.585938 Z M 203.847656 302.976562 " fill-opacity="1" fill-rule="nonzero"/><path fill="#ffffff" d="M 228.140625 314.347656 L 228.140625 314.28125 C 228.140625 308.058594 232.792969 302.605469 239.601562 302.605469 C 246.433594 302.605469 250.996094 307.992188 250.996094 314.214844 L 250.996094 314.28125 C 250.996094 320.503906 246.347656 325.957031 239.535156 325.957031 C 232.726562 325.957031 228.140625 320.59375 228.140625 314.347656 Z M 248.378906 314.347656 L 248.378906 314.28125 C 248.378906 309.15625 244.667969 304.957031 239.535156 304.957031 C 234.40625 304.957031 230.761719 309.089844 230.761719 314.214844 L 230.761719 314.28125 C 230.761719 319.40625 234.472656 323.605469 239.601562 323.605469 C 244.730469 323.625 248.378906 319.492188 248.378906 314.347656 Z M 248.378906 314.347656 " fill-opacity="1" fill-rule="nonzero"/></svg>