<svg xmlns="http://www.w3.org/2000/svg" xmlns:xlink="http://www.w3.org/1999/xlink" width="500" zoomAndPan="magnify" viewBox="0 0 375 374.999991" height="500" preserveAspectRatio="xMidYMid meet" version="1.0"><defs><clipPath id="96b882e2f8"><path d="M 37.5 151 L 337.5 151 L 337.5 225 L 37.5 225 Z M 37.5 151 " clip-rule="nonzero"/></clipPath><clipPath id="a44f9ee483"><path d="M 74.191406 224.695312 C 53.984375 224.695312 37.5 208.160156 37.5 187.808594 C 37.5 167.453125 53.984375 151.078125 74.191406 151.078125 C 94.394531 151.078125 110.875 167.617188 110.875 187.886719 C 110.875 208.160156 94.472656 224.695312 74.191406 224.695312 Z M 136.703125 190.59375 L 136.703125 180.097656 L 141.617188 180.097656 L 141.617188 164.039062 L 115.789062 164.039062 L 115.789062 180.015625 L 120.070312 180.015625 L 120.070312 195.917969 L 115.789062 195.917969 L 115.789062 211.894531 L 153.1875 211.894531 L 153.1875 209.113281 C 156.28125 211.179688 160.085938 212.292969 164.363281 212.292969 C 168.960938 212.292969 172.996094 211.257812 176.328125 209.351562 L 178.546875 208 C 181.796875 210.785156 186.074219 212.375 190.828125 212.375 C 198.039062 212.375 204.0625 208.714844 207.074219 202.992188 L 210.875 211.894531 L 221.492188 211.894531 L 225.0625 203.386719 C 228.148438 208.875 234.171875 212.214844 241.539062 212.214844 C 245.34375 212.214844 248.671875 211.578125 251.605469 210.226562 C 251.523438 210.703125 251.523438 211.179688 251.523438 211.65625 C 251.523438 214.203125 252.554688 216.585938 254.375 218.492188 C 257.230469 221.355469 262.300781 223.105469 267.769531 223.105469 C 273.472656 223.105469 278.070312 221.117188 281.082031 217.300781 C 282.664062 215.316406 283.695312 213.007812 284.171875 210.382812 C 286.308594 211.65625 288.847656 212.371094 291.699219 212.371094 C 292.886719 212.371094 294.15625 212.210938 295.425781 211.976562 L 314.597656 211.976562 L 314.597656 211.101562 C 316.960938 211.898438 319.394531 212.296875 321.890625 212.292969 C 330.921875 212.292969 337.5 206.726562 337.5 199.097656 C 337.5 196.472656 336.785156 194.25 335.28125 192.417969 C 336.308594 190.988281 336.863281 189.238281 336.863281 187.332031 C 336.863281 184.789062 335.835938 182.402344 334.011719 180.492188 C 331 177.472656 325.851562 176.121094 322.046875 176.121094 C 315.628906 176.121094 311.113281 178.824219 308.734375 182.480469 C 308.515625 182.101562 308.25 181.757812 307.941406 181.449219 C 305.960938 178.984375 302.15625 176.121094 295.105469 176.121094 C 292.253906 176.121094 289.957031 176.597656 288.132812 177.3125 L 288.132812 176.519531 L 270.144531 176.519531 C 268.957031 176.203125 267.691406 176.121094 266.5 176.121094 C 261.589844 176.121094 257.152344 178.265625 253.980469 181.921875 C 250.890625 178.1875 246.136719 176.121094 240.589844 176.121094 L 240.035156 176.121094 L 240.035156 164.035156 L 192.332031 164.035156 L 192.332031 176.121094 C 191.859375 176.121094 191.460938 176.042969 190.984375 176.042969 C 185.441406 176.042969 180.367188 178.347656 177.039062 182.164062 C 173.949219 178.265625 169.117188 176.042969 163.410156 176.042969 C 154.695312 176.042969 147.644531 182.085938 146.058594 190.429688 L 136.945312 190.429688 L 136.707031 190.589844 Z M 136.703125 190.59375 " clip-rule="nonzero"/></clipPath><linearGradient x1="-1.188688" gradientTransform="matrix(2.272705, 0, 0, 2.265625, 37.501469, 132.954547)" y1="29.017863" x2="132.740012" gradientUnits="userSpaceOnUse" y2="15.143237" id="33cc76c562"><stop stop-opacity="1" stop-color="rgb(31.399536%, 3.09906%, 0%)" offset="0"/><stop stop-opacity="1" stop-color="rgb(31.399536%, 3.09906%, 0%)" offset="0.0248665"/><stop stop-opacity="1" stop-color="rgb(31.399536%, 3.09906%, 0%)" offset="0.25"/><stop stop-opacity="1" stop-color="rgb(31.399536%, 3.09906%, 0%)" offset="0.3125"/><stop stop-opacity="1" stop-color="rgb(31.399536%, 3.09906%, 0%)" offset="0.328125"/><stop stop-opacity="1" stop-color="rgb(31.399536%, 3.09906%, 0%)" offset="0.335938"/><stop stop-opacity="1" stop-color="rgb(31.63147%, 3.225708%, 0.0686646%)" offset="0.339844"/><stop stop-opacity="1" stop-color="rgb(31.864929%, 3.352356%, 0.138855%)" offset="0.34375"/><stop stop-opacity="1" stop-color="rgb(32.243347%, 3.55835%, 0.25177%)" offset="0.347656"/><stop stop-opacity="1" stop-color="rgb(32.623291%, 3.765869%, 0.366211%)" offset="0.351562"/><stop stop-opacity="1" stop-color="rgb(33.003235%, 3.971863%, 0.479126%)" offset="0.355469"/><stop stop-opacity="1" stop-color="rgb(33.383179%, 4.177856%, 0.593567%)" offset="0.359375"/><stop stop-opacity="1" stop-color="rgb(33.761597%, 4.38385%, 0.706482%)" offset="0.363281"/><stop stop-opacity="1" stop-color="rgb(34.141541%, 4.589844%, 0.819397%)" offset="0.367188"/><stop stop-opacity="1" stop-color="rgb(34.519958%, 4.795837%, 0.932312%)" offset="0.371094"/><stop stop-opacity="1" stop-color="rgb(34.899902%, 5.003357%, 1.046753%)" offset="0.375"/><stop stop-opacity="1" stop-color="rgb(35.279846%, 5.209351%, 1.159668%)" offset="0.378906"/><stop stop-opacity="1" stop-color="rgb(35.65979%, 5.415344%, 1.274109%)" offset="0.382812"/><stop stop-opacity="1" stop-color="rgb(36.038208%, 5.621338%, 1.387024%)" offset="0.386719"/><stop stop-opacity="1" stop-color="rgb(36.418152%, 5.828857%, 1.501465%)" offset="0.390625"/><stop stop-opacity="1" stop-color="rgb(36.79657%, 6.034851%, 1.61438%)" offset="0.394531"/><stop stop-opacity="1" stop-color="rgb(37.176514%, 6.240845%, 1.728821%)" offset="0.398438"/><stop stop-opacity="1" stop-color="rgb(37.556458%, 6.446838%, 1.841736%)" offset="0.402344"/><stop stop-opacity="1" stop-color="rgb(37.936401%, 6.654358%, 1.954651%)" offset="0.40625"/><stop stop-opacity="1" stop-color="rgb(38.314819%, 6.860352%, 2.067566%)" offset="0.410156"/><stop stop-opacity="1" stop-color="rgb(38.694763%, 7.066345%, 2.182007%)" offset="0.414062"/><stop stop-opacity="1" stop-color="rgb(39.073181%, 7.272339%, 2.294922%)" offset="0.417969"/><stop stop-opacity="1" stop-color="rgb(39.453125%, 7.478333%, 2.409363%)" offset="0.421875"/><stop stop-opacity="1" stop-color="rgb(39.831543%, 7.684326%, 2.522278%)" offset="0.425781"/><stop stop-opacity="1" stop-color="rgb(40.211487%, 7.891846%, 2.636719%)" offset="0.429688"/><stop stop-opacity="1" stop-color="rgb(40.591431%, 8.097839%, 2.749634%)" offset="0.433594"/><stop stop-opacity="1" stop-color="rgb(40.971375%, 8.303833%, 2.864075%)" offset="0.4375"/><stop stop-opacity="1" stop-color="rgb(41.349792%, 8.509827%, 2.97699%)" offset="0.441406"/><stop stop-opacity="1" stop-color="rgb(41.729736%, 8.717346%, 3.091431%)" offset="0.445313"/><stop stop-opacity="1" stop-color="rgb(42.108154%, 8.92334%, 3.204346%)" offset="0.449219"/><stop stop-opacity="1" stop-color="rgb(42.488098%, 9.129333%, 3.317261%)" offset="0.453125"/><stop stop-opacity="1" stop-color="rgb(42.868042%, 9.335327%, 3.430176%)" offset="0.457031"/><stop stop-opacity="1" stop-color="rgb(43.247986%, 9.542847%, 3.544617%)" offset="0.460938"/><stop stop-opacity="1" stop-color="rgb(43.626404%, 9.74884%, 3.657532%)" offset="0.464844"/><stop stop-opacity="1" stop-color="rgb(44.006348%, 9.954834%, 3.771973%)" offset="0.46875"/><stop stop-opacity="1" stop-color="rgb(44.384766%, 10.160828%, 3.884888%)" offset="0.472656"/><stop stop-opacity="1" stop-color="rgb(44.764709%, 10.366821%, 3.999329%)" offset="0.476563"/><stop stop-opacity="1" stop-color="rgb(45.144653%, 10.572815%, 4.112244%)" offset="0.480469"/><stop stop-opacity="1" stop-color="rgb(45.524597%, 10.780334%, 4.226685%)" offset="0.484375"/><stop stop-opacity="1" stop-color="rgb(45.903015%, 10.986328%, 4.3396%)" offset="0.488281"/><stop stop-opacity="1" stop-color="rgb(46.282959%, 11.192322%, 4.454041%)" offset="0.492188"/><stop stop-opacity="1" stop-color="rgb(46.661377%, 11.398315%, 4.566956%)" offset="0.496094"/><stop stop-opacity="1" stop-color="rgb(47.041321%, 11.605835%, 4.679871%)" offset="0.5"/><stop stop-opacity="1" stop-color="rgb(47.419739%, 11.811829%, 4.792786%)" offset="0.503906"/><stop stop-opacity="1" stop-color="rgb(47.799683%, 12.017822%, 4.907227%)" offset="0.507812"/><stop stop-opacity="1" stop-color="rgb(48.179626%, 12.223816%, 5.020142%)" offset="0.511719"/><stop stop-opacity="1" stop-color="rgb(48.55957%, 12.431335%, 5.134583%)" offset="0.515625"/><stop stop-opacity="1" stop-color="rgb(48.937988%, 12.637329%, 5.247498%)" offset="0.519531"/><stop stop-opacity="1" stop-color="rgb(49.317932%, 12.843323%, 5.361938%)" offset="0.523438"/><stop stop-opacity="1" stop-color="rgb(49.69635%, 13.049316%, 5.474854%)" offset="0.527344"/><stop stop-opacity="1" stop-color="rgb(50.076294%, 13.25531%, 5.589294%)" offset="0.53125"/><stop stop-opacity="1" stop-color="rgb(50.456238%, 13.461304%, 5.702209%)" offset="0.535156"/><stop stop-opacity="1" stop-color="rgb(50.836182%, 13.668823%, 5.81665%)" offset="0.539062"/><stop stop-opacity="1" stop-color="rgb(51.2146%, 13.874817%, 5.929565%)" offset="0.542969"/><stop stop-opacity="1" stop-color="rgb(51.594543%, 14.080811%, 6.04248%)" offset="0.546875"/><stop stop-opacity="1" stop-color="rgb(51.972961%, 14.286804%, 6.155396%)" offset="0.550781"/><stop stop-opacity="1" stop-color="rgb(52.352905%, 14.494324%, 6.269836%)" offset="0.554688"/><stop stop-opacity="1" stop-color="rgb(52.732849%, 14.700317%, 6.382751%)" offset="0.558594"/><stop stop-opacity="1" stop-color="rgb(53.112793%, 14.906311%, 6.497192%)" offset="0.5625"/><stop stop-opacity="1" stop-color="rgb(53.491211%, 15.112305%, 6.610107%)" offset="0.566406"/><stop stop-opacity="1" stop-color="rgb(53.871155%, 15.319824%, 6.724548%)" offset="0.570312"/><stop stop-opacity="1" stop-color="rgb(54.249573%, 15.525818%, 6.837463%)" offset="0.574219"/><stop stop-opacity="1" stop-color="rgb(54.629517%, 15.731812%, 6.951904%)" offset="0.578125"/><stop stop-opacity="1" stop-color="rgb(55.007935%, 15.937805%, 7.064819%)" offset="0.582031"/><stop stop-opacity="1" stop-color="rgb(55.387878%, 16.143799%, 7.17926%)" offset="0.585938"/><stop stop-opacity="1" stop-color="rgb(55.767822%, 16.349792%, 7.292175%)" offset="0.589844"/><stop stop-opacity="1" stop-color="rgb(56.147766%, 16.557312%, 7.40509%)" offset="0.59375"/><stop stop-opacity="1" stop-color="rgb(56.526184%, 16.763306%, 7.518005%)" offset="0.597656"/><stop stop-opacity="1" stop-color="rgb(56.906128%, 16.969299%, 7.632446%)" offset="0.601562"/><stop stop-opacity="1" stop-color="rgb(57.284546%, 17.175293%, 7.745361%)" offset="0.605469"/><stop stop-opacity="1" stop-color="rgb(57.66449%, 17.382812%, 7.859802%)" offset="0.609375"/><stop stop-opacity="1" stop-color="rgb(58.044434%, 17.588806%, 7.972717%)" offset="0.613281"/><stop stop-opacity="1" stop-color="rgb(58.424377%, 17.7948%, 8.087158%)" offset="0.617188"/><stop stop-opacity="1" stop-color="rgb(58.612061%, 17.897034%, 8.14209%)" offset="0.625"/><stop stop-opacity="1" stop-color="rgb(58.799744%, 17.999268%, 8.198547%)" offset="0.75"/><stop stop-opacity="1" stop-color="rgb(58.799744%, 17.999268%, 8.198547%)" offset="0.975134"/><stop stop-opacity="1" stop-color="rgb(58.799744%, 17.999268%, 8.198547%)" offset="1"/></linearGradient></defs><rect x="-37.5" width="450" fill="#ffffff" y="-37.499999" height="449.999989" fill-opacity="1"/><rect x="-37.5" width="450" fill="#f7843d" y="-37.499999" height="449.999989" fill-opacity="1"/><g clip-path="url(#96b882e2f8)"><g clip-path="url(#a44f9ee483)"><path fill="url(#33cc76c562)" d="M 37.5 151.078125 L 37.5 224.695312 L 337.5 224.695312 L 337.5 151.078125 Z M 37.5 151.078125 " fill-rule="nonzero"/></g></g><path fill="#030303" d="M 74.183594 153.941406 C 55.566406 153.941406 40.351562 169.203125 40.351562 187.890625 C 40.351562 206.570312 55.566406 221.914062 74.265625 221.914062 C 92.96875 221.914062 108.179688 206.652344 108.179688 187.890625 C 108.179688 169.128906 92.886719 153.941406 74.183594 153.941406 Z M 74.183594 153.941406 " fill-opacity="0.27" fill-rule="nonzero"/><path fill="#f7f7f7" d="M 74.972656 199.890625 C 74.574219 199.574219 74.023438 199.652344 73.625 199.96875 C 72.199219 201.242188 70.140625 202.515625 68.082031 202.992188 C 67.683594 203.070312 67.523438 203.625 67.761719 204.105469 C 68.15625 204.980469 69.109375 206.171875 69.980469 206.964844 C 70.851562 207.761719 71.566406 208 72.199219 208.476562 C 72.835938 208.953125 73.78125 210.226562 74.179688 210.785156 C 74.261719 210.941406 74.5 210.941406 74.574219 210.785156 C 74.894531 210.226562 75.605469 209.035156 76.398438 208.398438 C 77.273438 207.683594 79.570312 206.410156 80.125 204.898438 C 80.359375 204.265625 80.757812 203.386719 81.074219 202.832031 C 81.46875 202.039062 81.234375 201.558594 80.679688 201.558594 C 78.539062 201.480469 76.398438 200.84375 74.972656 199.890625 Z M 74.972656 199.890625 " fill-opacity="1" fill-rule="nonzero"/><path fill="#f7f7f7" d="M 74.195312 156.167969 C 56.765625 156.167969 42.578125 170.398438 42.578125 187.886719 C 42.578125 205.457031 56.761719 219.609375 74.195312 219.609375 C 91.628906 219.609375 105.8125 205.378906 105.8125 187.890625 C 105.890625 170.398438 91.707031 156.171875 74.195312 156.171875 Z M 95.273438 168.171875 L 91.390625 172.066406 L 91.390625 171.832031 C 91.390625 170.398438 90.519531 169.523438 89.410156 168.570312 L 89.332031 168.492188 L 92.582031 165.707031 C 93.53125 166.425781 94.402344 167.296875 95.273438 168.171875 Z M 59.21875 163.246094 L 61.28125 162.054688 C 61.441406 161.976562 61.675781 161.8125 61.835938 161.738281 L 65.957031 167.140625 L 65.242188 160.464844 C 66.40625 160.050781 67.59375 159.734375 68.808594 159.511719 L 71.582031 167.539062 L 72.375 159.03125 C 73.007812 159.03125 73.5625 158.953125 74.195312 158.953125 C 74.828125 158.953125 75.386719 158.953125 76.019531 159.03125 L 76.808594 167.21875 L 79.582031 159.511719 C 80.773438 159.746094 81.960938 160.066406 83.152344 160.382812 L 82.4375 167.378906 L 86.476562 161.734375 C 87.558594 162.269531 88.617188 162.855469 89.644531 163.484375 L 87.667969 167.300781 C 86.558594 166.742188 85.371094 166.507812 84.894531 167.300781 C 84.097656 168.574219 83.308594 169.445312 83.070312 169.445312 C 82.199219 169.367188 80.613281 168.574219 78.871094 168.574219 C 75.460938 168.574219 74.433594 170.957031 74.433594 170.957031 C 74.433594 170.957031 72.691406 168.574219 69.597656 168.574219 C 66.507812 168.574219 65.558594 169.527344 65.558594 169.527344 C 65.558594 169.527344 64.765625 167.617188 64.210938 167.0625 C 63.816406 166.664062 62.308594 166.902344 60.882812 167.699219 L 60.804688 167.460938 L 58.746094 163.5625 C 58.824219 163.484375 59.0625 163.40625 59.222656 163.246094 Z M 81.960938 174.933594 C 79.664062 175.40625 78.316406 176.523438 77.839844 176.839844 C 77.285156 177.15625 77.046875 176.207031 77.285156 175.726562 C 77.523438 175.25 78.078125 175.25 78.632812 174.695312 C 79.980469 173.421875 80.613281 173.261719 81.960938 173.183594 C 82.914062 173.105469 83.78125 173.261719 84.335938 173.421875 C 84.890625 173.578125 85.289062 174.214844 85.683594 175.011719 C 85.84375 175.410156 86.238281 176.523438 86.164062 177.476562 C 86.164062 177.792969 85.921875 177.871094 85.84375 177.714844 C 85.765625 177.554688 85.050781 174.296875 81.960938 174.933594 Z M 85.445312 179.066406 C 85.128906 179.304688 84.496094 179.066406 84.496094 179.066406 C 84.496094 179.066406 83.546875 180.417969 83.148438 180.65625 C 82.832031 180.894531 79.1875 181.769531 79.1875 181.769531 C 79.1875 181.769531 78.792969 182.484375 78.398438 182.324219 C 77.839844 182.167969 78.398438 179.144531 78.710938 178.351562 C 78.949219 177.554688 81.011719 177.160156 82.277344 177.078125 C 83.546875 177.078125 84.816406 177.953125 85.527344 178.507812 C 85.6875 178.589844 85.6875 178.828125 85.445312 179.066406 Z M 69.917969 177.953125 C 68.96875 177.792969 68.488281 176.761719 67.460938 175.648438 C 65.875 174.058594 64.132812 175.332031 63.101562 175.648438 C 62.390625 175.804688 61.992188 174.613281 62.863281 173.582031 C 63.816406 172.46875 66.511719 172.46875 67.539062 173.105469 C 68.015625 173.421875 69.363281 175.726562 70.472656 176.125 C 72.769531 177 71.582031 178.191406 69.917969 177.953125 Z M 70.234375 182.566406 C 69.835938 182.722656 69.757812 182.246094 69.523438 182.089844 C 69.441406 182.007812 68.964844 182.167969 68.648438 181.929688 C 68.253906 181.691406 68.171875 181.210938 67.699219 180.894531 C 66.429688 180.101562 65.636719 180.335938 65.320312 180.179688 C 65.003906 180.019531 64.527344 179.542969 64.527344 179.542969 C 64.527344 179.542969 63.894531 179.78125 63.65625 179.542969 C 63.417969 179.304688 63.417969 179.144531 63.578125 178.988281 C 64.289062 178.429688 65.476562 177.554688 66.667969 177.636719 C 67.855469 177.636719 69.761719 178.109375 69.996094 178.828125 C 70.15625 179.304688 70.390625 180.65625 70.390625 181.609375 C 70.390625 182.085938 70.628906 182.402344 70.234375 182.5625 Z M 55.734375 165.789062 L 58.902344 168.730469 L 59.140625 168.96875 C 58.191406 169.925781 57.316406 171.039062 57.082031 171.910156 L 53.113281 168.253906 L 55.730469 165.789062 Z M 102.800781 191.546875 C 102.628906 192.746094 102.417969 193.941406 102.167969 195.125 L 87.984375 192.421875 L 101.058594 198.542969 C 100.582031 199.65625 100.109375 200.769531 99.550781 201.804688 L 86.558594 195.679688 L 97.648438 204.824219 C 96.9375 205.777344 96.144531 206.730469 95.351562 207.605469 L 85.050781 199.496094 L 92.65625 210.148438 C 91.707031 210.945312 90.757812 211.660156 89.726562 212.296875 L 82.277344 202.4375 L 86.636719 214.046875 C 85.527344 214.601562 84.417969 214.996094 83.226562 215.394531 L 79.265625 207.523438 L 79.820312 216.269531 C 78.632812 216.511719 77.367188 216.667969 76.097656 216.746094 L 74.351562 211.820312 L 72.609375 216.75 C 71.359375 216.667969 70.117188 216.507812 68.886719 216.273438 L 69.125 208.003906 L 65.476562 215.394531 C 64.289062 215 63.183594 214.601562 62.070312 214.046875 L 65.796875 203.472656 L 58.980469 212.375 C 57.953125 211.742188 57 211.023438 56.050781 210.226562 L 64.527344 198.460938 L 53.433594 207.765625 C 52.5625 206.890625 51.851562 205.9375 51.136719 204.984375 L 62.230469 195.679688 L 49.15625 201.882812 C 48.582031 200.820312 48.050781 199.734375 47.570312 198.625 L 60.726562 192.421875 L 46.460938 195.203125 C 46.148438 194.027344 45.910156 192.832031 45.75 191.625 L 60.011719 188.84375 L 45.433594 188.050781 L 45.433594 186.617188 L 45.511719 185.980469 C 45.511719 185.503906 45.589844 184.945312 45.667969 184.46875 L 59.378906 185.1875 L 46.304688 180.894531 C 46.621094 179.699219 46.9375 178.585938 47.414062 177.394531 L 58.191406 179.859375 L 48.917969 174.054688 L 50.820312 170.957031 L 60.410156 175.328125 C 60.25 175.804688 59.933594 176.757812 60.011719 178.507812 C 60.09375 181.050781 59.773438 182.722656 60.804688 183.753906 C 61.914062 184.867188 63.339844 185.742188 64.132812 186.773438 C 64.292969 187.015625 64.453125 187.171875 64.527344 187.410156 C 64.765625 187.648438 64.847656 187.808594 64.925781 187.96875 L 65.164062 188.445312 C 65.71875 187.492188 66.90625 186.933594 67.144531 187.09375 C 67.304688 187.253906 66.429688 188.046875 65.558594 190.191406 C 65.398438 190.667969 65.082031 191.464844 64.84375 192.101562 C 64.527344 193.054688 64.371094 194.007812 64.527344 195.28125 C 64.765625 197.347656 66.191406 199.972656 66.746094 200.6875 C 67.144531 201.164062 68.410156 200.925781 69.359375 200.6875 C 70.316406 200.449219 71.976562 199.492188 72.609375 198.699219 C 73.324219 197.90625 73.796875 197.347656 73.5625 196.078125 C 73.402344 195.203125 72.53125 194.007812 71.820312 193.53125 C 71.105469 193.132812 69.917969 192.257812 69.597656 191.785156 C 69.441406 191.546875 69.203125 191.148438 68.96875 190.828125 C 68.808594 190.511719 68.648438 190.273438 68.726562 190.113281 C 68.964844 189.957031 69.046875 190.035156 69.28125 190.273438 C 69.523438 190.511719 69.679688 190.828125 69.761719 190.75 C 69.835938 190.671875 69.761719 190.671875 69.761719 190.429688 C 69.90625 190.15625 70.117188 189.945312 70.390625 189.796875 C 71.183594 189.398438 72.691406 190.351562 74.273438 190.351562 C 75.859375 190.351562 77.917969 188.921875 78.554688 189.476562 C 78.949219 189.792969 79.03125 190.113281 79.03125 190.351562 C 79.03125 190.351562 79.03125 190.429688 79.109375 190.429688 C 79.347656 190.429688 79.585938 190.113281 79.820312 189.875 C 79.980469 189.71875 80.140625 189.636719 80.296875 189.71875 C 80.457031 189.796875 80.375 190.113281 80.296875 190.429688 C 80.21875 190.75 80.058594 191.066406 79.902344 191.148438 C 79.421875 191.546875 78.472656 191.546875 77.046875 192.816406 C 75.699219 194.007812 74.988281 195.125 74.90625 195.917969 C 74.828125 196.472656 75.148438 197.664062 75.703125 198.300781 C 76.253906 198.9375 76.96875 199.414062 78.316406 199.65625 C 79.503906 199.8125 81.804688 199.335938 82.4375 198.78125 C 83.308594 197.984375 83.78125 197.109375 84.101562 195.757812 C 84.417969 194.328125 84.179688 192.179688 83.941406 191.386719 C 83.226562 189.160156 82.121094 187.890625 82.4375 187.648438 C 82.671875 187.410156 83.386719 188.125 83.863281 188.523438 C 83.941406 188.207031 84.019531 187.332031 84.179688 186.855469 C 84.417969 185.820312 84.890625 185.265625 85.921875 184.707031 C 87.113281 183.992188 88.933594 182.960938 89.09375 181.765625 C 89.25 180.574219 89.410156 178.269531 89.171875 177.472656 C 89.011719 177 88.851562 176.203125 88.695312 175.644531 L 97.492188 170.875 C 98.207031 171.828125 98.839844 172.863281 99.472656 173.976562 L 90.519531 179.621094 L 101.058594 177.234375 C 101.535156 178.347656 101.929688 179.539062 102.167969 180.734375 L 88.378906 185.1875 L 102.800781 184.230469 C 102.960938 185.425781 103.039062 186.617188 103.039062 187.808594 L 103.039062 187.890625 L 88.617188 188.921875 Z M 102.800781 191.546875 " fill-opacity="1" fill-rule="nonzero"/><path fill="#030303" d="M 331.160156 192.417969 C 332.984375 191.542969 334.089844 189.636719 334.089844 187.410156 C 334.089844 185.582031 333.378906 183.988281 332.03125 182.558594 C 329.574219 180.09375 325.136719 178.980469 322.046875 178.980469 C 315.867188 178.980469 309.609375 182.480469 309.609375 189.238281 C 309.609375 192.179688 310.71875 194.167969 312.460938 195.597656 C 311.984375 195.761719 311.539062 195.984375 311.125 196.269531 C 310.710938 196.554688 310.34375 196.890625 310.019531 197.273438 C 309.699219 197.660156 309.4375 198.082031 309.230469 198.539062 C 309.027344 199 308.886719 199.476562 308.816406 199.972656 L 308.179688 199.972656 L 308.179688 190.910156 C 308.179688 187.804688 307.308594 185.027344 305.722656 183.273438 C 304.140625 181.289062 301.050781 178.984375 295.027344 178.984375 C 290.351562 178.984375 287.101562 180.414062 285.203125 182.402344 L 285.203125 179.457031 L 271.257812 179.457031 L 271.257812 180.015625 C 269.679688 179.382812 268.042969 179.0625 266.34375 179.0625 C 260.71875 179.0625 256.042969 182.480469 253.824219 187.492188 C 251.761719 182.324219 246.929688 179.0625 240.511719 179.0625 C 238.777344 179.046875 237.097656 179.328125 235.464844 179.902344 C 233.828125 180.476562 232.34375 181.308594 231 182.402344 L 233.144531 177.3125 L 237.105469 177.3125 L 237.105469 166.976562 L 217.773438 166.976562 L 217.773438 177.3125 L 220.941406 177.3125 L 216.1875 189.558594 L 211.433594 177.3125 L 214.367188 177.3125 L 214.367188 166.976562 L 195.03125 166.976562 L 195.03125 177.3125 L 199.230469 177.3125 L 201.6875 183.117188 C 198.914062 180.574219 195.1875 179.0625 190.832031 179.0625 C 184.332031 179.0625 179.023438 182.558594 176.648438 187.886719 C 174.746094 182.480469 169.753906 179.0625 163.175781 179.0625 C 154.9375 179.0625 148.753906 185.183594 148.28125 193.453125 L 139.484375 193.453125 L 139.484375 198.777344 L 133.699219 198.777344 L 133.699219 177.234375 L 138.613281 177.234375 L 138.613281 166.898438 L 118.488281 166.898438 L 118.488281 177.234375 L 122.765625 177.234375 L 122.765625 198.78125 L 118.488281 198.78125 L 118.488281 209.109375 L 150.257812 209.109375 L 150.257812 202.039062 C 152.875 206.570312 157.949219 209.429688 164.207031 209.429688 C 168.328125 209.429688 171.894531 208.554688 174.746094 206.886719 L 176.328125 205.933594 L 175.699219 204.183594 C 175.539062 203.785156 174.429688 200.527344 173.953125 199.492188 L 173.558594 198.539062 L 175.699219 198.539062 C 177.441406 205.058594 183.226562 209.511719 190.675781 209.511719 C 199.546875 209.511719 206.203125 202.914062 206.203125 194.246094 L 206.203125 194.167969 L 212.542969 209.113281 L 219.4375 209.113281 L 225.457031 194.960938 C 225.777344 203.550781 232.273438 209.429688 241.386719 209.429688 C 245.507812 209.429688 249.070312 208.554688 251.925781 206.886719 L 253.507812 205.933594 L 252.875 204.183594 C 252.714844 203.785156 251.609375 200.527344 251.132812 199.492188 L 250.734375 198.539062 L 252.796875 198.539062 C 253.746094 201.796875 255.648438 204.421875 258.183594 206.171875 C 255.804688 206.808594 254.0625 209.035156 254.0625 211.65625 C 254.0625 213.484375 254.777344 215.078125 256.125 216.503906 C 258.417969 218.808594 262.859375 220.320312 267.457031 220.320312 C 272.289062 220.320312 276.09375 218.652344 278.550781 215.550781 C 280.449219 213.085938 281.402344 210.148438 281.402344 206.648438 L 281.402344 202.515625 C 282.351562 206.726562 286.234375 209.589844 291.464844 209.589844 C 293.523438 209.589844 295.585938 209.113281 297.566406 208.160156 L 297.566406 209.109375 L 311.511719 209.109375 L 311.511719 206.648438 C 313.890625 208.316406 317.929688 209.429688 321.574219 209.429688 C 329.101562 209.429688 334.332031 205.214844 334.332031 199.09375 C 334.726562 195.835938 333.222656 193.851562 331.164062 192.417969 Z M 163.175781 188.519531 C 164.523438 188.519531 165.550781 188.921875 166.1875 189.714844 L 160.324219 189.714844 C 161.105469 188.917969 162.054688 188.519531 163.175781 188.523438 Z M 165.234375 199.652344 C 163.175781 199.652344 161.828125 199.175781 160.957031 198.539062 L 170.621094 198.539062 C 168.71875 199.253906 166.898438 199.652344 165.238281 199.652344 Z M 240.429688 188.523438 C 241.777344 188.523438 242.808594 188.921875 243.441406 189.714844 L 237.578125 189.714844 C 238.367188 188.933594 239.320312 188.535156 240.429688 188.523438 Z M 242.492188 199.652344 C 240.429688 199.652344 239.082031 199.175781 238.214844 198.539062 L 247.882812 198.539062 C 245.980469 199.253906 244.234375 199.652344 242.492188 199.652344 Z M 263.253906 193.851562 C 263.253906 190.585938 264.757812 188.921875 267.691406 188.921875 C 268.878906 188.921875 269.988281 189.238281 271.015625 189.792969 L 271.015625 197.507812 C 269.910156 198.382812 268.800781 198.777344 267.691406 198.777344 C 264.835938 198.699219 263.253906 196.949219 263.253906 193.851562 Z M 270.386719 209.429688 C 269.59375 210.464844 268.164062 210.703125 267.136719 210.703125 C 266.582031 210.703125 266.105469 210.621094 265.710938 210.542969 C 265.636719 209.695312 265.34375 208.925781 264.835938 208.238281 C 265.3125 208.316406 265.710938 208.316406 266.1875 208.316406 C 268.164062 208.316406 269.75 207.917969 271.097656 207.285156 C 270.941406 208.316406 270.78125 209.113281 270.386719 209.429688 Z M 281.792969 198.0625 L 281.792969 188.683594 L 283.140625 188.683594 C 283.25 189.5 283.535156 190.25 283.996094 190.933594 C 284.453125 191.617188 285.042969 192.167969 285.753906 192.578125 C 284.753906 193.191406 283.90625 193.96875 283.21875 194.921875 C 282.53125 195.871094 282.058594 196.917969 281.792969 198.0625 Z M 297.722656 199.253906 C 296.375 200.046875 295.027344 200.449219 293.761719 200.449219 C 292.253906 200.449219 292.253906 199.890625 292.253906 199.574219 C 292.253906 198.382812 293.839844 198.140625 294.871094 198.140625 C 295.820312 198.140625 296.851562 198.21875 297.800781 198.300781 L 297.800781 199.253906 Z M 293.761719 190.511719 L 293.523438 190.511719 C 293.917969 189.875 294.15625 189.15625 294.234375 188.363281 C 296.296875 188.363281 297.085938 188.921875 297.484375 189.398438 C 297.640625 189.558594 297.800781 190.03125 297.878906 190.75 C 296.511719 190.589844 295.136719 190.511719 293.761719 190.511719 Z M 321.96875 188.125 C 322.363281 188.125 322.761719 188.125 323.15625 188.203125 C 323.238281 188.679688 323.316406 189.078125 323.394531 189.476562 C 321.890625 189.078125 320.859375 188.683594 320.226562 188.441406 C 320.621094 188.285156 321.175781 188.125 321.96875 188.125 Z M 322.128906 200.367188 C 321.414062 200.367188 320.621094 200.289062 319.90625 200.128906 C 319.851562 199.617188 319.746094 199.113281 319.59375 198.621094 C 320.066406 198.777344 320.621094 198.9375 321.097656 199.015625 C 322.683594 199.492188 323.554688 199.8125 324.027344 199.96875 C 323.632812 200.210938 323 200.367188 322.128906 200.367188 Z M 322.128906 200.367188 " fill-opacity="0.27" fill-rule="nonzero"/><path fill="#f7f7f7" d="M 234.324219 192.023438 C 234.957031 187.964844 237.734375 186.296875 240.425781 186.296875 C 244.070312 186.296875 246.289062 188.523438 246.445312 192.023438 Z M 240.582031 181.210938 C 232.898438 181.210938 227.90625 187.09375 227.90625 194.25 C 227.90625 201.960938 233.609375 207.125 241.617188 207.125 C 245.257812 207.125 248.507812 206.410156 251.042969 204.902344 C 251.042969 204.902344 249.855469 201.402344 249.378906 200.371094 C 247.082031 201.320312 244.785156 201.878906 242.40625 201.878906 C 238.207031 201.878906 235.117188 200.132812 234.246094 196.316406 L 252.230469 196.316406 C 252.46875 195.441406 252.550781 194.167969 252.550781 193.214844 C 252.707031 186.617188 248.507812 181.210938 240.582031 181.210938 Z M 190.902344 181.210938 C 182.742188 181.210938 177.589844 187.332031 177.589844 194.25 C 177.589844 201.246094 182.660156 207.289062 190.902344 207.289062 C 199.0625 207.289062 204.214844 201.164062 204.214844 194.25 C 204.214844 187.253906 199.222656 181.210938 190.902344 181.210938 Z M 188.523438 187.96875 C 188.761719 186.933594 189.554688 185.742188 190.425781 185.027344 C 190.664062 184.867188 190.980469 185.027344 190.980469 185.265625 C 190.980469 186.378906 191.933594 187.332031 191.851562 188.683594 C 191.773438 189.71875 191.21875 190.75 190.1875 190.75 C 188.683594 190.59375 188.207031 189.238281 188.523438 187.96875 Z M 183.769531 186.777344 C 183.851562 186.460938 184.324219 186.460938 184.40625 186.777344 C 185.039062 188.046875 186.464844 188.285156 186.859375 189.320312 C 187.175781 190.191406 187.257812 191.386719 185.988281 192.101562 C 184.71875 192.816406 183.851562 191.546875 183.535156 190.355469 C 183.296875 189.320312 183.453125 187.890625 183.769531 186.773438 Z M 193.59375 203.230469 C 192.246094 203.074219 190.585938 201.640625 189 201.640625 C 187.8125 201.640625 185.828125 202.199219 184.71875 201.957031 C 183.613281 201.722656 183.214844 199.890625 183.214844 198.382812 C 183.214844 196.792969 184.878906 195.359375 186.308594 194.089844 C 187.496094 193.058594 189.632812 191.785156 190.585938 191.785156 C 191.851562 191.785156 193.199219 192.816406 193.914062 195.917969 C 194.46875 198.460938 196.207031 198.300781 196.207031 199.574219 C 196.207031 201.640625 194.941406 203.472656 193.59375 203.230469 Z M 194.625 191.941406 C 193.59375 191.625 193.28125 190.59375 193.59375 189.558594 C 193.914062 188.523438 195.023438 187.890625 195.578125 186.695312 C 195.734375 186.378906 196.132812 186.378906 196.210938 186.695312 C 196.605469 187.652344 197.082031 188.921875 197.003906 189.875 C 196.925781 191.066406 196.132812 192.421875 194.625 191.941406 Z M 199.539062 196.394531 C 199.433594 196.632812 199.285156 196.84375 199.09375 197.023438 C 198.902344 197.203125 198.683594 197.339844 198.4375 197.429688 C 198.191406 197.519531 197.933594 197.558594 197.671875 197.542969 C 197.410156 197.527344 197.160156 197.464844 196.925781 197.347656 C 195.8125 196.714844 195.734375 195.28125 196.605469 194.25 C 197.242188 193.453125 198.664062 193.296875 199.144531 192.183594 C 199.300781 191.867188 199.699219 191.867188 199.777344 192.183594 C 200.332031 193.53125 200.011719 195.441406 199.539062 196.398438 Z M 141.933594 201.003906 L 131.628906 201.003906 L 131.628906 175.011719 L 136.542969 175.011719 L 136.542969 169.128906 L 120.855469 169.128906 L 120.855469 175.011719 L 125.210938 175.011719 L 125.210938 201.007812 L 120.855469 201.007812 L 120.855469 206.8125 L 148.113281 206.8125 L 148.113281 195.683594 L 141.929688 195.683594 L 141.929688 201.007812 Z M 163.328125 181.210938 C 155.640625 181.210938 150.648438 187.09375 150.648438 194.25 C 150.648438 201.960938 156.351562 207.125 164.355469 207.125 C 168.003906 207.125 171.25 206.410156 173.785156 204.902344 C 173.785156 204.902344 172.597656 201.402344 172.121094 200.371094 C 169.824219 201.320312 167.523438 201.878906 165.148438 201.878906 C 160.949219 201.878906 157.859375 200.132812 156.988281 196.316406 L 174.976562 196.316406 C 175.210938 195.441406 175.292969 194.167969 175.292969 193.214844 C 175.449219 186.617188 171.25 181.210938 163.328125 181.210938 Z M 157.066406 192.023438 C 157.703125 187.964844 160.476562 186.296875 163.167969 186.296875 C 166.8125 186.296875 169.03125 188.523438 169.191406 192.023438 Z M 273.625 183.914062 L 273.546875 183.914062 C 272.582031 183.039062 271.492188 182.367188 270.277344 181.898438 C 269.058594 181.433594 267.796875 181.203125 266.496094 181.210938 C 259.917969 181.210938 254.765625 186.777344 254.765625 193.929688 C 254.765625 201.324219 259.839844 206.171875 266.179688 206.171875 C 269.507812 206.171875 271.410156 204.902344 273.386719 202.914062 L 273.386719 206.570312 C 273.386719 208.480469 272.992188 209.910156 272.199219 210.863281 C 271.089844 212.375 269.265625 213.011719 267.128906 213.011719 C 265.625 213.011719 264.4375 212.691406 263.402344 212.375 C 263.484375 212.136719 263.484375 211.738281 263.484375 211.417969 C 263.484375 209.511719 261.980469 208.160156 260.078125 208.160156 C 258.015625 208.160156 256.75 209.910156 256.75 211.582031 C 256.75 212.773438 257.144531 213.804688 258.175781 214.839844 C 259.917969 216.585938 263.640625 217.9375 267.921875 217.9375 C 271.960938 217.9375 275.210938 216.667969 277.273438 214.042969 C 278.777344 212.136719 279.648438 209.589844 279.648438 206.492188 L 279.648438 186.378906 L 283.214844 186.378906 L 283.214844 181.609375 L 273.625 181.609375 Z M 273.230469 198.460938 C 271.644531 199.972656 269.824219 200.925781 267.683594 200.925781 C 263.800781 200.925781 261.027344 198.460938 261.027344 193.851562 C 261.027344 189.082031 263.800781 186.617188 267.683594 186.617188 C 269.902344 186.617188 271.722656 187.332031 273.230469 188.527344 Z M 323.070312 191.625 C 319.191406 190.511719 317.84375 189.875 317.84375 188.363281 C 317.84375 187.09375 319.265625 185.820312 322.042969 185.820312 C 323.308594 185.820312 324.5 186.0625 325.609375 186.457031 C 325.527344 186.773438 325.527344 187.089844 325.527344 187.570312 C 325.527344 189.480469 326.953125 190.671875 328.855469 190.671875 C 330.679688 190.671875 331.945312 189.238281 331.945312 187.332031 C 331.945312 186.140625 331.550781 185.105469 330.519531 184.070312 C 328.777344 182.324219 325.132812 181.128906 322.121094 181.128906 C 315.144531 181.128906 311.898438 185.1875 311.898438 189.082031 C 311.898438 193.375 314.832031 194.964844 321.644531 196.792969 C 325.527344 197.90625 326.558594 198.542969 326.558594 199.8125 C 326.558594 201.640625 324.5 202.515625 322.042969 202.515625 C 320.296875 202.515625 318.710938 202.199219 317.523438 201.800781 C 317.601562 201.484375 317.601562 201.164062 317.601562 200.691406 C 317.601562 198.542969 316.019531 197.347656 314.277344 197.347656 C 312.375 197.347656 310.949219 198.859375 310.949219 200.6875 C 310.949219 201.957031 311.34375 203.074219 312.375 204.027344 C 313.960938 205.617188 318.15625 207.046875 321.960938 207.046875 C 327.667969 207.046875 332.5 204.265625 332.5 198.9375 C 332.5 194.804688 329.09375 193.296875 323.070312 191.625 Z M 306.035156 190.910156 C 306.035156 188.445312 305.402344 186.140625 304.132812 184.628906 C 302.390625 182.484375 299.378906 181.210938 295.257812 181.210938 C 288.523438 181.210938 285.355469 184.550781 285.355469 187.652344 C 285.355469 189.71875 286.78125 190.988281 288.679688 190.988281 C 290.582031 190.988281 292.011719 189.558594 292.011719 187.730469 C 292.011719 187.414062 291.929688 186.855469 291.773438 186.457031 C 292.328125 186.21875 293.199219 186.0625 294.226562 186.0625 C 296.445312 186.0625 298.109375 186.617188 299.140625 187.890625 C 299.777344 188.605469 300.09375 189.796875 300.09375 191.308594 L 300.09375 193.375 C 298.667969 193.058594 296.367188 192.738281 293.753906 192.738281 C 287.890625 192.738281 283.769531 195.679688 283.769531 200.292969 C 283.769531 205.058594 287.652344 207.289062 291.851562 207.289062 C 295.179688 207.289062 298.191406 205.777344 300.25 204.023438 L 300.25 206.808594 L 309.679688 206.808594 L 309.679688 202.121094 L 306.035156 202.121094 Z M 300.011719 200.527344 C 298.109375 201.957031 295.972656 202.753906 293.753906 202.753906 C 291.535156 202.753906 290.027344 201.644531 290.027344 199.65625 C 290.027344 197.425781 291.851562 195.996094 294.863281 195.996094 C 296.765625 195.996094 298.585938 196.234375 300.011719 196.554688 Z M 220.140625 175.007812 L 224.261719 175.007812 L 216.257812 195.679688 L 208.175781 175.007812 L 212.136719 175.007812 L 212.136719 169.128906 L 197.398438 169.128906 L 197.398438 175.007812 L 200.808594 175.007812 L 214.277344 206.808594 L 218.238281 206.808594 L 231.707031 175.007812 L 234.957031 175.007812 L 234.957031 169.128906 L 220.140625 169.128906 Z M 220.140625 175.007812 " fill-opacity="1" fill-rule="nonzero"/></svg>