<svg xmlns="http://www.w3.org/2000/svg" xmlns:xlink="http://www.w3.org/1999/xlink" width="500" zoomAndPan="magnify" viewBox="0 0 375 374.999991" height="500" preserveAspectRatio="xMidYMid meet" version="1.0"><rect x="-37.5" width="450" fill="#ffffff" y="-37.499999" height="449.999989" fill-opacity="1"/><rect x="-37.5" width="450" fill="#007a33" y="-37.499999" height="449.999989" fill-opacity="1"/><path fill="#ffffff" d="M 81.527344 158.878906 L 81.527344 244.898438 L 58.710938 244.898438 L 58.710938 158.878906 L 39.9375 158.878906 L 39.9375 137.207031 L 100.46875 137.207031 L 100.46875 158.878906 Z M 81.527344 158.878906 " fill-opacity="1" fill-rule="nonzero"/><path fill="#ffffff" d="M 303.554688 137.207031 L 264.644531 137.207031 L 252.433594 149.449219 L 252.433594 232.945312 L 264.523438 244.898438 L 303.554688 244.898438 L 315.769531 232.945312 L 315.769531 149.449219 Z M 292.703125 223.3125 L 275.414062 223.3125 L 275.414062 158.878906 L 292.703125 158.878906 Z M 292.703125 223.3125 " fill-opacity="1" fill-rule="nonzero"/><path fill="#ffffff" d="M 224.128906 158.878906 L 224.128906 244.898438 L 201.351562 244.898438 L 201.351562 158.878906 L 182.535156 158.878906 L 182.535156 137.207031 L 243.066406 137.207031 L 243.066406 158.878906 Z M 224.128906 158.878906 " fill-opacity="1" fill-rule="nonzero"/><path fill="#ff6900" d="M 253.257812 106.8125 L 172.21875 106.855469 L 192.066406 126.746094 L 233.410156 126.746094 Z M 253.257812 106.8125 " fill-opacity="1" fill-rule="nonzero"/><path fill="#ffffff" d="M 160.875 137.207031 L 121.964844 137.207031 L 109.75 149.449219 L 109.75 232.65625 L 121.964844 244.898438 L 160.875 244.898438 L 173.085938 232.65625 L 173.085938 149.449219 Z M 150.105469 223.3125 L 132.816406 223.3125 L 132.816406 158.878906 L 150.105469 158.878906 Z M 150.105469 223.3125 " fill-opacity="1" fill-rule="nonzero"/><path fill="#ffffff" d="M 328.351562 137.414062 C 324.308594 137.414062 320.886719 140.683594 320.886719 144.777344 C 320.886719 148.871094 324.269531 152.136719 328.351562 152.136719 C 332.398438 152.136719 335.78125 148.871094 335.78125 144.777344 C 335.78125 140.683594 332.398438 137.414062 328.351562 137.414062 Z M 328.3125 150.648438 C 325.09375 150.648438 322.492188 148.042969 322.492188 144.816406 C 322.492188 141.59375 325.132812 138.988281 328.3125 138.988281 C 331.488281 138.988281 334.171875 141.59375 334.171875 144.816406 C 334.171875 148.003906 331.53125 150.648438 328.3125 150.648438 Z M 328.3125 150.648438 " fill-opacity="1" fill-rule="nonzero"/><path fill="#ffffff" d="M 330.539062 141.800781 L 329.714844 140.972656 L 326.082031 140.972656 L 326.082031 148.664062 L 327.691406 148.664062 L 327.691406 145.398438 L 328.929688 145.398438 L 328.929688 148.664062 L 330.5 148.664062 L 330.5 145.398438 L 329.839844 144.695312 L 330.5 143.992188 L 330.5 141.800781 Z M 328.972656 144.03125 L 327.734375 144.03125 L 327.734375 142.296875 L 328.972656 142.296875 Z M 328.972656 144.03125 " fill-opacity="1" fill-rule="nonzero"/></svg>