<svg xmlns="http://www.w3.org/2000/svg" xmlns:xlink="http://www.w3.org/1999/xlink" width="500" zoomAndPan="magnify" viewBox="0 0 375 374.999991" height="500" preserveAspectRatio="xMidYMid meet" version="1.0"><defs><clipPath id="a99ef58d9a"><path d="M 38 154.5 L 182 154.5 L 182 220 L 38 220 Z M 38 154.5 " clip-rule="nonzero"/></clipPath></defs><rect x="-37.5" width="450" fill="#ffffff" y="-37.499999" height="449.999989" fill-opacity="1"/><rect x="-37.5" width="450" fill="#0e5241" y="-37.499999" height="449.999989" fill-opacity="1"/><path fill="#ffe418" d="M 202.597656 206.003906 C 208.109375 206.003906 210.988281 204.140625 210.988281 200.25 C 210.988281 196.441406 208.019531 194.332031 202.265625 194.332031 C 200.132812 194.332031 197.582031 194.503906 194.789062 194.925781 L 194.789062 182.078125 C 197.082031 182.339844 199.230469 182.417969 201.363281 182.417969 C 207.285156 182.417969 210.238281 180.640625 210.238281 176.59375 C 210.238281 172.625 207.535156 170.769531 201.949219 170.769531 C 198.324219 170.769531 193.730469 171.789062 188.0625 173.566406 L 188.0625 160.164062 C 193.089844 158.382812 199.164062 157.542969 206.308594 157.542969 C 221.851562 157.542969 230.808594 164.386719 230.808594 175.132812 C 230.808594 181.726562 226.621094 186.542969 219.300781 188.152344 C 227.4375 189.851562 231.625 194.503906 231.625 201.605469 C 231.625 212.753906 222.515625 219.253906 205.085938 219.253906 C 199.238281 219.253906 193.5 218.417969 187.578125 216.984375 L 187.578125 203.195312 C 193.425781 204.972656 198.347656 205.988281 202.632812 205.988281 L 202.597656 206 Z M 267.449219 179.535156 C 279.699219 179.535156 287.835938 187.226562 287.835938 198.554688 C 287.835938 210.738281 278.546875 219.191406 263.917969 219.191406 C 246.65625 219.191406 235.554688 208.113281 235.554688 189.9375 C 235.554688 169.226562 247.316406 157.558594 268.523438 157.558594 C 273.066406 157.558594 277.917969 158.078125 282.917969 159.175781 L 282.917969 172.628906 C 278.453125 171.207031 273.875 170.503906 269.1875 170.507812 C 259.824219 170.507812 255.457031 174.402344 255.230469 183.199219 C 258.703125 180.511719 262.476562 179.570312 267.480469 179.570312 Z M 269.175781 198.140625 C 269.175781 193.234375 266.464844 190.097656 262.519531 190.097656 C 258.574219 190.097656 255.941406 193.144531 255.941406 198.144531 C 255.941406 203.042969 258.574219 206.085938 262.519531 206.085938 C 266.546875 206.085938 269.175781 203.042969 269.175781 198.140625 Z M 293.917969 159.070312 L 333.949219 159.070312 L 333.949219 173.109375 L 312.640625 173.109375 L 312.640625 181.988281 C 314.347656 181.898438 315.523438 181.816406 315.90625 181.816406 C 329.125 181.816406 336.296875 188.683594 336.296875 200.253906 C 336.296875 212.1875 327.566406 219.289062 310.570312 219.289062 C 304.652344 219.289062 298.808594 218.375 292.886719 216.859375 L 292.886719 203.492188 C 297.40625 204.769531 301.359375 205.371094 304.730469 205.371094 C 311.617188 205.371094 315.242188 202.996094 315.242188 198.605469 C 315.242188 193.71875 311.464844 191.265625 303.730469 191.265625 C 300.441406 191.265625 297.234375 191.855469 293.863281 192.703125 L 293.863281 159.070312 Z M 293.917969 159.070312 " fill-opacity="1" fill-rule="nonzero"/><g clip-path="url(#a99ef58d9a)"><path fill="#ffffff" d="M 38.214844 154.5 L 58.5 154.5 L 58.5 179.417969 C 61.386719 175.367188 65.339844 173.46875 70.699219 173.46875 C 82.492188 173.46875 89.175781 181.917969 89.175781 196.925781 C 89.175781 211.246094 82.414062 219.785156 71.199219 219.785156 C 64.351562 219.785156 59.734375 217.195312 57.101562 211.675781 L 57.101562 219.175781 L 38.214844 219.175781 Z M 57.921875 196.488281 C 57.921875 203.050781 59.324219 206.242188 62.953125 206.242188 C 66.5 206.242188 68.066406 203.054688 68.066406 196.492188 C 68.066406 189.964844 66.578125 186.753906 62.953125 186.753906 C 59.324219 186.753906 57.921875 189.964844 57.921875 196.496094 Z M 141.035156 200.640625 L 112.921875 200.640625 C 113.414062 205.480469 117.042969 207.769531 123.886719 207.769531 C 128.664062 207.769531 133.617188 206.839844 138.394531 204.972656 L 138.394531 216.253906 C 133.699219 218.203125 127.265625 219.308594 119.765625 219.308594 C 102.449219 219.308594 93.128906 210.824219 93.128906 195.894531 C 93.128906 181.304688 102.289062 172.570312 117.550781 172.570312 C 134.46875 172.570312 141.054688 180.625 141.054688 197.765625 L 141.054688 200.644531 L 141.03125 200.644531 Z M 123.390625 192.074219 L 123.390625 190.71875 C 123.390625 185.710938 121.578125 182.828125 118.113281 182.828125 C 114.566406 182.828125 112.757812 185.710938 112.757812 190.804688 L 112.757812 192.074219 Z M 181.121094 173.753906 L 181.121094 186.734375 L 171.660156 186.734375 L 171.660156 197.335938 C 171.660156 202.769531 172.496094 205.3125 176.554688 205.3125 C 177.652344 205.3125 179.128906 205.132812 180.867188 204.714844 L 180.867188 217.429688 C 176.476562 218.789062 172.089844 219.285156 167.445312 219.285156 C 161.730469 219.285156 157.339844 217.402344 154.761719 214.191406 C 151.445312 209.9375 151.367188 204.605469 151.367188 197.480469 L 151.367188 186.71875 L 144.121094 186.71875 L 144.121094 173.746094 L 151.339844 173.746094 L 151.339844 163.914062 L 171.660156 157.382812 L 171.660156 173.757812 L 181.121094 173.757812 Z M 181.121094 173.753906 " fill-opacity="1" fill-rule="nonzero"/></g></svg>