<svg xmlns="http://www.w3.org/2000/svg" xmlns:xlink="http://www.w3.org/1999/xlink" width="500" zoomAndPan="magnify" viewBox="0 0 375 374.999991" height="500" preserveAspectRatio="xMidYMid meet" version="1.0"><defs><clipPath id="cc0dbd5f74"><path d="M 37.5 133.332031 L 337.5 133.332031 L 337.5 241.332031 L 37.5 241.332031 Z M 37.5 133.332031 " clip-rule="nonzero"/></clipPath></defs><rect x="-37.5" width="450" fill="#ffffff" y="-37.499999" height="449.999989" fill-opacity="1"/><rect x="-37.5" width="450" fill="#1a1e1a" y="-37.499999" height="449.999989" fill-opacity="1"/><g clip-path="url(#cc0dbd5f74)"><path fill="#e63535" d="M 94.277344 229.84375 C 94.277344 198.992188 109.875 171.703125 133.769531 155.125 L 131.351562 136.738281 C 117.421875 140.917969 103.472656 137.429688 103.25 137.363281 C 69.433594 128.335938 58.464844 137.558594 58.464844 137.558594 L 58.445312 137.578125 L 57.265625 133.332031 L 47.589844 133.332031 L 37.507812 171.398438 L 55.984375 176.109375 L 59.957031 161.019531 L 103.691406 161.015625 C 103.679688 161.050781 103.664062 161.085938 103.648438 161.121094 C 70.058594 173.648438 45.75 204.585938 43.585938 241.332031 L 95.011719 241.332031 C 94.527344 237.570312 94.277344 233.734375 94.277344 229.84375 Z M 196.171875 229.84375 C 196.171875 198.992188 211.769531 171.703125 235.667969 155.125 L 233.246094 136.738281 C 219.316406 140.917969 205.367188 137.429688 205.144531 137.363281 C 171.328125 128.335938 160.359375 137.558594 160.359375 137.558594 L 160.339844 137.578125 L 159.160156 133.332031 L 149.484375 133.332031 L 139.402344 171.398438 L 157.878906 176.109375 L 161.851562 161.019531 L 205.585938 161.015625 C 205.574219 161.050781 205.558594 161.085938 205.542969 161.121094 C 171.953125 173.648438 147.644531 204.585938 145.480469 241.332031 L 196.90625 241.332031 C 196.421875 237.570312 196.171875 233.734375 196.171875 229.84375 Z M 337.492188 155.125 L 335.074219 136.738281 C 321.144531 140.917969 307.195312 137.429688 306.972656 137.363281 C 273.15625 128.335938 262.1875 137.5625 262.1875 137.5625 L 262.164062 137.578125 L 260.984375 133.332031 L 251.308594 133.332031 L 241.230469 171.398438 L 259.707031 176.109375 L 263.679688 161.019531 L 307.414062 161.015625 C 307.398438 161.050781 307.382812 161.085938 307.371094 161.125 C 273.78125 173.648438 249.46875 204.585938 247.308594 241.332031 L 298.734375 241.332031 C 298.25 237.570312 298 233.738281 298 229.847656 C 298 198.992188 313.597656 171.703125 337.492188 155.125 Z M 337.492188 155.125 " fill-opacity="1" fill-rule="nonzero"/></g></svg>