<svg xmlns="http://www.w3.org/2000/svg" xmlns:xlink="http://www.w3.org/1999/xlink" width="500" zoomAndPan="magnify" viewBox="0 0 375 374.999991" height="500" preserveAspectRatio="xMidYMid meet" version="1.0"><defs><clipPath id="664351c243"><path d="M 37.5 118.269531 L 168 118.269531 L 168 257.019531 L 37.5 257.019531 Z M 37.5 118.269531 " clip-rule="nonzero"/></clipPath><clipPath id="537ea12129"><path d="M 153 190 L 337.5 190 L 337.5 254 L 153 254 Z M 153 190 " clip-rule="nonzero"/></clipPath></defs><rect x="-37.5" width="450" fill="#ffffff" y="-37.499999" height="449.999989" fill-opacity="1"/><rect x="-37.5" width="450" fill="#000000" y="-37.499999" height="449.999989" fill-opacity="1"/><path fill="#0b0b0b" d="M 141.46875 254.847656 L 40.058594 254.847656 L 63.507812 120.441406 L 164.917969 120.441406 Z M 141.46875 254.847656 " fill-opacity="1" fill-rule="nonzero"/><g clip-path="url(#664351c243)"><path fill="#b19661" d="M 75.597656 165.691406 L 73.441406 166.984375 L 71.347656 166.453125 C 71.25 165.199219 75.03125 163.90625 75.601562 165.691406 Z M 116.710938 214.753906 C 116.429688 214.742188 116.199219 214.847656 116.019531 215.0625 C 115.511719 215.710938 115.03125 216.375 114.574219 217.058594 C 114.390625 217.335938 114.132812 217.457031 113.800781 217.414062 C 110.898438 217.039062 108.054688 218.246094 105.265625 218.90625 C 104.792969 218.996094 104.070312 219.125 103.886719 218.507812 C 103.777344 217.992188 103.824219 217.472656 103.867188 216.953125 C 103.886719 216.730469 103.824219 216.539062 103.683594 216.367188 C 103.542969 216.199219 103.363281 216.101562 103.144531 216.082031 C 102.644531 216.035156 102.15625 216.128906 101.914062 216.671875 C 101.023438 218.515625 100.835938 220.632812 100.902344 222.648438 C 100.933594 223.898438 102.414062 224.273438 103.394531 224.140625 C 107.433594 223.535156 111.433594 222.550781 115.449219 221.8125 C 115.757812 221.757812 115.957031 221.578125 116.046875 221.28125 C 116.570312 219.5625 116.964844 217.796875 117.53125 216.089844 C 117.875 215.457031 117.296875 214.835938 116.710938 214.753906 Z M 105.625 205.542969 C 106.394531 206.015625 107.503906 205.425781 107.648438 204.585938 C 107.996094 203.0625 108.195312 201.515625 108.59375 200 C 108.605469 199.957031 108.628906 199.917969 108.664062 199.890625 C 108.664062 199.890625 116.964844 196.335938 118.574219 197.441406 C 118.675781 197.511719 118.785156 197.5625 118.765625 197.675781 L 118.023438 201.421875 C 117.992188 201.574219 118.039062 201.695312 118.164062 201.785156 C 118.554688 202.0625 119.453125 202.59375 119.730469 201.8125 C 120.519531 199.558594 121.589844 197.417969 122.4375 195.203125 C 122.472656 195.097656 122.445312 195.019531 122.351562 194.964844 C 120.171875 193.667969 117.433594 194.125 115.066406 194.78125 C 111.9375 195.734375 109.035156 197.148438 106.355469 199.03125 C 106.253906 199.105469 106.183594 199.203125 106.148438 199.328125 C 105.722656 200.6875 105.386719 202.066406 105.148438 203.472656 L 105.148438 203.519531 C 105.09375 204.214844 104.996094 205.082031 105.628906 205.546875 L 105.625 205.546875 Z M 61.710938 118.269531 L 37.503906 257.019531 L 143.28125 257.019531 L 167.488281 118.269531 Z M 104.757812 122.609375 C 109.617188 127.109375 111.613281 134.375 102.28125 145.847656 C 96.792969 144.417969 90.933594 142.289062 79.679688 143.429688 C 81.761719 132.898438 77.597656 126.496094 72.058594 122.609375 Z M 75.527344 167.242188 C 74.769531 167.558594 74.054688 168.089844 73.199219 168.089844 C 69.113281 168.027344 63.578125 162.867188 63.578125 162.867188 C 64.082031 162.722656 64.589844 162.703125 65.105469 162.808594 C 65.617188 162.917969 66.078125 163.136719 66.484375 163.46875 C 67.175781 164.039062 67.964844 164.527344 68.675781 164.117188 C 71.101562 162.71875 73.421875 161.105469 75.964844 159.933594 C 78.464844 158.855469 81.632812 158.820312 83.730469 160.753906 C 85.507812 162.550781 87.578125 163.980469 89.757812 165.1875 C 91.511719 166.15625 93.359375 167.023438 95.34375 167.371094 C 95.34375 167.371094 94.484375 169.582031 95.785156 171.511719 C 95.464844 171.511719 95.089844 171.484375 94.910156 171.167969 C 94.058594 169.929688 93.941406 169.621094 93.257812 168.992188 C 91.613281 167.339844 89.320312 166.632812 87.085938 166.199219 C 83.265625 165.46875 79.164062 165.585938 75.527344 167.242188 Z M 83.355469 182.382812 C 80.636719 183.679688 77.894531 184.992188 75.457031 186.816406 C 72.921875 188.695312 71.070312 191.109375 69.910156 194.050781 C 68.335938 197.980469 67.878906 202.21875 67.644531 206.410156 C 67.632812 206.652344 67.308594 206.714844 67.207031 206.488281 C 64.464844 200.28125 63.105469 193.449219 62.855469 186.605469 C 62.761719 183.335938 62.90625 180.011719 63.648438 176.8125 C 63.671875 176.726562 63.722656 176.667969 63.808594 176.644531 C 63.894531 176.617188 63.96875 176.636719 64.035156 176.699219 C 66.09375 178.679688 68.648438 180.003906 71.324219 180.828125 C 75.160156 182.023438 79.238281 182.273438 83.238281 181.945312 C 83.496094 181.925781 83.585938 182.273438 83.351562 182.382812 Z M 65.320312 122.609375 L 67.394531 122.609375 C 71.867188 125.53125 75.417969 129.65625 76.925781 134.769531 C 79.5625 145.324219 71.941406 148.535156 60.070312 152.710938 L 65.324219 122.609375 Z M 42.628906 252.679688 L 54.1875 186.421875 C 56.6875 200.203125 63.136719 207.296875 67.023438 218.140625 C 69.175781 224.167969 68.996094 231.007812 68.078125 235.40625 C 66.914062 240.9375 63.722656 246.035156 57.121094 252.679688 Z M 87.632812 252.679688 L 62.414062 252.679688 C 64.917969 250.097656 67.214844 247.050781 68.640625 243.640625 C 71.582031 236.605469 70.71875 231.367188 71.636719 222.558594 C 72.632812 212.847656 76.394531 207.328125 80.0625 200.121094 C 81.761719 196.78125 83.726562 193.554688 86.097656 190.683594 C 87.496094 189.015625 89.035156 187.460938 90.824219 186.265625 L 92.070312 185.53125 C 92.070312 185.53125 93.265625 184.882812 93.542969 185.839844 C 93.90625 187.125 92.363281 187.816406 91.410156 188.484375 C 88.015625 190.550781 85.257812 193.269531 83.140625 196.640625 C 80.878906 200.289062 79.683594 204.261719 79.554688 208.558594 C 79.351562 215.003906 81.546875 221.277344 84.738281 226.648438 C 85.230469 227.804688 92.636719 240.773438 87.632812 252.675781 Z M 110.019531 252.679688 L 90.863281 252.679688 C 92.226562 249.964844 93.304688 247.101562 94.019531 244.132812 C 94.964844 240.253906 95.460938 236.007812 94.066406 232.21875 C 98.304688 233.386719 102.875 233.835938 107.164062 232.46875 C 109.855469 231.683594 111.558594 231.273438 114.53125 228.480469 C 118.40625 223.980469 114.339844 223.984375 114.339844 223.984375 C 112.503906 223.921875 110.714844 224.554688 108.910156 224.859375 C 106.574219 225.332031 104.199219 225.710938 101.824219 225.75 C 99.65625 225.769531 97.402344 225.570312 95.457031 224.484375 C 93.0625 223.117188 91.035156 221.132812 89.265625 218.960938 C 79.464844 205.738281 89.902344 193.679688 89.902344 193.679688 C 90.804688 192.585938 91.972656 191.71875 93.25 191.175781 C 93.574219 191.011719 94.039062 190.894531 94.265625 191.160156 C 94.421875 191.449219 93.609375 192.101562 93.171875 192.460938 C 92.652344 192.90625 92.632812 193.667969 93.203125 193.914062 C 93.820312 194.144531 94.511719 194.15625 95.125 194.394531 C 96.421875 194.894531 97.636719 195.640625 98.773438 196.492188 L 98.785156 196.5 C 99.898438 197.25 100.449219 198.15625 101.769531 198.320312 C 102.953125 198.476562 105.023438 197.699219 105.902344 196.796875 C 106.824219 195.863281 108 195.320312 109.152344 194.777344 C 111.476562 193.699219 113.882812 192.84375 116.25 191.859375 C 117.308594 191.398438 118.402344 190.953125 119.34375 190.25 C 119.84375 190.839844 120.804688 192.660156 121.738281 192.949219 C 123.015625 193.25 123.847656 192.832031 125.160156 193.054688 C 126.867188 194.703125 127.839844 196.988281 128.601562 199.261719 C 129.863281 203.347656 130.238281 207.710938 130.085938 212.019531 C 129.757812 221.332031 126.871094 230.492188 122.269531 238.488281 C 122.269531 238.488281 117.777344 245.828125 110.023438 252.675781 Z M 137.492188 225.992188 C 132.601562 234.703125 122.453125 245.402344 119.199219 248.140625 C 146.8125 213.066406 127.125 188.105469 127.125 188.105469 C 128.1875 184.597656 126.953125 180.667969 125.695312 179.722656 C 125.628906 179.679688 125.5625 179.675781 125.5 179.71875 C 123.074219 181.179688 122.265625 184.632812 121.011719 185.011719 L 120.949219 185.019531 C 120.1875 185.035156 119.660156 184.351562 119.1875 183.824219 C 118.1875 182.511719 116.785156 181.648438 115.457031 180.75 C 113.523438 179.527344 111.523438 178.417969 109.394531 177.644531 C 108.886719 177.4375 108.292969 177.28125 107.96875 176.789062 C 107.949219 176.761719 107.9375 176.726562 107.9375 176.691406 C 107.898438 175.914062 108.925781 175.945312 109.453125 175.886719 L 109.476562 175.886719 C 112.976562 175.90625 116.023438 178.160156 119.503906 178.277344 C 120.878906 178.292969 122.292969 178.089844 123.519531 177.359375 C 124.207031 176.949219 124.800781 176.242188 124.800781 175.378906 C 124.742188 173.851562 123.976562 172.289062 122.621094 171.640625 C 121.636719 171.109375 120.425781 171.550781 119.46875 171 C 118.9375 170.707031 118.816406 170.03125 118.890625 169.453125 C 118.976562 168.566406 119.234375 167.5625 118.71875 166.765625 C 118.042969 165.597656 116.664062 165.390625 115.527344 165.019531 C 113.0625 164.132812 110.773438 162.824219 108.597656 161.320312 C 107.804688 160.871094 106.714844 159.847656 106.460938 158.914062 C 106.191406 157.828125 106.359375 156.894531 106.738281 155.8125 C 107.300781 154.929688 108.5625 155.433594 108.902344 156.273438 C 108.902344 156.273438 110.398438 160.742188 112.558594 162.3125 C 115.097656 164.136719 114.929688 159.78125 114.929688 159.78125 C 114.808594 152.335938 104.890625 147.160156 104.890625 147.160156 C 106.601562 142.703125 111.144531 139.453125 115.800781 138.578125 C 120.460938 137.703125 125.078125 138.226562 130.257812 139.96875 C 125.527344 140.652344 120.714844 142.1875 117.410156 145.671875 C 121.089844 144.589844 125.449219 145.386719 128.957031 146.957031 C 132.363281 148.480469 136.109375 151.820312 138.773438 156.066406 C 144.125 164.585938 144.488281 175.082031 144.242188 185.058594 C 142.554688 181.160156 138.5 176.09375 134.417969 175.042969 C 148.859375 186.8125 145.964844 210.921875 137.492188 225.992188 Z M 137.492188 225.992188 " fill-opacity="1" fill-rule="nonzero"/></g><path fill="#ffffff" d="M 212.921875 165.738281 C 212.921875 174.921875 207.652344 184.546875 190.976562 184.546875 L 165.117188 184.546875 L 175.746094 123.574219 L 199.652344 123.574219 C 207.480469 123.574219 215.828125 126.0625 215.828125 137.65625 C 215.828125 147.445312 210.113281 152.167969 203.394531 153.109375 C 209.265625 154.058594 212.921875 158.003906 212.921875 165.738281 Z M 196.507812 164.277344 C 196.507812 160.324219 195.0625 158.4375 190.46875 158.4375 L 185.699219 158.4375 L 183.066406 173.722656 L 187.910156 173.722656 C 194.71875 173.722656 196.507812 168.742188 196.507812 164.28125 Z M 199.652344 139.71875 C 199.652344 135.59375 197.613281 134.394531 194.460938 134.394531 L 189.960938 134.394531 L 187.492188 148.476562 L 192.085938 148.476562 C 198.042969 148.476562 199.660156 143.324219 199.660156 139.71875 Z M 238.859375 136.621094 L 237.078125 146.703125 L 256.386719 146.703125 L 254.164062 159.738281 L 234.902344 159.738281 L 232.71875 171.484375 L 253.902344 171.484375 L 251.660156 184.539062 L 214.398438 184.539062 L 225.035156 123.570312 L 261.699219 123.570312 L 259.445312 136.617188 L 238.855469 136.617188 L 238.855469 136.621094 Z M 308.179688 136.621094 L 294.144531 136.621094 L 285.71875 184.542969 L 269.726562 184.542969 L 278.152344 136.621094 L 264.027344 136.621094 L 266.324219 123.574219 L 310.476562 123.574219 Z M 308.179688 136.621094 " fill-opacity="1" fill-rule="nonzero"/><g clip-path="url(#537ea12129)"><path fill="#b19661" d="M 185.394531 229.472656 L 185.648438 229.472656 L 199.425781 191.527344 L 221.285156 191.527344 L 210.652344 252.484375 L 196.539062 252.484375 L 204.53125 207.929688 L 204.273438 207.929688 L 187.6875 252.484375 L 175.871094 252.484375 L 174.339844 208.011719 L 174.082031 208.011719 L 166.683594 252.484375 L 153.246094 252.484375 L 163.878906 191.527344 L 184.800781 191.527344 Z M 301.613281 229.472656 L 301.871094 229.472656 L 315.644531 191.527344 L 337.503906 191.527344 L 326.867188 252.484375 L 312.753906 252.484375 L 320.746094 207.929688 L 320.492188 207.929688 L 303.90625 252.484375 L 292.089844 252.484375 L 290.558594 208.011719 L 290.300781 208.011719 L 282.90625 252.484375 L 269.464844 252.484375 L 280.097656 191.527344 L 301.019531 191.527344 L 301.617188 229.472656 Z M 220.066406 230.675781 C 220.066406 217.96875 223.980469 190.070312 249.238281 190.070312 C 266.90625 190.070312 273.496094 197.863281 271.457031 211.046875 L 256.722656 211.289062 C 257.503906 206.449219 255.371094 202.027344 249.410156 201.828125 C 238.441406 201.460938 234.171875 221.023438 234.171875 230.214844 C 234.171875 240.085938 238.832031 242.585938 242.910156 242.441406 C 248.167969 242.253906 251.621094 239.402344 253.234375 233.421875 L 254 229.472656 L 244.558594 229.472656 L 246.515625 217.878906 L 270.925781 217.878906 L 264.886719 252.480469 L 252.992188 252.480469 L 254.597656 243.632812 C 251.875 250.160156 247.199219 253.9375 239.289062 253.9375 C 230.78125 253.9375 220.066406 251.191406 220.066406 230.675781 Z M 220.066406 230.675781 " fill-opacity="1" fill-rule="nonzero"/></g></svg>