<svg xmlns="http://www.w3.org/2000/svg" xmlns:xlink="http://www.w3.org/1999/xlink" width="500" zoomAndPan="magnify" viewBox="0 0 375 374.999991" height="500" preserveAspectRatio="xMidYMid meet" version="1.0"><defs><clipPath id="c8892d547d"><path d="M 37.519531 161.785156 L 265 161.785156 L 265 213.535156 L 37.519531 213.535156 Z M 37.519531 161.785156 " clip-rule="nonzero"/></clipPath><clipPath id="ade455e369"><path d="M 144 168 L 336 168 L 336 213.535156 L 144 213.535156 Z M 144 168 " clip-rule="nonzero"/></clipPath></defs><rect x="-37.5" width="450" fill="#ffffff" y="-37.499999" height="449.999989" fill-opacity="1"/><rect x="-37.5" width="450" fill="#000000" y="-37.499999" height="449.999989" fill-opacity="1"/><g clip-path="url(#c8892d547d)"><path fill="#ff6602" d="M 255.917969 161.785156 L 252.347656 168.972656 L 247.636719 164.660156 L 250.921875 174.578125 L 260.917969 174.578125 L 264.203125 164.660156 L 259.492188 168.972656 L 256.0625 161.785156 Z M 37.519531 196 L 37.519531 165.667969 L 47.375 165.667969 L 47.375 183.492188 C 49.375 180.617188 52.660156 179.035156 56.515625 179.035156 C 63.945312 179.035156 72.230469 184.355469 72.230469 195.710938 C 72.230469 207.066406 64.945312 213.25 54.660156 213.25 C 44.804688 213.25 37.375 206.78125 37.375 195.710938 Z M 62.375 196.285156 C 62.375 191.542969 59.375 188.378906 54.945312 188.378906 C 50.519531 188.378906 47.519531 191.6875 47.519531 196.285156 C 47.519531 200.886719 50.519531 204.191406 54.945312 204.191406 C 59.375 204.191406 62.375 200.886719 62.375 196.285156 Z M 75.371094 196.285156 C 75.371094 186.367188 82.65625 179.035156 92.796875 179.035156 C 102.9375 179.035156 110.082031 186.367188 110.082031 196.285156 L 110.082031 199.160156 L 85.65625 199.160156 C 86.371094 203.042969 89.371094 204.625 92.941406 204.625 C 96.511719 204.625 97.796875 204.046875 99.082031 202.324219 L 109.222656 202.324219 C 107.082031 209.078125 100.941406 213.535156 92.796875 213.535156 C 84.65625 213.535156 75.371094 206.203125 75.371094 196.285156 Z M 100.082031 192.835938 C 98.941406 189.53125 96.367188 187.949219 92.941406 187.949219 C 89.511719 187.949219 86.941406 189.53125 85.941406 192.835938 Z M 113.9375 199.734375 L 113.9375 168.398438 L 123.792969 168.398438 L 123.792969 180.042969 L 139.21875 180.042969 L 139.21875 188.953125 L 123.792969 188.953125 L 123.792969 199.734375 C 123.792969 203.1875 125.363281 204.191406 127.507812 204.191406 C 129.648438 204.191406 131.222656 203.1875 131.222656 199.734375 L 131.222656 198.730469 L 141.078125 198.730469 L 141.078125 199.734375 C 141.078125 209.078125 135.507812 213.390625 127.507812 213.390625 C 119.507812 213.390625 113.796875 208.9375 113.796875 199.734375 Z M 113.9375 199.734375 " fill-opacity="1" fill-rule="evenodd"/></g><g clip-path="url(#ade455e369)"><path fill="#ffffff" d="M 144.503906 195.710938 C 144.503906 184.785156 150.933594 179.179688 160.503906 179.179688 C 170.074219 179.179688 176.5 184.640625 176.5 195.710938 L 176.5 212.671875 L 166.644531 212.671875 L 166.644531 195.710938 C 166.644531 190.535156 164.21875 188.378906 160.503906 188.378906 C 156.789062 188.378906 154.359375 190.535156 154.359375 195.710938 L 154.359375 212.671875 L 144.503906 212.671875 Z M 180.214844 196.71875 C 180.214844 186.222656 187.5 179.179688 197.785156 179.179688 C 208.070312 179.179688 215.066406 185.9375 215.066406 196.71875 L 215.066406 212.671875 L 206.070312 212.671875 L 206.070312 207.355469 C 204.355469 211.378906 200.785156 213.679688 196.070312 213.679688 C 188.785156 213.679688 180.359375 208.21875 180.359375 196.859375 Z M 205.210938 196.285156 C 205.210938 191.542969 202.210938 188.378906 197.785156 188.378906 C 193.355469 188.378906 190.355469 191.6875 190.355469 196.285156 C 190.355469 200.886719 193.355469 204.191406 197.785156 204.191406 C 202.210938 204.191406 205.210938 200.886719 205.210938 196.285156 Z M 220.066406 199.734375 L 220.066406 168.398438 L 229.921875 168.398438 L 229.921875 180.042969 L 245.347656 180.042969 L 245.347656 188.953125 L 229.921875 188.953125 L 229.921875 199.734375 C 229.921875 203.1875 231.496094 204.191406 233.636719 204.191406 C 235.78125 204.191406 237.351562 203.1875 237.351562 199.734375 L 237.351562 198.730469 L 247.207031 198.730469 L 247.207031 199.734375 C 247.207031 209.078125 241.636719 213.390625 233.636719 213.390625 C 225.636719 213.390625 219.925781 208.9375 219.925781 199.734375 Z M 250.921875 179.898438 L 260.777344 179.898438 L 260.777344 212.53125 L 250.921875 212.53125 Z M 303.484375 195.710938 C 303.484375 184.785156 309.914062 179.179688 319.484375 179.179688 C 329.054688 179.179688 335.480469 184.640625 335.480469 195.710938 L 335.480469 212.671875 L 325.625 212.671875 L 325.625 195.710938 C 325.625 190.535156 323.195312 188.378906 319.484375 188.378906 C 315.769531 188.378906 313.339844 190.535156 313.339844 195.710938 L 313.339844 212.671875 L 303.484375 212.671875 Z M 264.917969 196.285156 C 264.917969 186.367188 272.203125 179.035156 282.34375 179.035156 C 292.484375 179.035156 299.769531 186.367188 299.769531 196.285156 C 299.769531 206.203125 292.484375 213.535156 282.34375 213.535156 C 272.203125 213.535156 264.917969 206.203125 264.917969 196.285156 Z M 289.773438 196.285156 C 289.773438 191.542969 286.773438 188.378906 282.34375 188.378906 C 277.917969 188.378906 274.917969 191.6875 274.917969 196.285156 C 274.917969 200.886719 277.917969 204.191406 282.34375 204.191406 C 286.773438 204.191406 289.773438 200.886719 289.773438 196.285156 Z M 289.773438 196.285156 " fill-opacity="1" fill-rule="nonzero"/></g></svg>