<svg xmlns="http://www.w3.org/2000/svg" xmlns:xlink="http://www.w3.org/1999/xlink" width="500" zoomAndPan="magnify" viewBox="0 0 375 374.999991" height="500" preserveAspectRatio="xMidYMid meet" version="1.0"><defs><clipPath id="9349e2c2ac"><path d="M 38.035156 155.046875 L 334 155.046875 L 334 220.105469 L 38.035156 220.105469 Z M 38.035156 155.046875 " clip-rule="nonzero"/></clipPath></defs><rect x="-37.5" width="450" fill="#ffffff" y="-37.499999" height="449.999989" fill-opacity="1"/><rect x="-37.5" width="450" fill="#1a1e1a" y="-37.499999" height="449.999989" fill-opacity="1"/><g clip-path="url(#9349e2c2ac)"><path fill="#39f56a" d="M 59.832031 167.15625 C 70.382812 166.28125 76.199219 172.726562 74.117188 183.261719 L 73.554688 185.859375 L 60.714844 186.3125 L 61.75 182.078125 C 61.996094 180.761719 62.246094 179.167969 61.277344 178.136719 C 60.5625 177.457031 59.402344 177.472656 58.5 177.757812 C 57.613281 178.058594 57.007812 178.820312 56.601562 179.648438 C 55.882812 180.542969 50.488281 202.832031 49.992188 204.367188 C 49.507812 206.296875 49.351562 209.105469 51.859375 209.464844 C 53.398438 209.699219 54.4375 208.914062 55.113281 207.5625 C 56.210938 205.359375 56.867188 201.585938 57.527344 199.183594 L 70.414062 198.847656 L 69.617188 202.519531 C 68.882812 205.851562 67.867188 209.109375 66.265625 212.0625 C 64.933594 214.515625 63.03125 216.597656 60.660156 218.027344 C 58.101562 219.582031 55.109375 220.125 52.117188 220.097656 C 47.421875 220.109375 42.714844 218.460938 40.117188 214.34375 C 38.445312 211.691406 37.90625 208.488281 38.0625 205.339844 C 38.160156 203.441406 38.484375 201.546875 38.976562 199.632812 L 43.480469 182.15625 C 43.832031 180.75 44.273438 179.394531 44.828125 178.085938 C 47.570312 171.511719 52.753906 167.640625 59.832031 167.15625 Z M 100.574219 180.828125 C 101.015625 178.9375 101.195312 176.320312 99.28125 175.230469 C 98.230469 174.71875 96.878906 174.839844 95.84375 175.351562 C 94.722656 175.921875 94.054688 177.007812 93.550781 178.164062 C 93.21875 178.941406 92.960938 179.765625 92.746094 180.632812 L 87.109375 202.671875 C 87.035156 202.972656 86.972656 203.277344 86.921875 203.585938 C 86.664062 205.144531 86.785156 206.984375 88.027344 208.074219 C 88.933594 208.84375 90.300781 208.964844 91.40625 208.589844 C 92.523438 208.167969 93.378906 207.167969 93.785156 206.066406 C 93.988281 205.519531 94.488281 204.128906 95.171875 201.636719 C 97.074219 194.707031 100.207031 181.996094 100.570312 180.828125 Z M 114.476562 172.597656 C 115.605469 175.890625 115.421875 179.4375 114.523438 182.804688 C 113.996094 184.722656 109.089844 204.34375 108.554688 205.648438 C 107.738281 208.132812 106.710938 210.5 105.308594 212.625 C 102.328125 217.183594 97.808594 219.585938 92.457031 220 C 84.75 220.683594 76.757812 218.136719 74.375 209.960938 C 73.335938 206.382812 73.6875 202.59375 74.621094 198.960938 C 74.976562 197.652344 79.707031 178.734375 80.015625 178.101562 C 80.714844 175.96875 81.652344 173.9375 82.875 172.082031 C 84.054688 170.28125 85.515625 168.746094 87.253906 167.476562 C 88.992188 166.210938 90.898438 165.289062 92.96875 164.71875 C 97.167969 163.589844 102.199219 163.34375 106.332031 164.71875 C 110.074219 165.960938 113.230469 168.789062 114.472656 172.597656 Z M 155.367188 160.261719 L 140.773438 196.316406 L 144.527344 161.089844 L 124.636719 162.605469 L 110.171875 219.292969 L 122.980469 219.292969 L 132.054688 183.664062 L 128.71875 219.292969 L 141.472656 219.292969 L 157.023438 181.894531 L 147.453125 219.292969 L 161.824219 219.292969 L 177.335938 158.585938 L 155.367188 160.257812 Z M 183.363281 158.125 L 167.726562 219.292969 L 203.980469 219.292969 L 207.207031 207.101562 L 187.9375 207.292969 L 191.511719 193.3125 L 207.410156 192.859375 L 210.566406 180.289062 L 194.605469 181.003906 L 197.675781 169.050781 L 217.175781 167.871094 L 220.347656 155.300781 Z M 316.015625 204.011719 C 319.511719 205.890625 320.691406 210.089844 319.4375 213.761719 C 318.671875 215.992188 317.015625 217.871094 314.953125 218.972656 C 312.523438 220.28125 309.480469 220.476562 306.917969 219.457031 C 303.742188 218.203125 301.855469 214.988281 302.160156 211.566406 C 302.484375 207.621094 305.367188 204.273438 309.152344 203.328125 C 311.414062 202.761719 313.949219 202.875 316.015625 204.011719 Z M 239.542969 179.828125 C 240.046875 177.734375 240.144531 174.539062 237.664062 173.800781 C 236.628906 173.558594 235.632812 173.679688 234.683594 174.167969 C 232.773438 175.214844 232.066406 177.667969 231.539062 179.703125 L 226.160156 201.949219 C 226.082031 202.265625 226.019531 202.585938 225.96875 202.90625 C 225.839844 203.734375 225.808594 204.566406 225.964844 205.371094 C 226.148438 206.402344 226.660156 207.398438 227.585938 207.90625 C 228.472656 208.390625 229.621094 208.4375 230.574219 208.09375 C 232.199219 207.425781 232.984375 205.683594 233.519531 204.09375 C 233.699219 203.578125 233.851562 203.046875 233.996094 202.5 Z M 253.769531 171.109375 C 254.621094 173.59375 254.777344 176.234375 254.429688 178.867188 C 254.464844 179.992188 249.359375 200.164062 248.992188 201.878906 C 248.277344 204.746094 247.355469 207.511719 246.058594 210.074219 C 244.027344 214.199219 240.71875 217.566406 236.351562 219.019531 C 233.125 220.117188 229.441406 220.308594 226.0625 219.917969 C 221.027344 219.347656 216.257812 216.679688 214.058594 211.949219 C 212.007812 207.675781 212.246094 202.75 213.394531 198.1875 C 213.664062 197.164062 216.242188 186.238281 217.640625 180.5625 C 218.109375 178.671875 218.386719 177.640625 218.523438 177.195312 C 218.992188 175.679688 219.589844 174.230469 220.304688 172.84375 C 222.625 168.179688 226.703125 164.570312 231.703125 163.136719 C 235.976562 161.914062 241.144531 161.597656 245.382812 162.984375 C 249.25 164.246094 252.484375 167.175781 253.769531 171.109375 Z M 333.324219 155.046875 L 314.160156 156.628906 L 307.214844 199.167969 L 319.585938 199.027344 Z M 293.222656 158.359375 L 285.332031 189.996094 L 284.007812 159.121094 L 264.351562 160.742188 L 249.757812 219.292969 L 263.914062 219.292969 L 273.003906 182.757812 L 274.496094 219.292969 L 293.476562 219.292969 L 308.949219 157.058594 Z M 293.222656 158.359375 " fill-opacity="1" fill-rule="nonzero"/></g></svg>