<svg xmlns="http://www.w3.org/2000/svg" xmlns:xlink="http://www.w3.org/1999/xlink" width="500" zoomAndPan="magnify" viewBox="0 0 375 374.999991" height="500" preserveAspectRatio="xMidYMid meet" version="1.0"><rect x="-37.5" width="450" fill="#ffffff" y="-37.499999" height="449.999989" fill-opacity="1"/><rect x="-37.5" width="450" fill="#000000" y="-37.499999" height="449.999989" fill-opacity="1"/><path fill="#c5a24a" d="M 326.78125 98.253906 C 327.457031 98.027344 327.457031 97.804688 327.457031 97.351562 C 327.457031 96.679688 326.78125 96.453125 325.878906 96.453125 L 324.078125 96.453125 L 324.078125 100.054688 L 325.207031 100.054688 L 325.207031 98.703125 L 325.65625 98.703125 C 326.332031 98.703125 326.332031 98.929688 326.554688 99.152344 C 326.554688 99.152344 326.554688 99.828125 326.78125 100.054688 L 327.90625 100.054688 C 327.90625 99.828125 327.90625 99.828125 327.679688 99.152344 C 327.457031 98.703125 327.230469 98.476562 326.78125 98.253906 M 325.65625 98.027344 L 325.207031 98.027344 L 325.207031 97.128906 L 325.878906 97.128906 C 326.105469 97.128906 326.554688 97.128906 326.554688 97.578125 C 326.332031 98.027344 325.878906 98.027344 325.65625 98.027344 " fill-opacity="1" fill-rule="nonzero"/><path fill="#c5a24a" d="M 325.878906 93.078125 C 322.730469 93.078125 320.480469 95.550781 320.480469 98.253906 C 320.480469 101.179688 322.953125 103.429688 325.65625 103.429688 C 328.355469 103.429688 330.832031 100.953125 330.832031 98.253906 C 331.054688 95.550781 328.582031 93.078125 325.878906 93.078125 M 325.65625 102.527344 C 323.40625 102.527344 321.605469 100.730469 321.605469 98.253906 C 321.605469 95.777344 323.40625 93.976562 325.65625 93.976562 C 327.90625 93.976562 329.707031 96.003906 329.707031 98.253906 C 329.929688 100.503906 327.90625 102.527344 325.65625 102.527344 " fill-opacity="1" fill-rule="nonzero"/><path fill="#c5a24a" d="M 320.929688 155.867188 C 320.027344 155.640625 319.128906 155.191406 318.003906 154.515625 C 317.101562 153.839844 315.976562 152.941406 314.851562 151.816406 L 314.175781 151.140625 L 301.800781 133.585938 C 308.101562 132.460938 313.726562 130.210938 318.230469 126.835938 C 322.953125 123.457031 325.207031 118.734375 325.207031 113.332031 C 325.207031 109.957031 324.304688 106.804688 322.503906 104.105469 C 320.703125 101.402344 318.230469 99.152344 314.851562 97.351562 C 311.476562 95.550781 307.875 94.425781 303.824219 93.976562 C 299.773438 93.527344 296.171875 93.078125 292.574219 93.078125 L 194.675781 93.078125 L 194.675781 103.203125 L 198.5 103.203125 C 200.753906 103.203125 202.101562 103.429688 202.777344 103.65625 C 203.675781 104.105469 204.128906 104.554688 204.578125 105.230469 C 205.027344 105.90625 205.027344 107.480469 205.027344 109.730469 L 205.027344 156.316406 C 205.027344 156.316406 205.027344 156.316406 201.425781 156.316406 C 192.199219 156.316406 185.449219 146.414062 181.398438 137.636719 L 161.144531 93.300781 L 142.015625 93.300781 L 131.886719 115.132812 L 122.882812 93.300781 L 46.367188 93.300781 L 46.367188 103.429688 L 49.066406 103.429688 C 51.542969 103.429688 53.34375 103.65625 54.242188 103.878906 C 55.144531 104.105469 55.820312 104.78125 56.042969 105.230469 C 56.496094 105.90625 56.71875 107.253906 56.71875 109.054688 L 56.71875 151.363281 C 56.71875 153.390625 56.269531 154.742188 55.371094 155.417969 C 54.46875 156.089844 52.445312 156.542969 49.292969 156.542969 L 46.59375 156.542969 L 46.59375 184.449219 L 50.644531 184.449219 C 52.667969 184.449219 54.019531 184.671875 54.695312 184.898438 C 55.371094 185.347656 55.820312 185.796875 56.269531 186.472656 C 56.71875 187.148438 56.71875 188.722656 56.71875 190.972656 L 56.71875 231.257812 C 56.71875 233.507812 56.496094 234.859375 56.042969 235.535156 C 55.59375 236.210938 55.144531 236.660156 54.242188 237.109375 C 53.34375 237.558594 51.769531 237.558594 49.292969 237.558594 L 46.367188 237.558594 L 46.367188 247.6875 L 88.226562 247.6875 L 88.226562 237.558594 L 83.949219 237.558594 C 82.148438 237.558594 80.800781 237.335938 80.125 237.109375 C 79.449219 236.882812 78.773438 236.210938 78.550781 235.535156 C 78.324219 235.085938 78.097656 233.957031 78.097656 232.382812 L 78.097656 218.429688 L 92.726562 218.429688 C 102.628906 218.429688 110.507812 216.40625 115.90625 212.128906 C 121.535156 207.851562 124.460938 202.675781 124.460938 196.375 C 124.460938 193.226562 123.785156 190.300781 122.210938 187.597656 C 121.535156 186.472656 120.859375 185.347656 120.183594 184.449219 L 124.007812 184.449219 C 125.585938 184.449219 126.933594 184.671875 127.609375 184.898438 C 128.285156 185.347656 128.960938 185.796875 129.1875 186.699219 C 129.636719 187.597656 129.859375 188.722656 129.859375 190.523438 L 129.859375 231.933594 C 129.859375 233.507812 129.636719 234.632812 129.1875 235.308594 C 128.734375 235.984375 128.285156 236.433594 127.386719 236.882812 C 126.484375 237.335938 125.136719 237.558594 123.558594 237.558594 L 119.058594 237.558594 L 119.058594 247.6875 L 201.425781 247.6875 L 201.425781 237.558594 C 198.277344 237.558594 196.25 237.558594 195.574219 237.335938 C 194.449219 237.109375 193.777344 236.660156 193.324219 236.210938 C 192.875 235.757812 192.648438 235.308594 192.648438 234.632812 C 192.648438 234.183594 193.101562 233.058594 193.550781 231.484375 L 196.699219 224.058594 L 222.808594 224.058594 L 225.28125 230.808594 C 225.957031 232.832031 226.40625 233.957031 226.40625 234.632812 C 226.40625 235.308594 225.957031 235.984375 225.058594 236.433594 C 224.15625 236.882812 222.582031 237.109375 220.332031 237.109375 L 217.855469 237.109375 L 217.855469 247.238281 L 304.949219 247.238281 L 304.949219 237.109375 L 301.351562 237.109375 C 298.875 237.109375 297.300781 236.882812 296.398438 236.660156 C 295.5 236.210938 295.046875 235.757812 294.597656 235.085938 C 294.148438 234.410156 294.148438 232.832031 294.148438 230.582031 L 294.148438 217.53125 L 316.878906 189.171875 C 318.453125 187.148438 320.027344 185.796875 321.152344 185.121094 C 322.28125 184.449219 324.53125 184.222656 327.457031 184.222656 L 327.457031 156.089844 L 324.980469 156.089844 C 323.179688 156.316406 321.828125 156.089844 320.929688 155.867188 Z M 271.644531 105.003906 L 285.820312 105.003906 C 290.773438 105.003906 294.148438 105.453125 296.398438 106.128906 C 298.648438 106.804688 300.222656 107.929688 301.351562 109.28125 C 302.476562 110.632812 303.148438 112.207031 303.148438 114.230469 C 303.148438 116.257812 302.476562 118.058594 301.351562 119.632812 C 300 121.207031 298.199219 122.332031 295.722656 123.007812 C 293.246094 123.910156 289.421875 124.132812 284.472656 124.132812 L 271.867188 124.132812 Z M 148.316406 112.429688 L 156.640625 132.6875 L 139.539062 132.6875 Z M 100.378906 202 C 99.027344 203.578125 97.453125 204.925781 95.429688 205.601562 C 93.402344 206.503906 90.027344 206.726562 85.527344 206.726562 L 78.324219 206.726562 L 78.324219 185.796875 L 87.777344 185.796875 C 92.277344 185.796875 95.429688 186.472656 97.902344 188.046875 C 100.828125 190.074219 102.40625 192.773438 102.40625 196.148438 C 102.179688 198.625 101.503906 200.425781 100.378906 202 Z M 201.203125 213.480469 L 209.980469 193.226562 L 218.304688 213.480469 Z M 315.753906 174.09375 L 293.246094 174.09375 L 293.246094 184.222656 L 297.523438 184.222656 C 299.324219 184.222656 300.449219 184.449219 300.898438 184.671875 C 301.351562 184.898438 301.574219 185.347656 301.574219 186.023438 C 301.574219 186.472656 301.574219 186.921875 301.351562 187.148438 C 301.125 187.375 300.675781 188.046875 299.550781 189.625 L 286.945312 206.277344 L 275.695312 190.300781 C 274.34375 188.5 273.667969 187.148438 273.667969 186.25 C 273.667969 185.574219 273.894531 185.121094 274.570312 184.898438 C 275.242188 184.671875 276.59375 184.449219 278.84375 184.449219 L 281.996094 184.449219 L 281.996094 174.320312 L 239.460938 174.320312 L 239.460938 184.449219 C 242.386719 184.449219 244.410156 184.671875 245.3125 185.121094 C 246.664062 185.796875 248.238281 187.148438 250.039062 189.625 L 272.769531 219.332031 L 272.769531 230.808594 C 272.769531 233.285156 272.542969 234.859375 272.09375 235.535156 C 271.644531 236.433594 270.96875 236.882812 270.292969 237.335938 C 269.390625 237.785156 267.59375 237.785156 264.667969 237.785156 L 258.363281 237.785156 C 255.4375 237.785156 253.414062 237.558594 252.289062 236.882812 C 251.164062 236.210938 250.039062 234.410156 248.6875 231.257812 L 223.03125 174.546875 L 203.902344 174.546875 L 182.746094 220.90625 C 178.246094 228.78125 173.746094 237.785156 158.667969 237.785156 C 155.066406 237.785156 152.589844 237.785156 151.242188 237.785156 L 151.242188 189.398438 C 151.242188 187.824219 151.464844 186.699219 151.914062 186.023438 C 152.367188 185.347656 153.042969 184.671875 154.167969 184.449219 C 154.617188 184.222656 155.96875 184.222656 157.992188 184.222656 L 162.269531 184.222656 L 162.269531 174.09375 L 119.058594 174.09375 L 119.058594 182.871094 C 118.160156 181.972656 117.257812 181.070312 116.132812 180.171875 C 113.433594 178.144531 110.054688 176.570312 106.230469 175.671875 C 102.40625 174.546875 97.679688 174.09375 91.828125 174.09375 L 58.292969 174.09375 L 58.292969 166.445312 L 88.453125 166.445312 L 88.453125 156.316406 L 85.074219 156.316406 C 82.824219 156.316406 81.023438 156.089844 80.351562 155.867188 C 79.449219 155.417969 79 154.964844 78.550781 154.515625 C 78.097656 153.839844 77.875 152.714844 77.875 150.691406 L 77.875 135.160156 L 87.777344 135.160156 C 90.027344 135.160156 91.378906 135.386719 92.277344 135.386719 C 93.175781 135.613281 93.851562 136.0625 94.527344 136.511719 C 95.203125 136.960938 95.652344 137.636719 96.101562 138.539062 C 96.328125 139.210938 96.554688 140.113281 96.554688 141.464844 L 96.554688 146.414062 L 107.582031 146.414062 L 107.582031 113.558594 L 96.554688 113.558594 L 96.554688 117.382812 C 96.554688 119.40625 96.328125 120.757812 95.878906 121.660156 C 95.429688 122.558594 94.527344 123.234375 93.402344 123.683594 C 92.277344 124.132812 90.703125 124.585938 88.675781 124.585938 L 78.097656 124.585938 L 78.097656 105.003906 L 94.304688 105.003906 C 98.804688 105.003906 101.953125 105.230469 103.53125 105.453125 C 106.230469 105.90625 108.480469 106.582031 110.730469 107.707031 C 112.980469 108.832031 115.007812 110.40625 116.582031 111.980469 C 118.160156 113.78125 119.957031 116.257812 121.757812 119.632812 L 131.210938 116.707031 L 115.683594 150.914062 C 115.007812 152.714844 114.109375 153.839844 113.433594 154.515625 C 112.757812 155.191406 112.082031 155.640625 110.957031 155.867188 C 110.054688 156.089844 108.480469 156.316406 106.230469 156.316406 L 106.230469 166.445312 L 139.3125 166.445312 L 139.3125 156.316406 C 136.164062 156.316406 134.136719 156.316406 133.460938 156.089844 C 132.335938 155.867188 131.660156 155.417969 131.210938 154.964844 C 130.761719 154.515625 130.535156 154.066406 130.535156 153.390625 C 130.535156 152.941406 130.984375 151.816406 131.4375 150.238281 L 134.585938 142.8125 L 160.691406 142.8125 L 163.167969 149.566406 C 163.84375 151.589844 164.292969 152.714844 164.292969 153.390625 C 164.292969 154.066406 163.84375 154.742188 162.945312 155.191406 C 162.042969 155.640625 160.46875 155.867188 158.21875 155.867188 L 155.742188 155.867188 L 155.742188 165.992188 L 235.183594 165.992188 L 235.183594 155.867188 L 231.582031 155.867188 C 229.785156 155.867188 228.660156 155.640625 227.757812 155.191406 C 227.082031 154.964844 226.632812 154.515625 226.40625 153.839844 C 226.183594 153.164062 225.957031 151.816406 225.957031 149.566406 L 225.957031 109.054688 C 225.957031 107.03125 226.183594 105.679688 226.40625 105.003906 C 226.859375 104.328125 227.308594 103.65625 227.984375 103.429688 C 228.660156 102.980469 230.234375 102.980469 232.484375 102.980469 L 242.835938 102.980469 C 246.4375 102.980469 250.039062 103.203125 250.039062 108.605469 L 250.039062 149.789062 C 250.039062 152.039062 249.8125 153.390625 249.8125 153.839844 C 249.363281 154.515625 248.6875 155.191406 248.011719 155.417969 C 247.113281 155.867188 246.664062 156.089844 244.636719 156.089844 L 239.234375 156.089844 L 239.234375 166.21875 L 281.769531 166.21875 L 281.769531 156.089844 L 277.71875 156.089844 C 275.46875 156.089844 274.117188 155.867188 273.445312 155.640625 C 272.769531 155.191406 272.316406 154.742188 271.867188 154.066406 C 271.417969 153.390625 271.417969 151.816406 271.417969 149.339844 L 271.417969 134.710938 L 281.996094 134.710938 L 304.273438 166.445312 L 315.304688 166.445312 Z M 315.753906 174.09375 " fill-opacity="1" fill-rule="nonzero"/><path fill="#c5a24a" d="M 165.417969 254.4375 L 151.914062 280.769531 L 160.46875 280.769531 L 162.71875 276.042969 L 178.023438 276.042969 L 180.273438 280.769531 L 188.597656 280.769531 L 175.320312 254.4375 Z M 165.417969 270.417969 L 170.144531 260.515625 L 175.097656 270.417969 Z M 165.417969 270.417969 " fill-opacity="1" fill-rule="nonzero"/><path fill="#c5a24a" d="M 222.132812 254.4375 L 229.109375 254.4375 L 229.109375 280.769531 L 222.132812 280.769531 Z M 222.132812 254.4375 " fill-opacity="1" fill-rule="nonzero"/><path fill="#c5a24a" d="M 260.390625 273.566406 L 260.164062 273.566406 L 246.210938 254.4375 L 234.507812 254.4375 L 234.507812 280.769531 L 241.9375 280.769531 L 241.9375 261.640625 L 256.113281 280.769531 L 267.816406 280.769531 L 267.816406 254.4375 L 260.390625 254.4375 Z M 260.390625 273.566406 " fill-opacity="1" fill-rule="nonzero"/><path fill="#c5a24a" d="M 297.300781 254.4375 L 285.820312 254.4375 C 278.84375 254.4375 274.792969 256.238281 274.792969 263.664062 L 274.792969 271.316406 C 274.792969 278.742188 278.84375 280.542969 285.820312 280.542969 L 297.300781 280.542969 C 304.277344 280.542969 308.328125 278.742188 308.328125 271.316406 L 308.328125 263.664062 C 308.101562 256.238281 304.050781 254.4375 297.300781 254.4375 Z M 300.222656 269.066406 C 300.222656 272.894531 299.550781 274.242188 295.722656 274.242188 L 286.722656 274.242188 C 283.121094 274.242188 282.21875 272.894531 282.21875 269.066406 L 282.21875 266.367188 C 282.21875 263.214844 282.894531 261.191406 286.945312 261.191406 L 295.046875 261.191406 C 299.097656 261.191406 299.773438 263.214844 299.773438 266.367188 L 299.773438 269.066406 Z M 300.222656 269.066406 " fill-opacity="1" fill-rule="nonzero"/><path fill="#c5a24a" d="M 204.804688 264.566406 C 196.925781 264.566406 196.027344 264.566406 196.027344 262.316406 C 196.027344 260.964844 197.152344 260.289062 198.726562 260.289062 L 217.632812 260.289062 C 217.40625 256.6875 215.605469 254.4375 208.402344 254.4375 L 198.277344 254.4375 C 189.050781 254.4375 188.824219 258.039062 188.824219 262.765625 C 188.824219 269.066406 190.175781 270.417969 200.976562 270.417969 C 210.429688 270.417969 211.105469 270.640625 211.105469 272.894531 C 211.105469 274.917969 209.527344 275.144531 207.953125 275.144531 L 188.824219 275.144531 C 189.273438 279.644531 191.976562 280.996094 198.050781 280.996094 L 206.828125 280.996094 C 216.503906 280.996094 218.53125 279.871094 218.53125 272.894531 C 218.757812 265.242188 216.054688 264.339844 204.804688 264.566406 " fill-opacity="1" fill-rule="nonzero"/><path fill="#c5a24a" d="M 134.136719 274.242188 C 130.535156 274.242188 129.859375 272.894531 129.859375 269.066406 L 129.859375 266.367188 C 129.859375 263.214844 130.535156 261.191406 134.585938 261.191406 L 151.691406 261.191406 C 151.242188 256.238281 148.765625 254.664062 139.988281 254.664062 L 133.011719 254.664062 C 126.261719 254.664062 122.433594 256.464844 122.433594 263.890625 L 122.433594 271.542969 C 122.433594 278.96875 126.484375 280.769531 133.011719 280.769531 L 143.363281 280.769531 C 150.117188 280.769531 151.914062 277.84375 152.140625 274.242188 Z M 134.136719 274.242188 " fill-opacity="1" fill-rule="nonzero"/></svg>