<svg xmlns="http://www.w3.org/2000/svg" xmlns:xlink="http://www.w3.org/1999/xlink" width="500" zoomAndPan="magnify" viewBox="0 0 375 374.999991" height="500" preserveAspectRatio="xMidYMid meet" version="1.0"><defs><clipPath id="892989ecc8"><path d="M 299 176 L 337.449219 176 L 337.449219 199 L 299 199 Z M 299 176 " clip-rule="nonzero"/></clipPath><clipPath id="cb473d3142"><path d="M 37.550781 176 L 61 176 L 61 199 L 37.550781 199 Z M 37.550781 176 " clip-rule="nonzero"/></clipPath><clipPath id="008954a6e0"><path d="M 220 175.378906 L 240 175.378906 L 240 199.378906 L 220 199.378906 Z M 220 175.378906 " clip-rule="nonzero"/></clipPath></defs><rect x="-37.5" width="450" fill="#ffffff" y="-37.499999" height="449.999989" fill-opacity="1"/><rect x="-37.5" width="450" fill="#35005e" y="-37.499999" height="449.999989" fill-opacity="1"/><g clip-path="url(#892989ecc8)"><path fill="#00f3c7" d="M 325.914062 176.074219 L 310.644531 176.074219 C 304.273438 176.074219 299.109375 181.152344 299.109375 187.414062 C 299.109375 193.679688 304.273438 198.753906 310.644531 198.753906 L 325.914062 198.753906 C 332.285156 198.753906 337.449219 193.679688 337.449219 187.414062 C 337.449219 181.152344 332.285156 176.074219 325.914062 176.074219 Z M 325.914062 176.074219 " fill-opacity="1" fill-rule="nonzero"/></g><path fill="#3a1979" d="M 306.007812 189.394531 L 309.089844 189.394531 L 309.089844 192.144531 L 306.007812 192.144531 Z M 306.007812 189.394531 " fill-opacity="1" fill-rule="nonzero"/><path fill="#3a1979" d="M 310.207031 192.144531 L 310.207031 181.625 L 312.761719 181.625 L 316.597656 186.601562 L 318.066406 188.816406 L 318.238281 188.816406 L 318.128906 186.695312 L 318.128906 181.625 L 320.523438 181.625 L 320.523438 192.144531 L 317.96875 192.144531 L 314.023438 187.121094 L 312.664062 185.144531 L 312.503906 185.144531 L 312.601562 187.074219 L 312.601562 192.144531 Z M 310.207031 192.144531 " fill-opacity="1" fill-rule="nonzero"/><path fill="#3a1979" d="M 321.800781 192.144531 L 321.800781 181.625 L 324.195312 181.625 L 324.195312 190.023438 L 330.566406 190.023438 L 330.566406 192.144531 Z M 321.800781 192.144531 " fill-opacity="1" fill-rule="nonzero"/><g clip-path="url(#cb473d3142)"><path fill="#febe10" d="M 37.550781 176.09375 L 46.175781 176.09375 L 46.175781 184.332031 L 52.492188 184.332031 L 52.492188 176.09375 L 60.996094 176.09375 L 60.996094 198.664062 L 52.371094 198.664062 L 52.492188 191.257812 L 46.175781 191.378906 L 46.054688 198.664062 L 37.550781 198.664062 Z M 37.550781 176.09375 " fill-opacity="1" fill-rule="nonzero"/></g><path fill="#febe10" d="M 96.828125 176.09375 L 107.515625 176.09375 L 109.703125 193.527344 L 112.375 176.09375 L 122.941406 176.09375 L 126.707031 198.664062 L 118.8125 198.664062 L 117.234375 181.824219 L 114.5625 198.664062 L 104.722656 198.664062 L 102.292969 181.945312 L 100.109375 198.664062 L 92.332031 198.664062 Z M 96.828125 176.09375 " fill-opacity="1" fill-rule="nonzero"/><path fill="#febe10" d="M 133.996094 176.09375 L 144.6875 176.09375 L 146.871094 193.289062 L 149.546875 176.09375 L 160.113281 176.09375 L 163.878906 198.664062 L 155.984375 198.664062 L 154.402344 181.707031 L 151.730469 198.664062 L 141.894531 198.664062 L 139.585938 181.707031 L 139.464844 181.707031 L 137.277344 198.664062 L 129.503906 198.664062 Z M 133.996094 176.09375 " fill-opacity="1" fill-rule="nonzero"/><path fill="#febe10" d="M 168.253906 176.09375 L 187.6875 176.09375 L 187.6875 181.945312 L 176.636719 181.945312 L 176.636719 184.332031 L 187.6875 184.214844 L 187.6875 190.066406 L 176.636719 190.066406 L 176.636719 192.574219 L 187.6875 192.453125 L 187.6875 198.664062 L 168.253906 198.664062 Z M 168.253906 176.09375 " fill-opacity="1" fill-rule="nonzero"/><path fill="#febe10" d="M 194.003906 198.539062 L 194.003906 176.085938 L 206.320312 176.085938 C 212.894531 176.085938 214.929688 179.027344 214.929688 182.789062 C 214.929688 185.726562 212.894531 188.3125 209.90625 188.429688 L 209.90625 188.546875 C 212.175781 189.019531 213.375 190.78125 216.484375 198.65625 L 207.15625 198.65625 L 205.125 193.015625 C 204.644531 191.71875 204.167969 191.25 203.449219 191.25 L 202.253906 191.25 L 202.253906 198.65625 L 194.003906 198.65625 Z M 202.371094 185.84375 L 204.167969 185.84375 C 205.722656 185.84375 206.917969 185.726562 206.917969 183.726562 C 206.917969 182.199219 206.4375 181.257812 204.40625 181.375 L 202.492188 181.375 L 202.492188 185.84375 Z M 202.371094 185.84375 " fill-opacity="1" fill-rule="nonzero"/><g clip-path="url(#008954a6e0)"><path fill="#febe10" d="M 221.707031 192.8125 C 223.53125 193.167969 225.472656 193.289062 226.933594 193.289062 C 229.96875 193.289062 231.0625 192.929688 231.0625 191.976562 C 231.0625 191.140625 230.699219 190.78125 229.726562 190.664062 L 226.203125 190.183594 C 221.832031 189.589844 220.371094 186.007812 220.25 183.5 C 220.25 177.050781 225.109375 175.382812 231.183594 175.382812 C 234.460938 175.382812 237.136719 175.738281 239.199219 175.976562 L 238.59375 181.949219 C 236.894531 181.589844 234.339844 181.472656 232.640625 181.472656 C 229.605469 181.472656 229.121094 182.1875 229.121094 182.902344 C 229.121094 183.382812 229.484375 183.738281 230.457031 183.976562 L 234.339844 184.695312 C 237.984375 185.289062 239.808594 187.796875 239.808594 191.140625 C 239.808594 196.515625 236.40625 199.378906 229.726562 199.378906 C 226.449219 199.378906 223.285156 199.140625 220.859375 198.78125 Z M 221.707031 192.8125 " fill-opacity="1" fill-rule="nonzero"/></g><path fill="#febe10" d="M 271.875 176.09375 L 282.441406 176.09375 L 287.664062 188.390625 L 287.664062 176.09375 L 295.320312 176.09375 L 295.195312 198.664062 L 284.628906 198.664062 L 279.164062 184.8125 L 279.164062 198.664062 L 271.753906 198.664062 Z M 271.875 176.09375 " fill-opacity="1" fill-rule="nonzero"/><path fill="#febe10" d="M 68.683594 176.09375 C 70.8125 177.90625 73.777344 179.003906 77.511719 179.003906 C 81.179688 178.953125 84.082031 177.863281 86.175781 176.09375 Z M 68.683594 176.09375 " fill-opacity="1" fill-rule="nonzero"/><path fill="#febe10" d="M 88.535156 198.644531 C 89.601562 196.800781 90.148438 194.636719 90.148438 192.316406 C 90.148438 185.75 85.652344 180.378906 77.394531 180.378906 C 69.136719 180.378906 64.761719 185.871094 64.761719 192.4375 C 64.761719 194.710938 65.296875 196.835938 66.339844 198.648438 L 88.535156 198.648438 Z M 77.515625 186.941406 C 80.429688 186.941406 81.398438 189.332031 81.398438 192.316406 C 81.398438 195.304688 80.550781 197.570312 77.515625 197.570312 C 74.476562 197.570312 73.628906 195.183594 73.628906 192.316406 C 73.628906 189.449219 74.476562 186.941406 77.515625 186.941406 Z M 77.515625 186.941406 " fill-opacity="1" fill-rule="nonzero"/><path fill="#febe10" d="M 264.191406 198.644531 C 262.066406 196.832031 259.097656 195.734375 255.363281 195.734375 C 251.695312 195.789062 248.796875 196.878906 246.703125 198.644531 Z M 264.191406 198.644531 " fill-opacity="1" fill-rule="nonzero"/><path fill="#febe10" d="M 244.34375 176.09375 C 243.277344 177.9375 242.730469 180.105469 242.730469 182.421875 C 242.730469 188.992188 247.226562 194.363281 255.484375 194.363281 C 263.742188 194.363281 268.117188 188.871094 268.117188 182.300781 C 268.117188 180.03125 267.582031 177.90625 266.539062 176.09375 Z M 255.363281 187.796875 C 252.449219 187.796875 251.480469 185.410156 251.480469 182.421875 C 251.480469 179.4375 252.328125 177.167969 255.363281 177.167969 C 258.402344 177.167969 259.25 179.554688 259.25 182.421875 C 259.25 185.289062 258.402344 187.796875 255.363281 187.796875 Z M 255.363281 187.796875 " fill-opacity="1" fill-rule="nonzero"/></svg>