<svg xmlns="http://www.w3.org/2000/svg" xmlns:xlink="http://www.w3.org/1999/xlink" width="500" zoomAndPan="magnify" viewBox="0 0 375 374.999991" height="500" preserveAspectRatio="xMidYMid meet" version="1.0"><defs><clipPath id="496a9eed4d"><path d="M 37.53125 165.339844 L 337.285156 165.339844 L 337.285156 209.589844 L 37.53125 209.589844 Z M 37.53125 165.339844 " clip-rule="nonzero"/></clipPath></defs><rect x="-37.5" width="450" fill="#ffffff" y="-37.499999" height="449.999989" fill-opacity="1"/><rect x="-37.5" width="450" fill="#df2025" y="-37.499999" height="449.999989" fill-opacity="1"/><g clip-path="url(#496a9eed4d)"><path fill="#ffffff" d="M 96.960938 167.292969 L 96.808594 166.960938 L 87.011719 166.960938 L 86.898438 167.222656 L 69.445312 207.183594 L 69.125 207.921875 L 87.125 207.921875 L 87.117188 207.46875 L 87.027344 201.46875 L 87.019531 200.925781 L 86.46875 200.925781 C 85.847656 200.925781 85.214844 200.570312 84.828125 200 C 84.480469 199.496094 84.402344 198.925781 84.617188 198.472656 L 85.683594 196.21875 L 99.464844 196.21875 L 100.632812 198.59375 C 100.917969 199.175781 100.929688 199.777344 100.660156 200.242188 C 100.410156 200.671875 99.941406 200.925781 99.375 200.925781 L 98.921875 200.925781 L 98.921875 201.371094 L 98.960938 207.371094 L 98.960938 207.921875 L 115.53125 207.921875 L 115.226562 207.253906 Z M 96.277344 188.699219 L 88.496094 188.699219 L 92.484375 180.324219 L 96.28125 188.699219 Z M 337.109375 196.265625 L 337.117188 196.808594 L 337.277344 207.484375 L 337.285156 207.9375 L 329.476562 207.9375 L 329.476562 207.710938 L 304.105469 207.710938 L 304.105469 207.160156 L 304.066406 201.160156 L 304.066406 200.710938 L 304.515625 200.710938 C 305.605469 200.710938 306.359375 199.96875 306.347656 198.910156 L 306.125 175.523438 C 306.125 175.09375 305.917969 174.65625 305.566406 174.308594 C 305.203125 173.953125 304.742188 173.75 304.289062 173.75 L 303.734375 173.75 L 303.734375 173.199219 L 303.695312 167.203125 L 303.695312 166.753906 L 318.660156 166.753906 L 318.667969 167.296875 L 318.757812 173.296875 L 318.765625 173.75 L 318.308594 173.75 C 317.171875 173.75 316.386719 174.523438 316.398438 175.628906 L 316.648438 199.175781 L 326.898438 199.175781 C 328.386719 199.175781 329.414062 198.164062 329.40625 196.714844 L 329.40625 196.265625 Z M 69.003906 193.769531 C 69.34375 201.855469 65.0625 208.097656 58.367188 209.304688 C 57.597656 209.445312 56.597656 209.488281 56.03125 209.507812 C 54.589844 209.5625 49.390625 209.753906 45.289062 207.46875 C 39.355469 204.160156 37.992188 196.945312 37.785156 195.753906 L 37.664062 195.386719 L 37.527344 194.976562 L 37.898438 194.8125 L 46.324219 191.085938 L 47.039062 190.773438 L 47.0625 191.578125 L 47.085938 192.425781 C 47.097656 192.828125 47.238281 194.921875 49.007812 196.53125 C 50.359375 197.765625 51.917969 198.023438 52.984375 198.023438 C 53.375 198.023438 53.6875 197.988281 53.878906 197.957031 C 56.144531 197.605469 57.738281 195.644531 57.949219 192.964844 L 58.015625 179.453125 C 58.019531 178.292969 57.488281 177.097656 56.554688 176.179688 C 55.617188 175.253906 54.390625 174.722656 53.203125 174.722656 L 52.074219 174.722656 L 52.074219 165.339844 L 69.242188 165.339844 C 69.160156 174.816406 69.078125 184.292969 69 193.769531 Z M 203.027344 209.378906 L 181.476562 209.378906 L 181.433594 200.953125 L 182.652344 200.953125 C 182.871094 200.953125 182.953125 200.828125 182.984375 200.75 C 183.046875 200.589844 182.996094 200.394531 182.84375 200.21875 L 176.21875 192.558594 L 171.972656 197.132812 C 171.597656 197.53125 171.394531 198.058594 171.40625 198.597656 C 171.410156 199.164062 171.679688 199.75 172.144531 200.207031 C 172.625 200.679688 173.238281 200.949219 173.839844 200.949219 L 174.386719 200.949219 L 174.394531 201.492188 L 174.488281 208.921875 L 174.496094 209.375 L 158.191406 209.375 L 158.191406 208.828125 L 158.152344 201.398438 L 158.152344 200.949219 L 158.601562 200.949219 C 160.121094 200.949219 161.214844 199.875 161.199219 198.390625 L 160.988281 176.261719 C 160.984375 175.710938 160.722656 175.144531 160.273438 174.703125 C 159.820312 174.261719 159.210938 173.984375 158.632812 173.984375 L 158.082031 173.984375 L 158.082031 173.4375 L 158.042969 167.4375 L 158.042969 166.988281 L 173.949219 166.988281 L 173.960938 167.535156 L 174.050781 173.53125 L 174.058594 173.984375 L 173.601562 173.984375 C 172.167969 173.984375 171.183594 174.960938 171.199219 176.355469 L 171.273438 184.523438 L 180.367188 174.664062 C 180.480469 174.542969 180.425781 174.382812 180.382812 174.300781 C 180.308594 174.15625 180.140625 173.984375 179.90625 173.984375 L 179.351562 173.984375 L 179.351562 173.4375 L 179.3125 167.4375 L 179.3125 166.988281 L 200.085938 166.988281 L 199.292969 167.847656 L 182.929688 185.566406 L 203.042969 209.378906 Z M 300.585938 167.535156 L 300.570312 173.53125 L 300.570312 173.984375 L 300.113281 173.984375 C 298.789062 173.984375 297.859375 174.886719 297.851562 176.179688 L 297.601562 207.496094 L 297.601562 207.949219 L 289.28125 207.949219 L 289.113281 207.738281 L 270.246094 183.824219 L 270.128906 197.949219 C 270.128906 198.675781 270.457031 199.425781 271.039062 200.007812 C 271.640625 200.609375 272.421875 200.953125 273.1875 200.953125 L 273.738281 200.953125 L 273.738281 201.496094 L 273.71875 207.496094 L 273.71875 207.949219 L 257.414062 207.949219 L 257.414062 207.402344 L 257.488281 201.402344 L 257.488281 200.953125 L 257.945312 200.953125 C 259.128906 200.953125 259.960938 200.148438 259.96875 198.996094 L 260.152344 176.007812 C 260.152344 175.523438 259.929688 175.019531 259.542969 174.625 C 259.140625 174.21875 258.613281 173.984375 258.097656 173.984375 L 257.546875 173.984375 L 257.546875 173.4375 L 257.617188 167.4375 L 257.617188 166.988281 L 268.597656 166.988281 L 268.765625 167.203125 L 287.628906 191.179688 L 287.757812 176.007812 C 287.757812 175.519531 287.535156 175.019531 287.148438 174.621094 C 286.742188 174.214844 286.21875 173.980469 285.703125 173.980469 L 285.148438 173.980469 L 285.148438 173.433594 L 285.222656 167.433594 L 285.222656 166.984375 L 300.585938 166.984375 Z M 238.402344 202.617188 C 237.152344 204.800781 235.136719 206.511719 232.414062 207.699219 C 229.742188 208.867188 226.457031 209.457031 222.648438 209.457031 C 220.429688 209.457031 218.195312 209.25 216.011719 208.839844 C 215.199219 208.6875 214.410156 208.511719 213.644531 208.316406 C 212.878906 208.125 212.171875 208.6875 212.171875 209.457031 L 205.167969 209.457031 L 205.167969 194.585938 L 212.171875 194.585938 C 212.171875 196.757812 213.636719 198.652344 215.730469 199.222656 C 216.332031 199.386719 216.878906 199.511719 217.371094 199.613281 C 217.796875 199.699219 219.589844 200.078125 221.972656 200.078125 C 223.585938 200.078125 224.953125 199.910156 226.03125 199.578125 C 227.023438 199.269531 227.738281 198.835938 228.152344 198.277344 C 228.535156 197.761719 228.65625 197.195312 228.535156 196.488281 C 228.421875 195.816406 228.105469 195.320312 227.546875 194.925781 C 226.84375 194.421875 225.917969 193.988281 224.796875 193.625 C 223.597656 193.238281 222.238281 192.847656 220.773438 192.472656 C 219.257812 192.089844 217.71875 191.625 216.199219 191.105469 C 214.628906 190.570312 213.136719 189.882812 211.765625 189.066406 C 210.320312 188.210938 209.078125 187.101562 208.074219 185.765625 C 207.050781 184.410156 206.355469 182.71875 206.011719 180.726562 C 205.496094 177.78125 205.867188 175.167969 207.113281 172.960938 C 208.34375 170.773438 210.347656 169.070312 213.058594 167.894531 C 215.714844 166.746094 218.988281 166.164062 222.796875 166.164062 C 224.621094 166.164062 227.558594 166.554688 229.363281 166.824219 C 230.1875 166.949219 230.929688 166.308594 230.929688 165.476562 L 237.9375 165.476562 L 237.9375 180.34375 L 230.929688 180.34375 C 230.929688 178.144531 229.335938 176.261719 227.164062 175.902344 C 225.847656 175.6875 224.722656 175.59375 223.820312 175.554688 C 223.511719 175.539062 221.636719 175.433594 219.632812 176.132812 C 218.601562 176.488281 217.855469 176.976562 217.425781 177.574219 C 217.015625 178.144531 216.867188 178.742188 216.960938 179.445312 C 217.070312 180.0625 217.410156 180.574219 217.996094 181 C 218.722656 181.53125 219.660156 181.984375 220.792969 182.347656 C 222.023438 182.738281 223.386719 183.136719 224.84375 183.535156 C 226.316406 183.929688 227.832031 184.375 229.347656 184.859375 C 230.914062 185.359375 232.40625 186.015625 233.785156 186.8125 C 235.222656 187.648438 236.46875 188.726562 237.484375 190.015625 C 238.523438 191.34375 239.21875 192.964844 239.550781 194.847656 C 240.0625 197.792969 239.683594 200.410156 238.417969 202.621094 Z M 151.9375 203.4375 C 151.9375 203.4375 147.992188 206.917969 145.515625 207.898438 C 142.671875 209.019531 139.417969 209.589844 135.847656 209.589844 C 131.636719 209.589844 127.859375 208.816406 124.609375 207.292969 C 121.332031 205.757812 118.679688 203.601562 116.730469 200.871094 C 114.78125 198.148438 113.597656 194.933594 113.21875 191.308594 C 112.851562 187.808594 113.136719 184.492188 114.0625 181.453125 C 114.992188 178.402344 116.5 175.722656 118.550781 173.480469 C 120.597656 171.242188 123.164062 169.46875 126.175781 168.203125 C 130.964844 166.191406 135.117188 166.234375 136.5 166.304688 C 139.992188 166.480469 142.835938 167.429688 144.828125 168.335938 C 145.765625 168.761719 146.824219 168.054688 146.804688 167.023438 L 153.808594 167.023438 L 153.808594 183.019531 L 146.804688 183.019531 C 146.804688 181.644531 146.261719 180.3125 145.269531 179.351562 C 144.5 178.605469 143.488281 177.824219 142.191406 177.207031 C 139.933594 176.132812 137.925781 176.085938 136.789062 176.085938 C 134.691406 176.085938 132.808594 176.460938 131.199219 177.199219 C 129.589844 177.9375 128.234375 178.972656 127.160156 180.285156 C 126.085938 181.601562 125.3125 183.152344 124.859375 184.898438 C 124.398438 186.664062 124.277344 188.59375 124.488281 190.632812 C 124.683594 192.472656 125.246094 194.09375 126.160156 195.449219 C 127.0625 196.789062 128.332031 197.859375 129.941406 198.628906 C 131.578125 199.414062 133.523438 199.808594 135.722656 199.808594 C 137.636719 199.808594 139.410156 199.453125 140.988281 198.753906 C 141.613281 198.476562 142.210938 198.132812 142.78125 197.726562 C 143.824219 196.980469 143.964844 195.484375 143.058594 194.578125 L 147.035156 190.609375 L 155.910156 199.472656 L 151.933594 203.445312 Z M 254.683594 203.039062 C 254.683594 206.585938 251.804688 209.460938 248.253906 209.460938 C 244.699219 209.460938 241.824219 206.585938 241.824219 203.039062 C 241.824219 199.492188 244.699219 196.617188 248.253906 196.617188 C 251.804688 196.617188 254.683594 199.492188 254.683594 203.039062 Z M 254.683594 203.039062 " fill-opacity="1" fill-rule="nonzero"/></g></svg>