<svg xmlns="http://www.w3.org/2000/svg" xmlns:xlink="http://www.w3.org/1999/xlink" width="500" zoomAndPan="magnify" viewBox="0 0 375 374.999991" height="500" preserveAspectRatio="xMidYMid meet" version="1.0"><defs><clipPath id="ec1177f5e8"><path d="M 69 92.484375 L 289 92.484375 L 289 259 L 69 259 Z M 69 92.484375 " clip-rule="nonzero"/></clipPath><clipPath id="55b4842b77"><path d="M 37.5 117 L 97 117 L 97 144 L 37.5 144 Z M 37.5 117 " clip-rule="nonzero"/></clipPath><clipPath id="263ad9ec93"><path d="M 330 248 L 337.5 248 L 337.5 260 L 330 260 Z M 330 248 " clip-rule="nonzero"/></clipPath></defs><rect x="-37.5" width="450" fill="#ffffff" y="-37.499999" height="449.999989" fill-opacity="1"/><rect x="-37.5" width="450" fill="#000000" y="-37.499999" height="449.999989" fill-opacity="1"/><g clip-path="url(#ec1177f5e8)"><path fill="#262121" d="M 120.863281 92.230469 C 124.410156 92.230469 127.957031 92.230469 131.503906 92.230469 C 137.507812 93.339844 142.152344 96.546875 145.441406 101.84375 C 148.042969 108.527344 146.101562 113.335938 139.613281 116.265625 C 141.386719 117.445312 142.90625 118.878906 144.171875 120.566406 C 144.777344 122.480469 145.117188 122.480469 145.1875 120.566406 C 145.90625 118.917969 147.089844 117.652344 148.734375 116.769531 C 153.125 115.757812 157.515625 115.757812 161.910156 116.769531 C 163.671875 118.109375 165.363281 119.542969 166.976562 121.070312 C 172.066406 116.597656 177.976562 114.824219 184.710938 115.757812 C 188.1875 116.699219 190.976562 118.636719 193.074219 121.578125 C 196.679688 112.714844 200.144531 103.777344 203.460938 94.761719 C 208.515625 94.082031 213.582031 93.828125 218.664062 94 C 223.46875 95.914062 225.410156 99.375 224.492188 104.375 C 223.496094 106.347656 222.820312 108.371094 222.464844 110.445312 C 223.449219 109.128906 224.714844 108.199219 226.265625 107.664062 C 234.816406 105.988281 241.574219 108.605469 246.535156 115.507812 C 249.277344 110.851562 253.332031 109.082031 258.699219 110.191406 C 267.292969 113.097656 270.757812 119.082031 269.085938 128.15625 C 265.019531 139.203125 259.363281 149.324219 252.109375 158.515625 C 249.386719 161.085938 247.023438 163.949219 245.015625 167.117188 C 242.367188 169.871094 239.835938 172.738281 237.414062 175.71875 C 232.09375 181.789062 225.929688 186.847656 218.917969 190.898438 C 219.785156 192.8125 220.542969 194.835938 221.199219 196.972656 C 225.476562 196.152344 229.699219 196.320312 233.867188 197.476562 C 237.074219 196.183594 240.28125 196.183594 243.496094 197.476562 C 242.972656 192.347656 245.253906 189.3125 250.335938 188.371094 C 255.105469 188.996094 257.722656 191.695312 258.191406 196.464844 C 259.683594 196.539062 261.117188 196.878906 262.5 197.476562 C 265.515625 196.136719 268.46875 196.304688 271.367188 197.984375 C 271.832031 197.960938 272.167969 197.792969 272.378906 197.476562 C 281.824219 194.851562 287.058594 198.394531 288.089844 208.105469 C 287.652344 212.113281 286.300781 215.824219 284.035156 219.234375 C 279.742188 223.089844 274.929688 223.765625 269.59375 221.261719 C 266.09375 222.976562 262.546875 223.144531 258.953125 221.765625 C 256.058594 222.421875 253.1875 222.421875 250.335938 221.765625 C 247.023438 223.242188 243.8125 223.074219 240.707031 221.261719 C 237.046875 223.027344 233.328125 223.195312 229.558594 221.765625 C 226.835938 223.046875 224.132812 223.046875 221.453125 221.765625 C 219.933594 222.480469 218.328125 222.984375 216.636719 223.285156 C 211.21875 231.863281 204.125 233.636719 195.355469 228.597656 C 193.039062 226.414062 191.433594 223.800781 190.539062 220.753906 C 190.648438 228.679688 190.648438 236.605469 190.539062 244.535156 C 188.136719 255.183594 181.464844 259.652344 170.523438 257.945312 C 163.851562 256.679688 159.882812 252.714844 158.617188 246.054688 C 158.007812 240.546875 158.515625 235.148438 160.136719 229.863281 C 165.480469 215.058594 172.488281 201.144531 181.164062 188.117188 C 174.53125 187.628906 167.941406 187.800781 161.402344 188.625 C 159.359375 192.496094 158.175781 196.628906 157.855469 201.019531 C 152.945312 201.1875 148.046875 201.019531 143.160156 200.515625 C 143.972656 196.320312 144.144531 192.101562 143.667969 187.863281 C 137.023438 189.957031 130.4375 189.707031 123.902344 187.105469 C 120.160156 185.238281 116.613281 183.132812 113.261719 180.78125 C 109.050781 176.152344 104.914062 171.429688 100.847656 166.613281 C 99.03125 164.460938 96.917969 162.691406 94.511719 161.300781 C 93.496094 160.960938 92.484375 160.960938 91.472656 161.300781 C 88.371094 165.292969 84.316406 167.570312 79.308594 168.128906 C 77.640625 168.234375 76.117188 167.8125 74.75 166.863281 C 69.558594 163.277344 68.292969 158.636719 70.949219 152.949219 C 74.378906 149 78.683594 146.554688 83.871094 145.613281 C 84.964844 145.109375 85.808594 144.351562 86.402344 143.335938 C 89.476562 139.726562 91.332031 135.507812 91.976562 130.6875 C 93.820312 126.851562 95.171875 122.804688 96.03125 118.542969 C 97.628906 111.980469 100.585938 106.078125 104.898438 100.832031 C 109.496094 96.554688 114.816406 93.6875 120.863281 92.230469 Z M 124.917969 119.046875 C 124.578125 119.046875 124.242188 119.046875 123.902344 119.046875 C 124.652344 116.042969 125.75 113.175781 127.195312 110.445312 C 128.988281 112.402344 130.929688 114.175781 133.023438 115.757812 C 130.109375 116.460938 127.40625 117.554688 124.917969 119.046875 Z M 221.707031 111.457031 C 221.699219 112.492188 221.53125 113.503906 221.199219 114.492188 C 221.789062 117.355469 222.296875 120.222656 222.71875 123.097656 C 221.339844 121.808594 219.820312 120.625 218.160156 119.554688 C 219.351562 116.804688 220.535156 114.105469 221.707031 111.457031 Z M 225.253906 145.359375 C 224.027344 145.167969 222.84375 144.832031 221.707031 144.347656 C 222.90625 143.699219 224.003906 142.855469 225 141.816406 C 225.25 142.988281 225.335938 144.167969 225.253906 145.359375 Z M 196.875 190.898438 C 197.855469 191.230469 198.867188 191.398438 199.914062 191.40625 C 197.691406 193.882812 195.75 196.582031 194.085938 199.503906 C 194.648438 196.554688 195.578125 193.6875 196.875 190.898438 Z M 208.53125 203.550781 C 209.460938 204.394531 210.476562 205.152344 211.570312 205.828125 C 210.613281 207.679688 209.855469 209.617188 209.289062 211.644531 C 207.269531 212.984375 206.089844 214.839844 205.742188 217.210938 C 205.574219 215.507812 205.746094 213.824219 206.25 212.152344 C 206.960938 209.261719 207.722656 206.394531 208.53125 203.550781 Z M 208.53125 203.550781 " fill-opacity="0.998" fill-rule="evenodd"/></g><path fill="#2d2322" d="M 128.464844 102.855469 C 126.433594 103.09375 124.832031 104.105469 123.648438 105.890625 C 120.140625 113.875 116.929688 121.96875 114.019531 130.179688 C 111.941406 136.28125 108.644531 141.59375 104.140625 146.117188 C 102.183594 147.515625 100.15625 148.78125 98.058594 149.914062 C 96.511719 150.003906 94.992188 150.089844 93.496094 150.167969 C 98.527344 147.785156 102.835938 144.496094 106.421875 140.300781 C 111.78125 130.4375 116.171875 120.148438 119.59375 109.433594 C 120.417969 107.304688 121.429688 105.28125 122.636719 103.363281 C 124.570312 100.988281 126.511719 100.820312 128.464844 102.855469 Z M 128.464844 102.855469 " fill-opacity="1" fill-rule="evenodd"/><path fill="#2d2222" d="M 217.652344 101.84375 C 218.160156 101.84375 218.664062 101.84375 219.171875 101.84375 C 215.152344 112.703125 210.929688 123.5 206.503906 134.226562 C 205.480469 135.917969 204.214844 137.433594 202.703125 138.78125 C 202.363281 138.277344 202.363281 137.769531 202.703125 137.265625 C 207.648438 125.386719 212.632812 113.578125 217.652344 101.84375 Z M 217.652344 101.84375 " fill-opacity="1" fill-rule="evenodd"/><path fill="#2d2424" d="M 140.117188 104.375 C 140.429688 104.429688 140.683594 104.597656 140.878906 104.878906 C 142.113281 108.457031 140.929688 110.652344 137.332031 111.457031 C 136.167969 111.277344 135.238281 110.769531 134.542969 109.941406 C 138.253906 109.949219 140.109375 108.09375 140.117188 104.375 Z M 140.117188 104.375 " fill-opacity="1" fill-rule="evenodd"/><path fill="#d1d0d0" d="M 218.160156 100.832031 C 219.96875 100.785156 220.558594 101.628906 219.933594 103.363281 C 215.980469 112.765625 212.179688 122.210938 208.53125 131.699219 C 207.96875 132.652344 207.296875 133.496094 206.503906 134.226562 C 210.929688 123.5 215.152344 112.703125 219.171875 101.84375 C 218.664062 101.84375 218.160156 101.84375 217.652344 101.84375 C 217.5625 101.34375 217.734375 101.003906 218.160156 100.832031 Z M 218.160156 100.832031 " fill-opacity="1" fill-rule="evenodd"/><path fill="#dd330b" d="M 139.105469 101.84375 C 139.304688 102.746094 139.640625 103.589844 140.117188 104.375 C 140.109375 108.09375 138.253906 109.949219 134.542969 109.941406 C 133.984375 109.910156 133.476562 109.742188 133.023438 109.433594 C 130.710938 108.371094 129.53125 106.515625 129.476562 103.867188 C 129.308594 103.363281 128.96875 103.023438 128.464844 102.855469 C 126.511719 100.820312 124.570312 100.988281 122.636719 103.363281 C 121.429688 105.28125 120.417969 107.304688 119.59375 109.433594 C 116.171875 120.148438 111.78125 130.4375 106.421875 140.300781 C 102.835938 144.496094 98.527344 147.785156 93.496094 150.167969 C 94.992188 150.089844 96.511719 150.003906 98.058594 149.914062 C 98.417969 150.371094 98.925781 150.539062 99.578125 150.421875 C 106.675781 150.421875 112.417969 153.121094 116.808594 158.515625 C 116.929688 159.480469 117.4375 160.15625 118.328125 160.539062 C 120.992188 165.359375 124.035156 169.914062 127.449219 174.203125 C 127.414062 174.976562 127.75 175.480469 128.464844 175.71875 C 130.058594 178.035156 132.253906 178.960938 135.050781 178.503906 C 135.457031 176.269531 135.710938 173.992188 135.8125 171.671875 C 138.675781 167.175781 141.804688 167.007812 145.1875 171.167969 C 145.152344 171.90625 145.320312 172.578125 145.691406 173.191406 C 145.691406 177.332031 143.832031 180.285156 140.117188 182.046875 C 137.957031 182.558594 135.761719 182.8125 133.53125 182.804688 C 131.355469 182.917969 129.328125 182.578125 127.449219 181.792969 C 126.773438 181.792969 126.097656 181.792969 125.421875 181.792969 C 122.324219 180.667969 119.453125 179.148438 116.808594 177.238281 C 114.3125 175.507812 112.03125 173.484375 109.96875 171.167969 C 106.589844 166.867188 102.960938 162.820312 99.070312 159.023438 C 97.832031 157.617188 96.308594 156.605469 94.511719 155.984375 C 94.300781 155.621094 93.960938 155.367188 93.496094 155.226562 C 91.640625 154.890625 89.78125 154.890625 87.921875 155.226562 C 85.066406 158.6875 81.519531 160.964844 77.28125 162.058594 C 76.945312 162.058594 76.605469 162.058594 76.269531 162.058594 C 73.515625 160.335938 73.09375 158.140625 75 155.480469 C 75.949219 154.363281 77.046875 153.433594 78.296875 152.695312 C 81.300781 151.414062 84.34375 150.234375 87.417969 149.15625 C 89.378906 147.367188 91.152344 145.425781 92.738281 143.335938 C 96.554688 132.75 100.269531 122.121094 103.886719 111.457031 C 110.855469 98.960938 121.242188 94.660156 135.050781 98.554688 C 136.738281 99.304688 138.089844 100.398438 139.105469 101.84375 Z M 139.105469 101.84375 " fill-opacity="1" fill-rule="evenodd"/><path fill="#fec430" d="M 127.449219 181.792969 C 118.09375 178.113281 110.578125 172.039062 104.898438 163.574219 C 102.078125 160.417969 98.953125 157.632812 95.523438 155.226562 C 92.910156 154.148438 90.207031 153.8125 87.417969 154.214844 C 85.207031 156.757812 82.675781 158.949219 79.816406 160.792969 C 78.464844 161.128906 77.113281 161.128906 75.761719 160.792969 C 74.28125 158.527344 74.621094 156.5 76.773438 154.722656 C 80.0625 152.613281 83.609375 151.097656 87.417969 150.167969 C 89.527344 148.734375 91.300781 146.960938 92.738281 144.855469 C 96.921875 134.175781 100.808594 123.378906 104.394531 112.46875 C 110.273438 100.890625 119.648438 96.25 132.519531 98.554688 C 135.363281 99.203125 137.472656 100.804688 138.851562 103.363281 C 139.332031 107.773438 137.390625 109.542969 133.023438 108.675781 C 132.519531 108.253906 132.011719 107.832031 131.503906 107.410156 C 130.902344 105.355469 130.058594 103.417969 128.96875 101.589844 C 126.046875 100.226562 123.597656 100.816406 121.621094 103.363281 C 118.355469 110.453125 115.480469 117.707031 113.007812 125.121094 C 110.476562 132.527344 106.507812 139.019531 101.097656 144.601562 C 97.640625 146.625 94.261719 148.734375 90.964844 150.925781 C 96.039062 150.664062 101.105469 151.085938 106.167969 152.191406 C 110.996094 153.808594 114.796875 156.757812 117.570312 161.046875 C 120.609375 165.769531 123.648438 170.492188 126.691406 175.214844 C 128.171875 177.03125 129.945312 178.464844 132.011719 179.515625 C 133.574219 179.945312 135.011719 179.691406 136.316406 178.757812 C 136.652344 177.050781 136.570312 175.363281 136.066406 173.695312 C 136.765625 169.691406 138.960938 168.425781 142.652344 169.902344 C 145.28125 173.054688 145.28125 176.257812 142.652344 179.515625 C 137.917969 182.234375 132.847656 182.992188 127.449219 181.792969 Z M 127.449219 181.792969 " fill-opacity="1" fill-rule="evenodd"/><path fill="#d3cfcf" d="M 139.105469 101.84375 C 142.894531 104.957031 143.0625 108.246094 139.613281 111.710938 C 137.707031 112.085938 135.847656 111.914062 134.039062 111.203125 C 133.367188 110.792969 133.03125 110.203125 133.023438 109.433594 C 133.476562 109.742188 133.984375 109.910156 134.542969 109.941406 C 135.238281 110.769531 136.167969 111.277344 137.332031 111.457031 C 140.929688 110.652344 142.113281 108.457031 140.878906 104.878906 C 140.683594 104.597656 140.429688 104.429688 140.117188 104.375 C 139.640625 103.589844 139.304688 102.746094 139.105469 101.84375 Z M 139.105469 101.84375 " fill-opacity="1" fill-rule="evenodd"/><g clip-path="url(#55b4842b77)"><path fill="#ec1d02" d="M 96.03125 118.542969 C 95.171875 122.804688 93.820312 126.851562 91.976562 130.6875 C 86.996094 130.195312 82.011719 129.691406 77.027344 129.167969 C 64.136719 130.59375 52.058594 134.554688 40.796875 141.058594 C 40.375 142.066406 39.699219 142.828125 38.769531 143.335938 C 38.164062 142.519531 37.65625 141.675781 37.25 140.804688 C 37.25 138.613281 37.25 136.421875 37.25 134.226562 C 38.257812 132.109375 39.609375 130.171875 41.300781 128.410156 C 52.417969 121.8125 64.414062 118.019531 77.28125 117.023438 C 83.539062 117.496094 89.789062 118.003906 96.03125 118.542969 Z M 96.03125 118.542969 " fill-opacity="0.999" fill-rule="evenodd"/></g><path fill="#cc210e" d="M 123.902344 119.046875 C 124.242188 119.046875 124.578125 119.046875 124.917969 119.046875 C 124.503906 119.722656 123.910156 120.230469 123.144531 120.566406 C 122.847656 119.808594 123.101562 119.300781 123.902344 119.046875 Z M 123.902344 119.046875 " fill-opacity="0.573" fill-rule="evenodd"/><path fill="#d62714" d="M 144.171875 120.566406 C 144.511719 120.566406 144.847656 120.566406 145.1875 120.566406 C 145.117188 122.480469 144.777344 122.480469 144.171875 120.566406 Z M 144.171875 120.566406 " fill-opacity="0.239" fill-rule="evenodd"/><path fill="#2c2323" d="M 262.753906 120.058594 C 263.117188 120.269531 263.371094 120.609375 263.511719 121.070312 C 263.851562 123.265625 263.851562 125.457031 263.511719 127.648438 C 260.683594 135.660156 256.796875 143.082031 251.855469 149.914062 C 244.617188 160.355469 236.425781 170.050781 227.28125 179.007812 C 223.285156 182.773438 218.722656 185.640625 213.597656 187.609375 C 211.402344 187.949219 209.207031 187.949219 207.011719 187.609375 C 206.546875 187.46875 206.207031 187.21875 205.996094 186.851562 C 211.503906 186.800781 216.402344 185.03125 220.691406 181.539062 C 237.566406 166.714844 250.996094 149.257812 260.980469 129.167969 C 262.214844 126.253906 262.808594 123.214844 262.753906 120.058594 Z M 262.753906 120.058594 " fill-opacity="1" fill-rule="evenodd"/><path fill="#2d2222" d="M 159.882812 124.109375 C 160.632812 123.976562 161.304688 124.144531 161.910156 124.613281 C 158.664062 133.832031 155.621094 143.109375 152.789062 152.445312 C 151.898438 152.484375 151.394531 152.0625 151.265625 151.179688 C 153.992188 142.09375 156.863281 133.070312 159.882812 124.109375 Z M 159.882812 124.109375 " fill-opacity="1" fill-rule="evenodd"/><path fill="#2f2727" d="M 188.261719 125.121094 C 190.613281 128.371094 189.851562 130.734375 185.980469 132.203125 C 184.789062 132.246094 184.027344 131.742188 183.699219 130.6875 C 186.761719 130.15625 188.28125 128.300781 188.261719 125.121094 Z M 188.261719 125.121094 " fill-opacity="1" fill-rule="evenodd"/><path fill="#e21b02" d="M 122.890625 131.191406 C 121.539062 131.191406 120.1875 131.191406 118.835938 131.191406 C 119.542969 129.160156 120.300781 127.136719 121.117188 125.121094 C 121.664062 126.382812 122.339844 127.5625 123.144531 128.660156 C 123.539062 129.617188 123.453125 130.460938 122.890625 131.191406 Z M 122.890625 131.191406 " fill-opacity="1" fill-rule="evenodd"/><path fill="#811d11" d="M 125.929688 124.613281 C 125.929688 125.121094 125.929688 125.625 125.929688 126.132812 C 126.738281 125.996094 127.414062 126.164062 127.957031 126.636719 C 126.488281 126.828125 125.136719 126.574219 123.902344 125.878906 C 124.730469 125.636719 125.40625 125.214844 125.929688 124.613281 Z M 125.929688 124.613281 " fill-opacity="1" fill-rule="evenodd"/><path fill="#302322" d="M 179.644531 127.144531 C 178.820312 127.714844 178.058594 128.386719 177.363281 129.167969 C 173.449219 136.085938 171.675781 143.507812 172.042969 151.433594 C 171.300781 151.003906 170.878906 150.328125 170.777344 149.40625 C 170.128906 141.226562 171.988281 133.636719 176.351562 126.636719 C 177.644531 125.867188 178.742188 126.039062 179.644531 127.144531 Z M 179.644531 127.144531 " fill-opacity="1" fill-rule="evenodd"/><path fill="#a8a7a7" d="M 127.957031 126.636719 C 128.429688 127.179688 128.597656 127.851562 128.464844 128.660156 C 127.714844 128.792969 127.039062 128.625 126.4375 128.15625 C 127.191406 127.832031 127.699219 127.324219 127.957031 126.636719 Z M 127.957031 126.636719 " fill-opacity="1" fill-rule="evenodd"/><path fill="#fdfcfc" d="M 91.976562 130.6875 C 91.332031 135.507812 89.476562 139.726562 86.402344 143.335938 C 77.710938 142.050781 69.265625 142.976562 61.066406 146.117188 C 55.195312 148.355469 49.453125 150.882812 43.835938 153.710938 C 42.074219 154.800781 40.722656 156.234375 39.78125 158.011719 C 40.277344 156.363281 40.617188 154.675781 40.796875 152.949219 C 40.117188 149.738281 39.441406 146.53125 38.769531 143.335938 C 39.699219 142.828125 40.375 142.066406 40.796875 141.058594 C 52.058594 134.554688 64.136719 130.59375 77.027344 129.167969 C 82.011719 129.691406 86.996094 130.195312 91.976562 130.6875 Z M 91.976562 130.6875 " fill-opacity="0.996" fill-rule="evenodd"/><path fill="#dedbda" d="M 187.753906 123.601562 C 191.089844 126.453125 191.089844 129.40625 187.753906 132.457031 C 186.402344 132.792969 185.050781 132.792969 183.699219 132.457031 C 183.027344 132.042969 182.691406 131.453125 182.6875 130.6875 C 183.023438 130.6875 183.363281 130.6875 183.699219 130.6875 C 184.027344 131.742188 184.789062 132.246094 185.980469 132.203125 C 189.851562 130.734375 190.613281 128.371094 188.261719 125.121094 C 187.949219 124.667969 187.78125 124.164062 187.753906 123.601562 Z M 187.753906 123.601562 " fill-opacity="1" fill-rule="evenodd"/><path fill="#f5f4f5" d="M 118.835938 131.191406 C 120.1875 131.191406 121.539062 131.191406 122.890625 131.191406 C 121.34375 135.796875 119.65625 140.351562 117.820312 144.855469 C 115.792969 144.855469 113.769531 144.855469 111.742188 144.855469 C 114.242188 140.363281 116.609375 135.808594 118.835938 131.191406 Z M 118.835938 131.191406 " fill-opacity="1" fill-rule="evenodd"/><path fill="#de2f09" d="M 187.753906 123.601562 C 187.78125 124.164062 187.949219 124.667969 188.261719 125.121094 C 188.28125 128.300781 186.761719 130.15625 183.699219 130.6875 C 183.363281 130.6875 183.023438 130.6875 182.6875 130.6875 C 181.347656 130.359375 180.5 129.515625 180.152344 128.15625 C 179.984375 127.820312 179.8125 127.480469 179.644531 127.144531 C 178.742188 126.039062 177.644531 125.867188 176.351562 126.636719 C 171.988281 133.636719 170.128906 141.226562 170.777344 149.40625 C 170.878906 150.328125 171.300781 151.003906 172.042969 151.433594 C 172.21875 151.855469 172.554688 152.023438 173.058594 151.9375 C 176.246094 151.863281 178.949219 150.683594 181.164062 148.394531 C 182.234375 148.957031 182.910156 149.796875 183.191406 150.925781 C 182.515625 151.261719 182.011719 151.769531 181.671875 152.445312 C 177.515625 156.710938 172.445312 158.734375 166.46875 158.515625 C 165.625 158.179688 164.78125 157.839844 163.9375 157.503906 C 159.589844 154.152344 158.15625 149.765625 159.628906 144.347656 C 161.445312 136.253906 165.414062 129.421875 171.539062 123.855469 C 175.226562 120.78125 179.449219 119.765625 184.207031 120.820312 C 185.773438 121.292969 186.957031 122.21875 187.753906 123.601562 Z M 187.753906 123.601562 " fill-opacity="1" fill-rule="evenodd"/><path fill="#fec230" d="M 178.125 121.070312 C 181.070312 120.703125 183.773438 121.296875 186.234375 122.84375 C 188.167969 126.316406 187.324219 128.761719 183.699219 130.179688 C 182.84375 130.046875 182.085938 129.710938 181.417969 129.167969 C 180.949219 126.324219 179.34375 125.058594 176.605469 125.375 C 171.289062 132.703125 169.175781 140.882812 170.269531 149.914062 C 170.488281 151.902344 171.585938 152.914062 173.5625 152.949219 C 176.527344 152.640625 179.0625 151.460938 181.164062 149.40625 C 181.671875 149.578125 182.011719 149.914062 182.179688 150.421875 C 177.214844 156.824219 170.960938 158.765625 163.429688 156.238281 C 159.632812 151.972656 158.871094 147.167969 161.148438 141.816406 C 163.71875 132.265625 169.375 125.347656 178.125 121.070312 Z M 178.125 121.070312 " fill-opacity="1" fill-rule="evenodd"/><path fill="#2c2323" d="M 224.746094 132.710938 C 225.496094 132.578125 226.171875 132.746094 226.773438 133.214844 C 225.683594 134.558594 224.5 135.824219 223.226562 137.011719 C 219.65625 139.546875 215.941406 141.65625 212.078125 143.335938 C 211.582031 142.695312 211.074219 142.019531 210.558594 141.3125 C 215.9375 139.472656 220.667969 136.605469 224.746094 132.710938 Z M 224.746094 132.710938 " fill-opacity="1" fill-rule="evenodd"/><path fill="#d0cfcf" d="M 179.644531 127.144531 C 179.8125 127.480469 179.984375 127.820312 180.152344 128.15625 C 179.382812 128.160156 178.792969 128.5 178.378906 129.167969 C 174.148438 136.191406 172.371094 143.78125 173.058594 151.9375 C 172.554688 152.023438 172.21875 151.855469 172.042969 151.433594 C 171.675781 143.507812 173.449219 136.085938 177.363281 129.167969 C 178.058594 128.386719 178.820312 127.714844 179.644531 127.144531 Z M 179.644531 127.144531 " fill-opacity="1" fill-rule="evenodd"/><path fill="#e61d03" d="M 184.710938 144.347656 C 182.636719 143.449219 180.441406 142.773438 178.125 142.324219 C 178.320312 139.632812 179.078125 137.101562 180.40625 134.734375 C 182.582031 136.285156 185.03125 137.128906 187.753906 137.265625 C 186.824219 139.71875 185.8125 142.078125 184.710938 144.347656 Z M 184.710938 144.347656 " fill-opacity="1" fill-rule="evenodd"/><path fill="#d5d3d3" d="M 128.464844 102.855469 C 128.96875 103.023438 129.308594 103.363281 129.476562 103.867188 C 127.402344 103.464844 125.796875 104.140625 124.664062 105.890625 C 123.648438 107.917969 122.636719 109.941406 121.621094 111.964844 C 118.3125 122.726562 113.921875 133.015625 108.445312 142.828125 C 105.839844 145.859375 102.886719 148.390625 99.578125 150.421875 C 98.925781 150.539062 98.417969 150.371094 98.058594 149.914062 C 100.15625 148.78125 102.183594 147.515625 104.140625 146.117188 C 108.644531 141.59375 111.941406 136.28125 114.019531 130.179688 C 116.929688 121.96875 120.140625 113.875 123.648438 105.890625 C 124.832031 104.105469 126.433594 103.09375 128.464844 102.855469 Z M 128.464844 102.855469 " fill-opacity="1" fill-rule="evenodd"/><path fill="#dcd7d6" d="M 224.746094 132.710938 C 224.746094 132.371094 224.914062 132.203125 225.253906 132.203125 C 227.839844 132.0625 228.347656 132.988281 226.773438 134.988281 C 224.914062 136.503906 223.058594 138.023438 221.199219 139.542969 C 218.480469 141.027344 215.777344 142.460938 213.089844 143.84375 C 214.976562 146.894531 216.835938 149.933594 218.664062 152.949219 C 216.09375 150.011719 213.898438 146.808594 212.078125 143.335938 C 215.941406 141.65625 219.65625 139.546875 223.226562 137.011719 C 224.5 135.824219 225.683594 134.558594 226.773438 133.214844 C 226.171875 132.746094 225.496094 132.578125 224.746094 132.710938 Z M 224.746094 132.710938 " fill-opacity="1" fill-rule="evenodd"/><path fill="#c9c6c6" d="M 160.390625 123.097656 C 162.277344 123.238281 162.867188 124.25 162.164062 126.132812 C 159.320312 134.898438 156.535156 143.667969 153.800781 152.445312 C 153.464844 152.445312 153.125 152.445312 152.789062 152.445312 C 155.621094 143.109375 158.664062 133.832031 161.910156 124.613281 C 161.304688 124.144531 160.632812 123.976562 159.882812 124.109375 C 159.796875 123.605469 159.964844 123.269531 160.390625 123.097656 Z M 160.390625 123.097656 " fill-opacity="1" fill-rule="evenodd"/><path fill="#df340c" d="M 139.105469 122.589844 C 139.132812 123.152344 139.304688 123.65625 139.613281 124.109375 C 139.304688 127.253906 138.542969 130.289062 137.332031 133.214844 C 135.472656 137.9375 133.617188 142.660156 131.757812 147.382812 C 131.316406 148.839844 131.484375 150.191406 132.265625 151.433594 C 132.628906 151.15625 132.882812 150.820312 133.023438 150.421875 C 133.859375 150.261719 134.363281 149.757812 134.542969 148.902344 C 138.121094 145.585938 141.246094 141.875 143.917969 137.769531 C 146.148438 132.445312 148.175781 127.046875 150 121.578125 C 153.253906 121 156.546875 120.914062 159.882812 121.324219 C 160.304688 121.835938 160.476562 122.425781 160.390625 123.097656 C 159.964844 123.269531 159.796875 123.605469 159.882812 124.109375 C 156.863281 133.070312 153.992188 142.09375 151.265625 151.179688 C 151.394531 152.0625 151.898438 152.484375 152.789062 152.445312 C 153.125 152.445312 153.464844 152.445312 153.800781 152.445312 C 153.800781 153.117188 153.800781 153.792969 153.800781 154.46875 C 153.632812 154.46875 153.464844 154.46875 153.292969 154.46875 C 150.363281 156.269531 147.320312 157.789062 144.171875 159.023438 C 143.835938 159.023438 143.496094 159.023438 143.160156 159.023438 C 142.039062 158.757812 141.28125 158.082031 140.878906 157 C 140.628906 155.660156 140.542969 154.308594 140.625 152.949219 C 141.101562 152.164062 141.441406 151.324219 141.640625 150.421875 C 142.246094 148.941406 142.75 147.425781 143.160156 145.867188 C 143.964844 144.664062 144.300781 143.484375 144.171875 142.324219 C 142.457031 144.871094 140.769531 147.402344 139.105469 149.914062 C 136.824219 152.105469 134.460938 154.214844 132.011719 156.238281 C 129.699219 157.769531 127.164062 158.527344 124.410156 158.515625 C 124.070312 158.515625 123.734375 158.515625 123.394531 158.515625 C 120.679688 157.140625 119.582031 154.945312 120.101562 151.9375 C 122.753906 144.121094 125.539062 136.359375 128.464844 128.660156 C 128.597656 127.851562 128.429688 127.179688 127.957031 126.636719 C 127.414062 126.164062 126.738281 125.996094 125.929688 126.132812 C 125.929688 125.625 125.929688 125.121094 125.929688 124.613281 C 126.984375 123.324219 128.332031 122.394531 129.984375 121.832031 C 131.828125 121.191406 133.683594 120.597656 135.558594 120.058594 C 137.1875 120.34375 138.367188 121.1875 139.105469 122.589844 Z M 139.105469 122.589844 " fill-opacity="1" fill-rule="evenodd"/><path fill="#fec430" d="M 134.039062 121.070312 C 136.972656 120.796875 138.496094 122.148438 138.597656 125.121094 C 136.558594 132.902344 133.941406 140.492188 130.742188 147.890625 C 130.085938 149.75 130.59375 151.097656 132.265625 151.9375 C 133.894531 151.324219 135.246094 150.3125 136.316406 148.902344 C 138.851562 145.699219 141.386719 142.492188 143.917969 139.289062 C 146.511719 133.882812 148.707031 128.316406 150.507812 122.589844 C 153.417969 122.097656 156.371094 121.929688 159.375 122.085938 C 156.847656 130.921875 154.058594 139.695312 151.015625 148.394531 C 150.761719 149.90625 150.675781 151.421875 150.761719 152.949219 C 151.574219 152.855469 152.25 153.109375 152.789062 153.710938 C 149.910156 155.625 146.789062 157.058594 143.414062 158.011719 C 141.390625 157.335938 140.714844 155.988281 141.386719 153.960938 C 142.601562 150.230469 143.871094 146.519531 145.1875 142.828125 C 145.210938 142.070312 144.871094 141.566406 144.171875 141.3125 C 142.066406 144.160156 139.957031 147.027344 137.839844 149.914062 C 134.664062 153.941406 130.609375 156.472656 125.675781 157.503906 C 121.550781 157.207031 120.03125 155.015625 121.117188 150.925781 C 124.15625 143.253906 126.941406 135.496094 129.476562 127.648438 C 129.460938 126.875 129.125 126.285156 128.464844 125.878906 C 127.679688 125.734375 127.003906 125.394531 126.4375 124.867188 C 128.894531 123.351562 131.429688 122.085938 134.039062 121.070312 Z M 134.039062 121.070312 " fill-opacity="1" fill-rule="evenodd"/><path fill="#d5d3d3" d="M 139.105469 122.589844 C 141.445312 124.175781 142.207031 126.367188 141.386719 129.167969 C 139.25 135.816406 136.972656 142.394531 134.542969 148.902344 C 134.363281 149.757812 133.859375 150.261719 133.023438 150.421875 C 135.292969 144.195312 137.574219 137.953125 139.867188 131.699219 C 140.304688 130.296875 140.554688 128.863281 140.625 127.398438 C 140.707031 126.109375 140.371094 125.011719 139.613281 124.109375 C 139.304688 123.65625 139.132812 123.152344 139.105469 122.589844 Z M 139.105469 122.589844 " fill-opacity="1" fill-rule="evenodd"/><path fill="#2c2322" d="M 139.613281 124.109375 C 140.371094 125.011719 140.707031 126.109375 140.625 127.398438 C 140.554688 128.863281 140.304688 130.296875 139.867188 131.699219 C 137.574219 137.953125 135.292969 144.195312 133.023438 150.421875 C 132.882812 150.820312 132.628906 151.15625 132.265625 151.433594 C 131.484375 150.191406 131.316406 148.839844 131.757812 147.382812 C 133.617188 142.660156 135.472656 137.9375 137.332031 133.214844 C 138.542969 130.289062 139.304688 127.253906 139.613281 124.109375 Z M 139.613281 124.109375 " fill-opacity="1" fill-rule="evenodd"/><path fill="#ece1e0" d="M 178.125 142.324219 C 180.441406 142.773438 182.636719 143.449219 184.710938 144.347656 C 184.683594 144.621094 184.515625 144.792969 184.207031 144.855469 C 182.179688 143.503906 180.152344 143.503906 178.125 144.855469 C 177.472656 143.945312 177.472656 143.101562 178.125 142.324219 Z M 178.125 142.324219 " fill-opacity="1" fill-rule="evenodd"/><path fill="#1d64b7" d="M 86.402344 143.335938 C 85.808594 144.351562 84.964844 145.109375 83.871094 145.613281 C 78.683594 146.554688 74.378906 149 70.949219 152.949219 C 68.292969 158.636719 69.558594 163.277344 74.75 166.863281 C 76.117188 167.8125 77.640625 168.234375 79.308594 168.128906 C 84.316406 167.570312 88.371094 165.292969 91.472656 161.300781 C 92.484375 160.960938 93.496094 160.960938 94.511719 161.300781 C 96.917969 162.691406 99.03125 164.460938 100.847656 166.613281 C 104.914062 171.429688 109.050781 176.152344 113.261719 180.78125 C 109.007812 180.945312 104.785156 180.695312 100.59375 180.019531 C 96.59375 178.699219 92.878906 176.84375 89.445312 174.453125 C 84.640625 172.652344 79.910156 172.820312 75.253906 174.960938 C 74.652344 175.476562 74.148438 176.066406 73.734375 176.730469 C 74.503906 177.285156 74.925781 177.957031 75 178.757812 C 72.085938 178.179688 69.132812 178.09375 66.132812 178.503906 C 55.691406 182 47.332031 179.214844 41.050781 170.152344 C 38.605469 166.316406 38.179688 162.265625 39.78125 158.011719 C 40.722656 156.234375 42.074219 154.800781 43.835938 153.710938 C 49.453125 150.882812 55.195312 148.355469 61.066406 146.117188 C 69.265625 142.976562 77.710938 142.050781 86.402344 143.335938 Z M 86.402344 143.335938 " fill-opacity="0.996" fill-rule="evenodd"/><path fill="#312221" d="M 202.449219 144.855469 C 202.136719 144.910156 201.882812 145.078125 201.6875 145.359375 C 200.148438 149.863281 198.546875 154.335938 196.875 158.769531 C 193.691406 159.300781 190.648438 159.046875 187.753906 158.011719 C 186.941406 158.144531 186.265625 157.976562 185.726562 157.503906 C 188.941406 157.589844 192.148438 157.503906 195.355469 157.25 C 196.957031 152.789062 198.5625 148.320312 200.167969 143.84375 C 201.238281 143.28125 201.996094 143.617188 202.449219 144.855469 Z M 202.449219 144.855469 " fill-opacity="1" fill-rule="evenodd"/><path fill="#e51e04" d="M 221.707031 144.347656 C 222.84375 144.832031 224.027344 145.167969 225.253906 145.359375 C 225.253906 145.527344 225.253906 145.699219 225.253906 145.867188 C 225.410156 147.492188 225.242188 149.011719 224.746094 150.421875 C 222.222656 149.589844 220.535156 147.902344 219.679688 145.359375 C 220.09375 144.542969 220.769531 144.207031 221.707031 144.347656 Z M 221.707031 144.347656 " fill-opacity="0.999" fill-rule="evenodd"/><path fill="#1c61b1" d="M 111.742188 144.855469 C 113.769531 144.855469 115.792969 144.855469 117.820312 144.855469 C 117.050781 146.832031 116.375 148.855469 115.792969 150.925781 C 113.929688 149.488281 111.902344 148.308594 109.714844 147.382812 C 110.417969 146.519531 111.09375 145.675781 111.742188 144.855469 Z M 111.742188 144.855469 " fill-opacity="1" fill-rule="evenodd"/><path fill="#d1bab6" d="M 143.160156 145.867188 C 141.808594 147.214844 140.457031 148.566406 139.105469 149.914062 C 140.769531 147.402344 142.457031 144.871094 144.171875 142.324219 C 144.300781 143.484375 143.964844 144.664062 143.160156 145.867188 Z M 143.160156 145.867188 " fill-opacity="1" fill-rule="evenodd"/><path fill="#8b1e11" d="M 225.253906 145.867188 C 225.914062 147.480469 225.914062 149.164062 225.253906 150.925781 C 224.945312 150.863281 224.777344 150.695312 224.746094 150.421875 C 225.242188 149.011719 225.410156 147.492188 225.253906 145.867188 Z M 225.253906 145.867188 " fill-opacity="1" fill-rule="evenodd"/><path fill="#322a2a" d="M 143.160156 145.867188 C 142.75 147.425781 142.246094 148.941406 141.640625 150.421875 C 139.949219 151.839844 138.429688 153.441406 137.078125 155.226562 C 134.363281 157.972656 131.070312 159.574219 127.195312 160.035156 C 126.074219 159.832031 125.144531 159.324219 124.410156 158.515625 C 127.164062 158.527344 129.699219 157.769531 132.011719 156.238281 C 134.460938 154.214844 136.824219 152.105469 139.105469 149.914062 C 140.457031 148.566406 141.808594 147.214844 143.160156 145.867188 Z M 143.160156 145.867188 " fill-opacity="1" fill-rule="evenodd"/><path fill="#dc330a" d="M 239.949219 116.011719 C 240.285156 116.6875 240.625 117.363281 240.960938 118.035156 C 241.664062 129.714844 241.160156 141.351562 239.441406 152.949219 C 239.609375 153.289062 239.78125 153.625 239.949219 153.960938 C 240.683594 153.234375 241.191406 152.390625 241.46875 151.433594 C 241.925781 151.03125 242.261719 150.527344 242.480469 149.914062 C 247.171875 143.410156 250.042969 136.15625 251.097656 128.15625 C 250.882812 125.691406 250.542969 123.246094 250.082031 120.820312 C 250.359375 117.167969 252.304688 115.230469 255.910156 115 C 258.574219 114.769531 260.519531 115.78125 261.738281 118.035156 C 262.078125 118.710938 262.414062 119.386719 262.753906 120.058594 C 262.808594 123.214844 262.214844 126.253906 260.980469 129.167969 C 250.996094 149.257812 237.566406 166.714844 220.691406 181.539062 C 216.402344 185.03125 211.503906 186.800781 205.996094 186.851562 C 205.152344 186.515625 204.308594 186.175781 203.460938 185.839844 C 200.71875 184.066406 199.703125 181.535156 200.421875 178.25 C 201.074219 176.925781 201.917969 175.746094 202.957031 174.707031 C 206.597656 173.335938 209.46875 174.265625 211.570312 177.492188 C 212.683594 178.1875 213.867188 178.355469 215.117188 177.996094 C 220.511719 175.3125 224.988281 171.515625 228.546875 166.613281 C 229.679688 157.210938 230.015625 147.765625 229.558594 138.277344 C 228.65625 129.933594 227.472656 121.667969 226.011719 113.480469 C 226.671875 112.734375 227.515625 112.394531 228.546875 112.46875 C 231.707031 112.710938 234.832031 113.132812 237.921875 113.734375 C 238.703125 114.429688 239.378906 115.1875 239.949219 116.011719 Z M 239.949219 116.011719 " fill-opacity="1" fill-rule="evenodd"/><path fill="#fec430" d="M 226.773438 113.480469 C 230.171875 113.457031 233.550781 113.707031 236.90625 114.242188 C 238.390625 114.878906 239.320312 115.976562 239.695312 117.53125 C 240.246094 121.039062 240.5 124.582031 240.457031 128.15625 C 240.128906 137.105469 239.621094 146.046875 238.933594 154.972656 C 239.894531 155.078125 240.652344 154.738281 241.214844 153.960938 C 244.351562 148.710938 247.222656 143.3125 249.832031 137.769531 C 251.03125 134.578125 251.789062 131.289062 252.109375 127.902344 C 251.398438 124.8125 251.144531 121.691406 251.351562 118.542969 C 253.226562 115.457031 255.84375 114.695312 259.207031 116.265625 C 261.53125 118.753906 262.292969 121.703125 261.484375 125.121094 C 259.496094 130.777344 256.964844 136.175781 253.882812 141.3125 C 245.175781 154.570312 235.125 166.796875 223.734375 177.996094 C 219.949219 181.574219 215.558594 184.101562 210.558594 185.585938 C 207.445312 186.320312 204.660156 185.730469 202.195312 183.816406 C 200.242188 180.210938 201.003906 177.261719 204.476562 174.960938 C 205.488281 174.625 206.503906 174.625 207.515625 174.960938 C 208.867188 176.140625 210.21875 177.324219 211.570312 178.503906 C 213.886719 178.953125 216.082031 178.613281 218.160156 177.492188 C 222.972656 174.707031 226.773438 170.914062 229.558594 166.105469 C 230.378906 156.011719 230.550781 145.890625 230.066406 135.746094 C 229.261719 128.269531 228.164062 120.851562 226.773438 113.480469 Z M 226.773438 113.480469 " fill-opacity="1" fill-rule="evenodd"/><path fill="#b0adae" d="M 242.480469 139.289062 C 242.328125 140.75 242.496094 142.097656 242.988281 143.335938 C 242.695312 145.515625 242.527344 147.710938 242.480469 149.914062 C 242.261719 150.527344 241.925781 151.03125 241.46875 151.433594 C 241.609375 147.292969 241.945312 143.246094 242.480469 139.289062 Z M 242.480469 139.289062 " fill-opacity="1" fill-rule="evenodd"/><path fill="#e6e6e6" d="M 239.949219 116.011719 C 241.671875 116.988281 242.769531 118.507812 243.242188 120.566406 C 243.542969 128.160156 243.457031 135.75 242.988281 143.335938 C 242.496094 142.097656 242.328125 140.75 242.480469 139.289062 C 243.210938 132.867188 243.128906 126.457031 242.230469 120.058594 C 241.921875 119.265625 241.5 118.59375 240.960938 118.035156 C 240.625 117.363281 240.285156 116.6875 239.949219 116.011719 Z M 239.949219 116.011719 " fill-opacity="1" fill-rule="evenodd"/><path fill="#302626" d="M 240.960938 118.035156 C 241.5 118.59375 241.921875 119.265625 242.230469 120.058594 C 243.128906 126.457031 243.210938 132.867188 242.480469 139.289062 C 241.945312 143.246094 241.609375 147.292969 241.46875 151.433594 C 241.191406 152.390625 240.683594 153.234375 239.949219 153.960938 C 239.78125 153.625 239.609375 153.289062 239.441406 152.949219 C 241.160156 141.351562 241.664062 129.714844 240.960938 118.035156 Z M 240.960938 118.035156 " fill-opacity="1" fill-rule="evenodd"/><path fill="#322929" d="M 166.46875 158.515625 C 172.445312 158.734375 177.515625 156.710938 181.671875 152.445312 C 182.441406 152.4375 183.03125 152.101562 183.445312 151.433594 C 184.136719 151.984375 184.308594 152.660156 183.953125 153.457031 C 179.324219 158.539062 173.664062 160.476562 166.976562 159.273438 C 166.695312 159.082031 166.527344 158.828125 166.46875 158.515625 Z M 166.46875 158.515625 " fill-opacity="1" fill-rule="evenodd"/><path fill="#2b2323" d="M 94.511719 155.984375 C 92.980469 155.902344 91.460938 155.988281 89.949219 156.238281 C 87.714844 158.808594 85.183594 161.003906 82.347656 162.816406 C 80.335938 164.082031 78.644531 163.828125 77.28125 162.058594 C 81.519531 160.964844 85.066406 158.6875 87.921875 155.226562 C 89.78125 154.890625 91.640625 154.890625 93.496094 155.226562 C 93.960938 155.367188 94.300781 155.621094 94.511719 155.984375 Z M 94.511719 155.984375 " fill-opacity="1" fill-rule="evenodd"/><path fill="#2d2525" d="M 153.292969 154.46875 C 153.722656 155.210938 154.398438 155.632812 155.320312 155.734375 C 152.4375 157.648438 149.3125 159.082031 145.945312 160.035156 C 145.085938 160.089844 144.496094 159.753906 144.171875 159.023438 C 147.320312 157.789062 150.363281 156.269531 153.292969 154.46875 Z M 153.292969 154.46875 " fill-opacity="1" fill-rule="evenodd"/><path fill="#d1d0d0" d="M 261.738281 118.035156 C 263.234375 118.46875 264.164062 119.484375 264.527344 121.070312 C 264.863281 123.265625 264.863281 125.457031 264.527344 127.648438 C 261.441406 135.496094 257.558594 142.917969 252.871094 149.914062 C 245.121094 160.863281 236.421875 171.066406 226.773438 180.527344 C 223.320312 183.6875 219.433594 186.214844 215.117188 188.117188 C 212.078125 189.128906 209.035156 189.128906 205.996094 188.117188 C 204.902344 187.613281 204.058594 186.855469 203.460938 185.839844 C 204.308594 186.175781 205.152344 186.515625 205.996094 186.851562 C 206.207031 187.21875 206.546875 187.46875 207.011719 187.609375 C 209.207031 187.949219 211.402344 187.949219 213.597656 187.609375 C 218.722656 185.640625 223.285156 182.773438 227.28125 179.007812 C 236.425781 170.050781 244.617188 160.355469 251.855469 149.914062 C 256.796875 143.082031 260.683594 135.660156 263.511719 127.648438 C 263.851562 125.457031 263.851562 123.265625 263.511719 121.070312 C 263.371094 120.609375 263.117188 120.269531 262.753906 120.058594 C 262.414062 119.386719 262.078125 118.710938 261.738281 118.035156 Z M 261.738281 118.035156 " fill-opacity="1" fill-rule="evenodd"/><path fill="#dbd9d9" d="M 183.191406 150.925781 C 184.699219 151.160156 185.289062 152.003906 184.964844 153.457031 C 180.367188 158.914062 174.542969 161.191406 167.484375 160.285156 C 165.914062 159.8125 164.730469 158.886719 163.9375 157.503906 C 164.78125 157.839844 165.625 158.179688 166.46875 158.515625 C 166.527344 158.828125 166.695312 159.082031 166.976562 159.273438 C 173.664062 160.476562 179.324219 158.539062 183.953125 153.457031 C 184.308594 152.660156 184.136719 151.984375 183.445312 151.433594 C 183.03125 152.101562 182.441406 152.4375 181.671875 152.445312 C 182.011719 151.769531 182.515625 151.261719 183.191406 150.925781 Z M 183.191406 150.925781 " fill-opacity="1" fill-rule="evenodd"/><path fill="#312625" d="M 222.210938 156.492188 C 222.957031 156.78125 223.636719 157.203125 224.238281 157.757812 C 220.746094 159.519531 217.03125 160.195312 213.089844 159.78125 C 212.359375 159.589844 211.851562 159.167969 211.570312 158.515625 C 215.359375 158.867188 218.90625 158.191406 222.210938 156.492188 Z M 222.210938 156.492188 " fill-opacity="1" fill-rule="evenodd"/><path fill="#df330b" d="M 218.160156 100.832031 C 217.734375 101.003906 217.5625 101.34375 217.652344 101.84375 C 212.632812 113.578125 207.648438 125.386719 202.703125 137.265625 C 202.363281 137.769531 202.363281 138.277344 202.703125 138.78125 C 204.214844 137.433594 205.480469 135.917969 206.503906 134.226562 C 207.296875 133.496094 207.96875 132.652344 208.53125 131.699219 C 210.722656 129.003906 213.253906 126.644531 216.132812 124.613281 C 217.882812 126.109375 219.574219 127.710938 221.199219 129.421875 C 222.382812 129.589844 223.5625 129.757812 224.746094 129.925781 C 225.191406 130.613281 225.359375 131.371094 225.253906 132.203125 C 224.914062 132.203125 224.746094 132.371094 224.746094 132.710938 C 220.667969 136.605469 215.9375 139.472656 210.558594 141.3125 C 211.074219 142.019531 211.582031 142.695312 212.078125 143.335938 C 213.898438 146.808594 216.09375 150.011719 218.664062 152.949219 C 219.621094 153.367188 220.636719 153.789062 221.707031 154.214844 C 222.375 154.628906 222.714844 155.21875 222.71875 155.984375 C 222.382812 155.984375 222.210938 156.15625 222.210938 156.492188 C 218.90625 158.191406 215.359375 158.867188 211.570312 158.515625 C 211.234375 158.515625 210.894531 158.515625 210.558594 158.515625 C 209.40625 157.621094 208.308594 156.609375 207.261719 155.480469 C 205.597656 151.90625 203.992188 148.367188 202.449219 144.855469 C 201.996094 143.617188 201.238281 143.28125 200.167969 143.84375 C 198.5625 148.320312 196.957031 152.789062 195.355469 157.25 C 192.148438 157.503906 188.941406 157.589844 185.726562 157.503906 C 185.191406 156.378906 185.273438 155.195312 185.980469 153.960938 C 192.769531 135.894531 199.613281 117.847656 206.503906 99.820312 C 210.183594 99.007812 213.902344 98.753906 217.652344 99.0625 C 218.074219 99.574219 218.246094 100.164062 218.160156 100.832031 Z M 218.160156 100.832031 " fill-opacity="1" fill-rule="evenodd"/><path fill="#fec430" d="M 207.011719 99.820312 C 210.40625 99.652344 213.78125 99.820312 217.144531 100.324219 C 211.636719 113.773438 206.0625 127.179688 200.421875 140.554688 C 200.929688 140.890625 201.4375 140.890625 201.941406 140.554688 C 206.523438 135.8125 210.914062 130.921875 215.117188 125.878906 C 215.625 125.542969 216.132812 125.542969 216.636719 125.878906 C 217.9375 127.636719 219.457031 129.15625 221.199219 130.433594 C 222.414062 130.527344 223.597656 130.78125 224.746094 131.191406 C 220.621094 135.78125 215.554688 138.816406 209.542969 140.300781 C 211.546875 144.296875 213.828125 148.175781 216.382812 151.9375 C 217.542969 153.6875 219.144531 154.699219 221.199219 154.972656 C 221.8125 155.367188 221.8125 155.789062 221.199219 156.238281 C 217.558594 157.722656 213.84375 158.0625 210.050781 157.25 C 208.929688 156.304688 208.003906 155.207031 207.261719 153.960938 C 205.96875 150.53125 204.53125 147.15625 202.957031 143.84375 C 200.589844 141.519531 199.152344 142.027344 198.648438 145.359375 C 197.433594 149.089844 196.164062 152.800781 194.847656 156.492188 C 191.996094 156.996094 189.125 157.164062 186.234375 157 C 193.054688 137.910156 199.980469 118.847656 207.011719 99.820312 Z M 207.011719 99.820312 " fill-opacity="1" fill-rule="evenodd"/><path fill="#cdcccc" d="M 141.640625 150.421875 C 141.441406 151.324219 141.101562 152.164062 140.625 152.949219 C 137.691406 156.015625 134.316406 158.460938 130.492188 160.285156 C 128.800781 160.625 127.113281 160.625 125.421875 160.285156 C 124.5 159.953125 123.824219 159.363281 123.394531 158.515625 C 123.734375 158.515625 124.070312 158.515625 124.410156 158.515625 C 125.144531 159.324219 126.074219 159.832031 127.195312 160.035156 C 131.070312 159.574219 134.363281 157.972656 137.078125 155.226562 C 138.429688 153.441406 139.949219 151.839844 141.640625 150.421875 Z M 141.640625 150.421875 " fill-opacity="1" fill-rule="evenodd"/><path fill="#d2d1d1" d="M 153.292969 154.46875 C 153.464844 154.46875 153.632812 154.46875 153.800781 154.46875 C 156.148438 153.992188 156.742188 154.667969 155.574219 156.492188 C 152.574219 158.621094 149.28125 160.140625 145.691406 161.046875 C 144.3125 160.957031 143.46875 160.28125 143.160156 159.023438 C 143.496094 159.023438 143.835938 159.023438 144.171875 159.023438 C 144.496094 159.753906 145.085938 160.089844 145.945312 160.035156 C 149.3125 159.082031 152.4375 157.648438 155.320312 155.734375 C 154.398438 155.632812 153.722656 155.210938 153.292969 154.46875 Z M 153.292969 154.46875 " fill-opacity="1" fill-rule="evenodd"/><path fill="#1c61b2" d="M 158.867188 159.023438 C 160.25 159.636719 161.433594 160.5625 162.414062 161.804688 C 159.882812 162.144531 157.347656 162.144531 154.816406 161.804688 C 156.394531 161.144531 157.746094 160.214844 158.867188 159.023438 Z M 158.867188 159.023438 " fill-opacity="1" fill-rule="evenodd"/><path fill="#cacaca" d="M 202.449219 144.855469 C 201.097656 149.824219 199.496094 154.71875 197.636719 159.527344 C 194.386719 160.023438 191.09375 160.191406 187.753906 160.035156 C 187.753906 159.359375 187.753906 158.683594 187.753906 158.011719 C 190.648438 159.046875 193.691406 159.300781 196.875 158.769531 C 198.546875 154.335938 200.148438 149.863281 201.6875 145.359375 C 201.882812 145.078125 202.136719 144.910156 202.449219 144.855469 Z M 202.449219 144.855469 " fill-opacity="1" fill-rule="evenodd"/><path fill="#cecccc" d="M 222.210938 156.492188 C 222.210938 156.15625 222.382812 155.984375 222.71875 155.984375 C 224.226562 156.222656 224.816406 157.066406 224.492188 158.515625 C 221.117188 160.371094 217.484375 161.128906 213.597656 160.792969 C 212.277344 160.390625 211.261719 159.632812 210.558594 158.515625 C 210.894531 158.515625 211.234375 158.515625 211.570312 158.515625 C 211.851562 159.167969 212.359375 159.589844 213.089844 159.78125 C 217.03125 160.195312 220.746094 159.519531 224.238281 157.757812 C 223.636719 157.203125 222.957031 156.78125 222.210938 156.492188 Z M 222.210938 156.492188 " fill-opacity="1" fill-rule="evenodd"/><path fill="#eb1f04" d="M 252.109375 158.515625 C 257.3125 161.792969 262.550781 165.082031 267.820312 168.382812 C 269.121094 169.324219 270.136719 170.503906 270.859375 171.925781 C 272.894531 172.390625 274.753906 173.234375 276.433594 174.453125 C 285.34375 181.132812 294.214844 188.132812 303.039062 195.453125 C 303.558594 197.464844 303.980469 199.488281 304.304688 201.527344 C 297.382812 198.886719 290.457031 196.355469 283.527344 193.9375 C 283.605469 193.402344 283.519531 192.898438 283.277344 192.417969 C 271.398438 182.964844 258.644531 174.53125 245.015625 167.117188 C 247.023438 163.949219 249.386719 161.085938 252.109375 158.515625 Z M 253.125 161.550781 C 253.742188 161.0625 254.417969 161.148438 255.152344 161.804688 C 256.078125 162.558594 256.5 163.484375 256.417969 164.589844 C 255.054688 163.816406 253.957031 162.804688 253.125 161.550781 Z M 295.691406 192.925781 C 296.6875 193.152344 296.855469 193.65625 296.199219 194.441406 C 295.75 194.023438 295.582031 193.519531 295.691406 192.925781 Z M 297.71875 193.9375 C 299.699219 194.566406 300.714844 195.914062 300.757812 197.984375 C 303.128906 197.964844 303.550781 198.636719 302.027344 200.007812 C 299.710938 198.589844 298.277344 196.566406 297.71875 193.9375 Z M 297.71875 193.9375 " fill-opacity="0.998" fill-rule="evenodd"/><path fill="#d39e95" d="M 116.808594 158.515625 C 117.703125 158.902344 118.207031 159.578125 118.328125 160.539062 C 117.4375 160.15625 116.929688 159.480469 116.808594 158.515625 Z M 116.808594 158.515625 " fill-opacity="1" fill-rule="evenodd"/><path fill="#1c60b0" d="M 137.585938 160.539062 C 139.125 160.976562 140.304688 161.902344 141.132812 163.324219 C 136.03125 163.464844 132.566406 165.910156 130.742188 170.660156 C 129.414062 168.761719 128.148438 166.824219 126.945312 164.839844 C 131.050781 164.628906 134.597656 163.195312 137.585938 160.539062 Z M 137.585938 160.539062 " fill-opacity="1" fill-rule="evenodd"/><path fill="#22426e" d="M 182.6875 160.539062 C 183.640625 160.648438 184.316406 161.152344 184.710938 162.058594 C 183.363281 162.734375 182.011719 162.734375 180.660156 162.058594 C 181.511719 161.730469 182.1875 161.222656 182.6875 160.539062 Z M 182.6875 160.539062 " fill-opacity="1" fill-rule="evenodd"/><path fill="#f0f1f3" d="M 220.183594 169.140625 C 215.90625 167.4375 211.515625 165.917969 207.011719 164.589844 C 207.011719 163.746094 207.011719 162.902344 207.011719 162.058594 C 204.976562 162.140625 202.949219 162.058594 200.929688 161.804688 C 201.824219 160.214844 202.667969 158.613281 203.460938 157 C 205.695312 159.820312 208.3125 162.179688 211.316406 164.082031 C 215.835938 164.558594 220.308594 164.558594 224.746094 164.082031 C 223.574219 166.09375 222.054688 167.78125 220.183594 169.140625 Z M 220.183594 169.140625 " fill-opacity="1" fill-rule="evenodd"/><path fill="#d8d4d3" d="M 94.511719 155.984375 C 96.308594 156.605469 97.832031 157.617188 99.070312 159.023438 C 96.300781 157.207031 93.261719 156.617188 89.949219 157.25 C 87.714844 159.820312 85.183594 162.015625 82.347656 163.828125 C 80.828125 164.167969 79.308594 164.167969 77.789062 163.828125 C 77.175781 163.304688 76.667969 162.710938 76.269531 162.058594 C 76.605469 162.058594 76.945312 162.058594 77.28125 162.058594 C 78.644531 163.828125 80.335938 164.082031 82.347656 162.816406 C 85.183594 161.003906 87.714844 158.808594 89.949219 156.238281 C 91.460938 155.988281 92.980469 155.902344 94.511719 155.984375 Z M 94.511719 155.984375 " fill-opacity="1" fill-rule="evenodd"/><path fill="#1f63b3" d="M 207.011719 164.589844 C 211.515625 165.917969 215.90625 167.4375 220.183594 169.140625 C 218.578125 170.917969 216.636719 172.269531 214.359375 173.191406 C 213.117188 172.460938 212.019531 171.53125 211.0625 170.40625 C 209.75 169.832031 208.398438 169.410156 207.011719 169.140625 C 207.011719 167.625 207.011719 166.105469 207.011719 164.589844 Z M 207.011719 164.589844 " fill-opacity="1" fill-rule="evenodd"/><path fill="#e4cdca" d="M 118.328125 160.539062 C 119.367188 161.417969 120.296875 162.429688 121.117188 163.574219 C 123.355469 167.070312 125.46875 170.613281 127.449219 174.203125 C 124.035156 169.914062 120.992188 165.359375 118.328125 160.539062 Z M 118.328125 160.539062 " fill-opacity="1" fill-rule="evenodd"/><path fill="#f7bd2f" d="M 202.957031 174.707031 C 201.917969 175.746094 201.074219 176.925781 200.421875 178.25 C 192.113281 189.46875 187.46875 202.117188 186.488281 216.199219 C 186.59375 225.8125 186.59375 235.425781 186.488281 245.042969 C 184.179688 252.730469 179.027344 255.851562 171.03125 254.402344 C 167.21875 253.472656 164.597656 251.195312 163.175781 247.570312 C 162.433594 243.890625 162.261719 240.179688 162.667969 236.441406 C 165.972656 225.289062 170.53125 214.664062 176.351562 204.5625 C 180.328125 197.96875 184.296875 191.390625 188.261719 184.828125 C 188.535156 184.796875 188.703125 184.628906 188.765625 184.320312 C 180.238281 183.652344 171.792969 183.652344 163.429688 184.320312 C 161.015625 184.472656 159.070312 185.484375 157.601562 187.359375 C 155.894531 190.527344 154.964844 193.902344 154.816406 197.476562 C 152.449219 197.476562 150.085938 197.476562 147.71875 197.476562 C 148.730469 187.207031 149.574219 176.917969 150.253906 166.613281 C 167.988281 166.613281 185.726562 166.613281 203.460938 166.613281 C 203.605469 169.359375 203.4375 172.054688 202.957031 174.707031 Z M 202.957031 174.707031 " fill-opacity="1" fill-rule="evenodd"/><path fill="#fdfafa" d="M 245.015625 167.117188 C 258.644531 174.53125 271.398438 182.964844 283.277344 192.417969 C 283.519531 192.898438 283.605469 193.402344 283.527344 193.9375 C 290.457031 196.355469 297.382812 198.886719 304.304688 201.527344 C 304.367188 203.371094 305.210938 204.804688 306.839844 205.828125 C 310.105469 207.910156 313.230469 210.183594 316.214844 212.65625 C 317.375 214.554688 318.472656 216.496094 319.507812 218.476562 C 319.171875 218.816406 318.832031 219.152344 318.496094 219.488281 C 319.167969 220.941406 318.746094 222.035156 317.226562 222.777344 C 314.214844 221.792969 311.425781 220.359375 308.867188 218.476562 C 307.5 217.875 306.148438 217.789062 304.8125 218.222656 C 304.402344 219.019531 304.234375 219.863281 304.304688 220.753906 C 298.898438 216.539062 293.496094 212.320312 288.089844 208.105469 C 287.058594 198.394531 281.824219 194.851562 272.378906 197.476562 C 271.691406 196.457031 270.847656 195.53125 269.847656 194.695312 C 259.421875 187.71875 248.609375 181.394531 237.414062 175.71875 C 239.835938 172.738281 242.367188 169.871094 245.015625 167.117188 Z M 245.015625 167.117188 " fill-opacity="0.991" fill-rule="evenodd"/><path fill="#f04a0d" d="M 201.4375 173.191406 C 201.4375 171.671875 201.4375 170.152344 201.4375 168.636719 C 185.050781 168.636719 168.664062 168.636719 152.28125 168.636719 C 152.4375 170.097656 152.265625 171.445312 151.773438 172.683594 C 151.773438 171.167969 151.773438 169.648438 151.773438 168.128906 C 168.496094 168.128906 185.21875 168.128906 201.941406 168.128906 C 202.101562 169.921875 201.933594 171.609375 201.4375 173.191406 Z M 201.4375 173.191406 " fill-opacity="1" fill-rule="evenodd"/><path fill="#ed2000" d="M 201.4375 173.191406 C 192.042969 185.039062 186.554688 198.53125 184.964844 213.671875 C 184.816406 223.625 184.816406 233.574219 184.964844 243.523438 C 183.289062 251.410156 178.476562 254.359375 170.523438 252.378906 C 167.566406 251.453125 165.625 249.511719 164.695312 246.558594 C 163.539062 241.027344 164.046875 235.632812 166.214844 230.367188 C 173.042969 213.53125 181.570312 197.675781 191.808594 182.804688 C 181.84375 182.214844 171.878906 182.128906 161.910156 182.550781 C 159.488281 183.125 157.546875 184.390625 156.082031 186.347656 C 154.632812 189.082031 153.535156 191.949219 152.789062 194.949219 C 151.828125 195.4375 150.8125 195.605469 149.746094 195.453125 C 150.484375 187.867188 151.160156 180.277344 151.773438 172.683594 C 152.265625 171.445312 152.4375 170.097656 152.28125 168.636719 C 168.664062 168.636719 185.050781 168.636719 201.4375 168.636719 C 201.4375 170.152344 201.4375 171.671875 201.4375 173.191406 Z M 201.4375 173.191406 " fill-opacity="1" fill-rule="evenodd"/><path fill="#ed3117" d="M 253.125 173.191406 C 255.6875 173.207031 256.699219 174.390625 256.164062 176.730469 C 254.414062 176.164062 253.398438 174.984375 253.125 173.191406 Z M 253.125 173.191406 " fill-opacity="1" fill-rule="evenodd"/><path fill="#332423" d="M 145.691406 173.191406 C 146.574219 173.957031 147.082031 174.96875 147.214844 176.226562 C 146.796875 179.761719 144.9375 182.207031 141.640625 183.5625 C 135.941406 184.992188 130.535156 184.402344 125.421875 181.792969 C 126.097656 181.792969 126.773438 181.792969 127.449219 181.792969 C 129.328125 182.578125 131.355469 182.917969 133.53125 182.804688 C 135.761719 182.8125 137.957031 182.558594 140.117188 182.046875 C 143.832031 180.285156 145.691406 177.332031 145.691406 173.191406 Z M 145.691406 173.191406 " fill-opacity="1" fill-rule="evenodd"/><path fill="#dcb3ac" d="M 127.449219 174.203125 C 128.164062 174.441406 128.5 174.949219 128.464844 175.71875 C 127.75 175.480469 127.414062 174.976562 127.449219 174.203125 Z M 127.449219 174.203125 " fill-opacity="1" fill-rule="evenodd"/><path fill="#1e64b6" d="M 237.414062 175.71875 C 248.609375 181.394531 259.421875 187.71875 269.847656 194.695312 C 270.847656 195.53125 271.691406 196.457031 272.378906 197.476562 C 272.167969 197.792969 271.832031 197.960938 271.367188 197.984375 C 268.46875 196.304688 265.515625 196.136719 262.5 197.476562 C 261.117188 196.878906 259.683594 196.539062 258.191406 196.464844 C 257.722656 191.695312 255.105469 188.996094 250.335938 188.371094 C 245.253906 189.3125 242.972656 192.347656 243.496094 197.476562 C 240.28125 196.183594 237.074219 196.183594 233.867188 197.476562 C 229.699219 196.320312 225.476562 196.152344 221.199219 196.972656 C 220.542969 194.835938 219.785156 192.8125 218.917969 190.898438 C 225.929688 186.847656 232.09375 181.789062 237.414062 175.71875 Z M 255.152344 186.851562 C 256.613281 187.128906 257.628906 187.972656 258.191406 189.382812 C 257.9375 189.898438 257.601562 189.984375 257.179688 189.636719 C 256.183594 188.902344 255.507812 187.972656 255.152344 186.851562 Z M 255.152344 186.851562 " fill-opacity="0.999" fill-rule="evenodd"/><path fill="#d1cece" d="M 145.1875 171.167969 C 147.527344 173.15625 148.289062 175.6875 147.464844 178.757812 C 145.855469 182.386719 143.066406 184.496094 139.105469 185.082031 C 130.433594 185.710938 123 183.097656 116.808594 177.238281 C 119.453125 179.148438 122.324219 180.667969 125.421875 181.792969 C 130.535156 184.402344 135.941406 184.992188 141.640625 183.5625 C 144.9375 182.207031 146.796875 179.761719 147.214844 176.226562 C 147.082031 174.96875 146.574219 173.957031 145.691406 173.191406 C 145.320312 172.578125 145.152344 171.90625 145.1875 171.167969 Z M 145.1875 171.167969 " fill-opacity="1" fill-rule="evenodd"/><path fill="#5b4924" d="M 163.429688 184.320312 C 171.792969 183.652344 180.238281 183.652344 188.765625 184.320312 C 188.703125 184.628906 188.535156 184.796875 188.261719 184.828125 C 180.070312 184.324219 171.796875 184.15625 163.429688 184.320312 Z M 163.429688 184.320312 " fill-opacity="1" fill-rule="evenodd"/><path fill="#1f5fad" d="M 199.914062 191.40625 C 198.867188 191.398438 197.855469 191.230469 196.875 190.898438 C 197.164062 189.480469 197.835938 188.300781 198.902344 187.359375 C 199.992188 188.191406 201.003906 189.121094 201.941406 190.140625 C 201.449219 190.890625 200.773438 191.3125 199.914062 191.40625 Z M 199.914062 191.40625 " fill-opacity="0.965" fill-rule="evenodd"/><path fill="#625656" d="M 252.617188 194.949219 C 253.753906 195.917969 253.921875 197.097656 253.125 198.488281 C 251.734375 199.824219 250.382812 199.824219 249.070312 198.488281 C 251.433594 198.488281 252.617188 197.308594 252.617188 194.949219 Z M 252.617188 194.949219 " fill-opacity="1" fill-rule="evenodd"/><path fill="#d82f0a" d="M 252.617188 194.949219 C 252.617188 197.308594 251.433594 198.488281 249.070312 198.488281 C 246.183594 196.191406 246.519531 194.503906 250.082031 193.429688 C 251.320312 193.320312 252.164062 193.828125 252.617188 194.949219 Z M 252.617188 194.949219 " fill-opacity="1" fill-rule="evenodd"/><path fill="#fdbd2e" d="M 249.070312 193.9375 C 251.867188 193.921875 252.539062 195.019531 251.097656 197.226562 C 247.976562 197.667969 247.300781 196.574219 249.070312 193.9375 Z M 249.070312 193.9375 " fill-opacity="1" fill-rule="evenodd"/><path fill="#9e9c9d" d="M 216.132812 196.464844 C 216.878906 197.285156 217.214844 198.296875 217.144531 199.503906 C 217.175781 200.457031 216.925781 201.300781 216.382812 202.03125 C 216.710938 200.621094 216.628906 199.269531 216.132812 197.984375 C 216.132812 197.476562 216.132812 196.972656 216.132812 196.464844 Z M 216.132812 196.464844 " fill-opacity="1" fill-rule="evenodd"/><path fill="#6a6262" d="M 204.984375 198.488281 C 205.320312 198.488281 205.660156 198.488281 205.996094 198.488281 C 205.507812 200.132812 204.832031 201.648438 203.96875 203.042969 C 204.21875 201.878906 204.386719 200.695312 204.476562 199.503906 C 204.390625 199 204.558594 198.664062 204.984375 198.488281 Z M 204.984375 198.488281 " fill-opacity="1" fill-rule="evenodd"/><path fill="#d6301d" d="M 315.960938 203.042969 C 314.953125 202.707031 314.109375 202.117188 313.425781 201.273438 C 314.878906 200.949219 315.726562 201.539062 315.960938 203.042969 Z M 315.960938 203.042969 " fill-opacity="0.725" fill-rule="evenodd"/><path fill="#ed3920" d="M 296.199219 202.539062 C 296.316406 202.234375 296.570312 202.066406 296.957031 202.03125 C 298.242188 202.167969 299.171875 202.757812 299.746094 203.804688 C 299.578125 204.054688 299.40625 204.308594 299.238281 204.5625 C 298.355469 203.675781 297.339844 203 296.199219 202.539062 Z M 296.199219 202.539062 " fill-opacity="1" fill-rule="evenodd"/><path fill="#3a2421" d="M 204.476562 199.503906 C 204.386719 200.695312 204.21875 201.878906 203.96875 203.042969 C 202.480469 206.492188 201.296875 210.035156 200.421875 213.671875 C 200.863281 208.640625 202.214844 203.917969 204.476562 199.503906 Z M 204.476562 199.503906 " fill-opacity="1" fill-rule="evenodd"/><path fill="#888181" d="M 203.96875 203.042969 C 202.882812 207.042969 201.953125 211.09375 201.183594 215.1875 C 200.847656 217.738281 200.929688 220.265625 201.4375 222.777344 C 200.710938 221.945312 200.289062 220.933594 200.167969 219.742188 C 199.757812 217.621094 199.84375 215.597656 200.421875 213.671875 C 201.296875 210.035156 202.480469 206.492188 203.96875 203.042969 Z M 203.96875 203.042969 " fill-opacity="1" fill-rule="evenodd"/><path fill="#de301e" d="M 315.960938 203.042969 C 316.796875 203.125 317.472656 203.460938 317.988281 204.054688 C 316.835938 204.1875 316.242188 204.859375 316.214844 206.078125 C 315.964844 205.082031 315.878906 204.070312 315.960938 203.042969 Z M 315.960938 203.042969 " fill-opacity="0.38" fill-rule="evenodd"/><path fill="#e5311c" d="M 317.988281 204.054688 C 318.664062 204.394531 318.664062 204.394531 317.988281 204.054688 Z M 317.988281 204.054688 " fill-opacity="0.239" fill-rule="evenodd"/><path fill="#8f8a8a" d="M 268.832031 203.550781 C 269.703125 204.125 270.039062 204.96875 269.847656 206.078125 C 269.363281 207.214844 269.023438 208.398438 268.832031 209.621094 C 268.371094 210.390625 267.949219 211.234375 267.566406 212.152344 C 267.832031 209.835938 268.421875 207.558594 269.339844 205.320312 C 269.304688 204.933594 269.136719 204.679688 268.832031 204.5625 C 268.832031 204.222656 268.832031 203.886719 268.832031 203.550781 Z M 268.832031 203.550781 " fill-opacity="1" fill-rule="evenodd"/><path fill="#8f8d8e" d="M 227.785156 215.1875 C 227.449219 215.1875 227.28125 215.019531 227.28125 214.683594 C 228.121094 211.234375 229.21875 207.859375 230.574219 204.5625 C 229.890625 208.128906 228.960938 211.667969 227.785156 215.1875 Z M 227.785156 215.1875 " fill-opacity="1" fill-rule="evenodd"/><path fill="#8f8c8d" d="M 239.441406 206.078125 C 239.78125 206.078125 240.117188 206.078125 240.457031 206.078125 C 240.804688 206.726562 241.226562 206.726562 241.722656 206.078125 C 241.890625 205.238281 242.058594 204.394531 242.230469 203.550781 C 243.21875 204.707031 243.132812 205.804688 241.976562 206.839844 C 240.875 207.28125 240.027344 207.03125 239.441406 206.078125 Z M 239.441406 206.078125 " fill-opacity="1" fill-rule="evenodd"/><path fill="#da2e0a" d="M 268.832031 203.550781 C 268.832031 203.886719 268.832031 204.222656 268.832031 204.5625 C 268.054688 207.304688 267.125 210.003906 266.046875 212.65625 C 265.765625 213.863281 265.847656 215.046875 266.300781 216.199219 C 266.300781 216.367188 266.300781 216.539062 266.300781 216.707031 C 264.414062 217.710938 262.472656 217.878906 260.472656 217.210938 C 260.925781 213.738281 261.855469 210.363281 263.257812 207.09375 C 263.660156 206.351562 263.660156 205.675781 263.257812 205.066406 C 259.328125 208.488281 256.625 212.707031 255.152344 217.71875 C 254.136719 217.71875 253.125 217.71875 252.109375 217.71875 C 251.527344 217.570312 251.191406 217.148438 251.097656 216.453125 C 252.328125 212.847656 253.511719 209.222656 254.644531 205.574219 C 253.789062 204 254.128906 202.734375 255.65625 201.777344 C 257.007812 201.441406 258.359375 201.441406 259.710938 201.777344 C 260.175781 202.859375 260.261719 203.953125 259.964844 205.066406 C 261.824219 202.492188 264.273438 201.398438 267.3125 201.777344 C 267.925781 202.304688 268.433594 202.894531 268.832031 203.550781 Z M 268.832031 203.550781 " fill-opacity="1" fill-rule="evenodd"/><path fill="#fdbd2e" d="M 264.78125 202.03125 C 266.601562 201.746094 267.617188 202.507812 267.820312 204.308594 C 267.195312 207.359375 266.265625 210.308594 265.03125 213.164062 C 264.65625 214.144531 264.742188 215.074219 265.285156 215.945312 C 264.050781 216.679688 262.699219 217.101562 261.230469 217.210938 C 262.246094 212.996094 263.257812 208.777344 264.273438 204.5625 C 262.425781 204.625 260.988281 205.464844 259.964844 207.09375 C 259.878906 206.839844 259.796875 206.585938 259.710938 206.332031 C 261.191406 204.601562 262.878906 203.167969 264.78125 202.03125 Z M 264.78125 202.03125 " fill-opacity="1" fill-rule="evenodd"/><path fill="#fdbf2f" d="M 256.164062 202.03125 C 257.179688 202.03125 258.191406 202.03125 259.207031 202.03125 C 259.148438 204 258.644531 205.855469 257.683594 207.597656 C 257.925781 208.09375 258.265625 208.515625 258.699219 208.863281 C 256.6875 211.089844 255.503906 213.707031 255.152344 216.707031 C 253.957031 216.789062 252.773438 216.703125 251.605469 216.453125 C 253.730469 211.695312 255.25 206.890625 256.164062 202.03125 Z M 256.164062 202.03125 " fill-opacity="1" fill-rule="evenodd"/><path fill="#ee391f" d="M 295.691406 205.066406 C 298.6875 205.28125 300.460938 206.800781 301.011719 209.621094 C 299.363281 208.589844 297.757812 207.492188 296.199219 206.332031 C 295.816406 205.992188 295.648438 205.570312 295.691406 205.066406 Z M 295.691406 205.066406 " fill-opacity="1" fill-rule="evenodd"/><path fill="#df370a" d="M 227.28125 214.683594 C 227.28125 215.019531 227.449219 215.1875 227.785156 215.1875 C 227.785156 215.527344 227.785156 215.863281 227.785156 216.199219 C 227.785156 216.367188 227.785156 216.539062 227.785156 216.707031 C 225.835938 217.792969 223.808594 217.960938 221.707031 217.210938 C 221.964844 216.195312 222.050781 215.183594 221.960938 214.175781 C 220.519531 216.539062 218.410156 217.71875 215.625 217.71875 C 214.484375 217.507812 213.722656 216.832031 213.34375 215.695312 C 213.398438 209.597656 216.015625 204.957031 221.199219 201.777344 C 222.75 201.402344 224.269531 201.488281 225.757812 202.03125 C 227.261719 200.9375 228.867188 200.769531 230.574219 201.527344 C 229.332031 205.585938 228.066406 209.71875 226.773438 213.921875 C 226.808594 214.308594 226.976562 214.5625 227.28125 214.683594 Z M 227.28125 214.683594 " fill-opacity="1" fill-rule="evenodd"/><path fill="#fdc12f" d="M 221.707031 202.03125 C 223.464844 201.714844 224.898438 202.222656 226.011719 203.550781 C 226.957031 202.179688 228.222656 201.757812 229.8125 202.285156 C 228.261719 206.253906 226.910156 210.304688 225.757812 214.429688 C 225.890625 215.066406 226.230469 215.574219 226.773438 215.945312 C 225.574219 216.824219 224.226562 217.246094 222.71875 217.210938 C 222.914062 215.28125 223.421875 213.425781 224.238281 211.644531 C 223.476562 211.476562 222.800781 211.476562 222.210938 211.644531 C 223.835938 209.839844 224.847656 207.730469 225.253906 205.320312 C 224.917969 203.253906 223.738281 202.582031 221.707031 203.296875 C 218.816406 206.558594 217.546875 210.351562 217.90625 214.683594 C 218.917969 214.851562 219.847656 214.851562 220.691406 214.683594 C 219.597656 215.945312 218.246094 216.789062 216.636719 217.210938 C 215.054688 216.8125 214.210938 215.800781 214.105469 214.175781 C 214.851562 208.960938 217.386719 204.914062 221.707031 202.03125 Z M 221.707031 202.03125 " fill-opacity="1" fill-rule="evenodd"/><path fill="#332726" d="M 219.679688 213.164062 C 219.855469 211.964844 219.941406 210.785156 219.933594 209.621094 C 219.273438 211.078125 218.851562 212.59375 218.664062 214.175781 C 218.351562 210.480469 219.535156 207.191406 222.210938 204.308594 C 222.867188 204.0625 223.542969 203.976562 224.238281 204.054688 C 224.054688 207.796875 222.535156 210.832031 219.679688 213.164062 Z M 219.679688 213.164062 " fill-opacity="1" fill-rule="evenodd"/><path fill="#8b8989" d="M 249.070312 215.1875 C 248.730469 215.1875 248.5625 215.019531 248.5625 214.683594 C 249.339844 211.9375 250.265625 209.238281 251.351562 206.585938 C 250.859375 209.496094 250.097656 212.363281 249.070312 215.1875 Z M 249.070312 215.1875 " fill-opacity="1" fill-rule="evenodd"/><path fill="#da310a" d="M 248.5625 214.683594 C 248.5625 215.019531 248.730469 215.1875 249.070312 215.1875 C 249.070312 215.527344 249.070312 215.863281 249.070312 216.199219 C 248.730469 216.199219 248.5625 216.367188 248.5625 216.707031 C 246.824219 217.660156 244.964844 217.914062 242.988281 217.464844 C 242.695312 217.011719 242.527344 216.507812 242.480469 215.945312 C 243.664062 212.410156 244.84375 208.871094 246.03125 205.320312 C 244.597656 203.703125 244.933594 202.519531 247.042969 201.777344 C 248.394531 201.441406 249.746094 201.441406 251.097656 201.777344 C 251.390625 202.230469 251.5625 202.738281 251.605469 203.296875 C 250.421875 206.832031 249.242188 210.375 248.054688 213.921875 C 248.09375 214.308594 248.261719 214.5625 248.5625 214.683594 Z M 248.5625 214.683594 " fill-opacity="1" fill-rule="evenodd"/><path fill="#fec12f" d="M 248.5625 202.03125 C 249.804688 201.820312 250.480469 202.328125 250.589844 203.550781 C 249.457031 207.199219 248.273438 210.824219 247.042969 214.429688 C 247.171875 215.101562 247.511719 215.605469 248.054688 215.945312 C 246.683594 216.914062 245.164062 217.335938 243.496094 217.210938 C 244.210938 213.125 245.394531 209.160156 247.042969 205.320312 C 246.816406 204.671875 246.476562 204.082031 246.03125 203.550781 C 246.863281 202.945312 247.707031 202.4375 248.5625 202.03125 Z M 248.5625 202.03125 " fill-opacity="1" fill-rule="evenodd"/><path fill="#2164b5" d="M 288.089844 208.105469 C 293.496094 212.320312 298.898438 216.539062 304.304688 220.753906 C 305.308594 222.886719 305.648438 225.078125 305.320312 227.332031 C 299.296875 224.570312 293.046875 222.460938 286.570312 221.007812 C 285.644531 220.503906 284.800781 219.910156 284.035156 219.234375 C 286.300781 215.824219 287.652344 212.113281 288.089844 208.105469 Z M 298.730469 219.234375 C 297.558594 220.503906 297.136719 220.167969 297.464844 218.222656 C 297.96875 218.511719 298.390625 218.847656 298.730469 219.234375 Z M 298.730469 219.234375 C 300.9375 219.667969 302.203125 221.019531 302.53125 223.285156 C 304.894531 223.570312 305.230469 224.414062 303.546875 225.8125 C 301.242188 224.109375 299.636719 221.914062 298.730469 219.234375 Z M 298.730469 219.234375 " fill-opacity="0.985" fill-rule="evenodd"/><path fill="#ed331a" d="M 303.292969 208.609375 C 304.617188 209.050781 305.96875 209.386719 307.347656 209.621094 C 307.3125 210.734375 306.976562 211.746094 306.332031 212.65625 C 304.898438 212.027344 303.546875 211.269531 302.277344 210.382812 C 303.023438 210.023438 303.363281 209.433594 303.292969 208.609375 Z M 303.292969 208.609375 " fill-opacity="1" fill-rule="evenodd"/><path fill="#e9220b" d="M 320.523438 206.585938 C 321.171875 207.40625 321.847656 208.25 322.550781 209.117188 C 321.945312 209.585938 321.269531 209.753906 320.523438 209.621094 C 320.523438 208.609375 320.523438 207.597656 320.523438 206.585938 Z M 320.523438 206.585938 " fill-opacity="0.744" fill-rule="evenodd"/><path fill="#979292" d="M 282.007812 204.054688 C 282.664062 204.339844 283.085938 204.84375 283.277344 205.574219 C 283.90625 208.972656 283.402344 212.175781 281.753906 215.1875 C 281.425781 215.792969 281.171875 215.792969 280.996094 215.1875 C 282.828125 212.28125 283.335938 209.246094 282.515625 206.078125 C 282.601562 205.578125 282.433594 205.242188 282.007812 205.066406 C 282.007812 204.730469 282.007812 204.394531 282.007812 204.054688 Z M 282.007812 204.054688 " fill-opacity="1" fill-rule="evenodd"/><path fill="#de310a" d="M 240.457031 206.078125 C 240.117188 206.078125 239.78125 206.078125 239.441406 206.078125 C 239.066406 206.144531 238.730469 206.0625 238.429688 205.828125 C 238.148438 204.894531 237.644531 204.132812 236.90625 203.550781 C 236.738281 203.972656 236.570312 204.394531 236.402344 204.816406 C 236.953125 207.015625 237.96875 208.957031 239.441406 210.632812 C 239.441406 210.972656 239.441406 211.308594 239.441406 211.644531 C 239.605469 214.445312 238.421875 216.382812 235.894531 217.464844 C 233.257812 218.113281 230.890625 217.691406 228.800781 216.199219 C 228.480469 214.496094 229.15625 213.484375 230.828125 213.164062 C 232.0625 213.46875 232.90625 214.226562 233.359375 215.441406 C 233.839844 215.683594 234.347656 215.769531 234.882812 215.695312 C 234.964844 214.667969 234.878906 213.65625 234.628906 212.65625 C 229.609375 205.203125 231.550781 201.574219 240.457031 201.777344 C 241.796875 203.273438 241.796875 204.707031 240.457031 206.078125 Z M 240.457031 206.078125 " fill-opacity="1" fill-rule="evenodd"/><path fill="#fdbd2e" d="M 236.402344 202.03125 C 237.429688 201.949219 238.441406 202.035156 239.441406 202.285156 C 240.410156 202.492188 240.917969 203.082031 240.960938 204.054688 C 240.996094 204.949219 240.574219 205.457031 239.695312 205.574219 C 238.75 205.128906 238.15625 204.371094 237.921875 203.296875 C 235.597656 202.824219 234.839844 203.753906 235.640625 206.078125 C 236.65625 207.765625 237.667969 209.453125 238.683594 211.140625 C 238.441406 216.089844 235.824219 218.027344 230.828125 216.960938 C 229.988281 216.226562 229.652344 215.300781 229.8125 214.175781 C 230.5625 214.042969 231.238281 214.210938 231.839844 214.683594 C 232.605469 216.78125 233.789062 217.121094 235.386719 215.695312 C 235.90625 214.714844 235.988281 213.703125 235.640625 212.65625 C 234.121094 210.890625 233.191406 208.867188 232.855469 206.585938 C 233.097656 204.320312 234.28125 202.804688 236.402344 202.03125 Z M 236.402344 202.03125 " fill-opacity="1" fill-rule="evenodd"/><path fill="#b4b3b3" d="M 239.441406 210.632812 C 239.753906 210.691406 240.007812 210.859375 240.203125 211.140625 C 240.539062 212.488281 240.539062 213.839844 240.203125 215.1875 C 240.109375 213.90625 239.855469 212.722656 239.441406 211.644531 C 239.441406 211.308594 239.441406 210.972656 239.441406 210.632812 Z M 239.441406 210.632812 " fill-opacity="1" fill-rule="evenodd"/><path fill="#493b3a" d="M 263.257812 207.09375 C 261.738281 208.777344 260.21875 210.464844 258.699219 212.152344 C 257.476562 213.589844 256.632812 215.277344 256.164062 217.210938 C 255.933594 217.617188 255.59375 217.785156 255.152344 217.71875 C 256.625 212.707031 259.328125 208.488281 263.257812 205.066406 C 263.660156 205.675781 263.660156 206.351562 263.257812 207.09375 Z M 263.257812 207.09375 " fill-opacity="1" fill-rule="evenodd"/><path fill="#fcf6f3" d="M 320.523438 212.152344 C 321.199219 212.488281 321.199219 212.488281 320.523438 212.152344 Z M 320.523438 212.152344 " fill-opacity="0.067" fill-rule="evenodd"/><path fill="#7f7d7d" d="M 219.679688 213.164062 C 219.511719 213.671875 219.171875 214.007812 218.664062 214.175781 C 218.851562 212.59375 219.273438 211.078125 219.933594 209.621094 C 219.941406 210.785156 219.855469 211.964844 219.679688 213.164062 Z M 219.679688 213.164062 " fill-opacity="1" fill-rule="evenodd"/><path fill="#ee3d23" d="M 307.851562 213.671875 C 307.972656 213.367188 308.226562 213.199219 308.613281 213.164062 C 310.539062 213.648438 312.484375 214.070312 314.441406 214.429688 C 315.535156 215.515625 316.128906 216.78125 316.214844 218.222656 C 313.683594 216.242188 310.898438 214.726562 307.851562 213.671875 Z M 307.851562 213.671875 " fill-opacity="1" fill-rule="evenodd"/><path fill="#fcf6f3" d="M 322.042969 215.1875 C 322.71875 215.527344 322.71875 215.527344 322.042969 215.1875 Z M 322.042969 215.1875 " fill-opacity="0.067" fill-rule="evenodd"/><path fill="#5b4845" d="M 221.707031 217.210938 C 220.46875 217.996094 219.117188 218.503906 217.652344 218.730469 C 216.710938 218.8125 216.035156 218.472656 215.625 217.71875 C 218.410156 217.71875 220.519531 216.539062 221.960938 214.175781 C 222.050781 215.183594 221.964844 216.195312 221.707031 217.210938 Z M 221.707031 217.210938 " fill-opacity="1" fill-rule="evenodd"/><path fill="#d92f09" d="M 282.007812 204.054688 C 282.007812 204.394531 282.007812 204.730469 282.007812 205.066406 C 282.433594 205.242188 282.601562 205.578125 282.515625 206.078125 C 282.976562 211.917969 280.613281 215.96875 275.421875 218.222656 C 274.375 218.214844 273.359375 218.046875 272.378906 217.71875 C 270.898438 217.167969 269.800781 216.152344 269.085938 214.683594 C 268.835938 213.003906 268.75 211.316406 268.832031 209.621094 C 269.023438 208.398438 269.363281 207.214844 269.847656 206.078125 C 271.882812 202.199219 275.089844 200.765625 279.476562 201.777344 C 280.570312 202.28125 281.414062 203.042969 282.007812 204.054688 Z M 282.007812 204.054688 " fill-opacity="1" fill-rule="evenodd"/><path fill="#fdbf2f" d="M 282.007812 205.066406 C 282.089844 208.800781 281.074219 212.171875 278.96875 215.1875 C 276.730469 217.300781 274.199219 217.722656 271.367188 216.453125 C 270.113281 214.933594 269.605469 213.164062 269.847656 211.140625 C 269.757812 206.171875 272.121094 203.136719 276.941406 202.03125 C 279.144531 202.285156 280.832031 203.296875 282.007812 205.066406 Z M 282.007812 205.066406 " fill-opacity="1" fill-rule="evenodd"/><path fill="#e13308" d="M 276.433594 203.550781 C 277.722656 203.351562 278.820312 203.6875 279.726562 204.5625 C 279.453125 208.746094 277.847656 212.371094 274.914062 215.441406 C 272.683594 216.234375 271.671875 215.476562 271.875 213.164062 C 272.445312 209.488281 273.96875 206.285156 276.433594 203.550781 Z M 276.433594 203.550781 " fill-opacity="1" fill-rule="evenodd"/><path fill="#342827" d="M 277.449219 204.054688 C 278.574219 204.085938 279.082031 204.675781 278.96875 205.828125 C 278.261719 208.617188 277.164062 211.230469 275.675781 213.671875 C 275.046875 214.363281 274.285156 214.871094 273.394531 215.1875 C 272.660156 214.847656 272.324219 214.257812 272.378906 213.417969 C 273.226562 209.785156 274.914062 206.667969 277.449219 204.054688 Z M 277.449219 204.054688 " fill-opacity="1" fill-rule="evenodd"/><path fill="#908d8e" d="M 275.421875 207.597656 C 275.695312 207.628906 275.863281 207.796875 275.929688 208.105469 C 275.335938 209.285156 274.746094 210.464844 274.152344 211.644531 C 274.121094 210.183594 274.542969 208.835938 275.421875 207.597656 Z M 275.421875 207.597656 " fill-opacity="1" fill-rule="evenodd"/><path fill="#918f90" d="M 227.785156 216.707031 C 227.785156 216.539062 227.785156 216.367188 227.785156 216.199219 C 228.125 216.199219 228.460938 216.199219 228.800781 216.199219 C 228.886719 216.867188 228.71875 217.460938 228.292969 217.972656 C 226.839844 218.707031 225.320312 218.875 223.734375 218.476562 C 225.4375 218.449219 226.957031 217.945312 228.292969 216.960938 C 228.179688 216.757812 228.007812 216.671875 227.785156 216.707031 Z M 227.785156 216.707031 " fill-opacity="1" fill-rule="evenodd"/><path fill="#9c9b9b" d="M 266.300781 216.707031 C 266.300781 216.539062 266.300781 216.367188 266.300781 216.199219 C 267.390625 216.492188 267.558594 217.082031 266.804688 217.972656 C 265.332031 218.636719 263.8125 218.808594 262.246094 218.476562 C 263.628906 218.269531 264.980469 217.929688 266.300781 217.464844 C 266.925781 217.117188 266.925781 216.863281 266.300781 216.707031 Z M 266.300781 216.707031 " fill-opacity="1" fill-rule="evenodd"/><path fill="#a4a2a2" d="M 236.402344 217.71875 C 237.972656 217.675781 238.140625 217.925781 236.90625 218.476562 C 235.21875 218.816406 233.53125 218.816406 231.839844 218.476562 C 233.460938 218.386719 234.980469 218.132812 236.402344 217.71875 Z M 236.402344 217.71875 " fill-opacity="1" fill-rule="evenodd"/><path fill="#918f8f" d="M 248.5625 216.707031 C 248.5625 216.367188 248.730469 216.199219 249.070312 216.199219 C 249.515625 216.132812 249.851562 216.300781 250.082031 216.707031 C 248.496094 218.597656 246.46875 219.1875 244.003906 218.476562 C 245.875 218.480469 247.5625 217.972656 249.070312 216.960938 C 248.953125 216.757812 248.785156 216.671875 248.5625 216.707031 Z M 248.5625 216.707031 " fill-opacity="1" fill-rule="evenodd"/><path fill="#858384" d="M 258.699219 212.152344 C 258.003906 214.316406 257.160156 216.425781 256.164062 218.476562 C 255.488281 218.5625 254.8125 218.644531 254.136719 218.730469 C 253.207031 218.6875 252.535156 218.347656 252.109375 217.71875 C 253.125 217.71875 254.136719 217.71875 255.152344 217.71875 C 255.59375 217.785156 255.933594 217.617188 256.164062 217.210938 C 256.632812 215.277344 257.476562 213.589844 258.699219 212.152344 Z M 258.699219 212.152344 " fill-opacity="1" fill-rule="evenodd"/><path fill="#a49e9d" d="M 272.378906 217.71875 C 273.359375 218.046875 274.375 218.214844 275.421875 218.222656 C 276.621094 218.046875 277.804688 217.960938 278.96875 217.972656 C 277.003906 218.738281 274.976562 218.910156 272.886719 218.476562 C 272.605469 218.285156 272.4375 218.03125 272.378906 217.71875 Z M 272.378906 217.71875 " fill-opacity="1" fill-rule="evenodd"/><path fill="#fcf6f3" d="M 305.320312 218.730469 C 305.996094 219.066406 305.996094 219.066406 305.320312 218.730469 Z M 305.320312 218.730469 " fill-opacity="0.067" fill-rule="evenodd"/><path fill="#9e9c9d" d="M 211.570312 222.777344 C 212.300781 221.152344 212.890625 219.464844 213.34375 217.71875 C 213.746094 219.777344 213.15625 221.460938 211.570312 222.777344 Z M 211.570312 222.777344 " fill-opacity="1" fill-rule="evenodd"/><path fill="#db350b" d="M 216.132812 196.464844 C 216.132812 196.972656 216.132812 197.476562 216.132812 197.984375 C 216.382812 200.683594 215.199219 201.949219 212.585938 201.777344 C 211.746094 201.035156 211.238281 200.109375 211.0625 198.996094 C 211.683594 197.617188 211.683594 196.269531 211.0625 194.949219 C 211.0625 194.609375 210.894531 194.441406 210.558594 194.441406 C 209.578125 193.832031 208.5625 193.914062 207.515625 194.695312 C 206.546875 195.910156 205.703125 197.175781 204.984375 198.488281 C 204.558594 198.664062 204.390625 199 204.476562 199.503906 C 202.214844 203.917969 200.863281 208.640625 200.421875 213.671875 C 199.84375 215.597656 199.757812 217.621094 200.167969 219.742188 C 200.289062 220.933594 200.710938 221.945312 201.4375 222.777344 C 206.453125 223.941406 209.410156 221.917969 210.304688 216.707031 C 210.980469 216.03125 211.65625 216.03125 212.332031 216.707031 C 212.542969 218.992188 211.867188 221.019531 210.304688 222.777344 C 208.445312 224.589844 206.332031 225.9375 203.96875 226.824219 C 202.957031 226.824219 201.941406 226.824219 200.929688 226.824219 C 197.542969 225.890625 195.429688 223.695312 194.59375 220.25 C 193.269531 209.660156 196.5625 200.804688 204.476562 193.683594 C 209.34375 190.722656 213.230469 191.652344 216.132812 196.464844 Z M 216.132812 196.464844 " fill-opacity="1" fill-rule="evenodd"/><path fill="#fbb22b" d="M 211.0625 217.210938 C 211.507812 217.144531 211.847656 217.3125 212.078125 217.71875 C 208.621094 223.800781 208.28125 223.632812 211.0625 217.210938 Z M 211.0625 217.210938 " fill-opacity="1" fill-rule="evenodd"/><path fill="#fec12f" d="M 207.515625 192.925781 C 211.144531 192.332031 213.765625 193.683594 215.371094 196.972656 C 216.273438 199.851562 215.347656 201.035156 212.585938 200.515625 C 211.972656 199.175781 211.972656 197.828125 212.585938 196.464844 C 211.746094 193.394531 209.890625 192.636719 207.011719 194.1875 C 204.203125 197.515625 202.261719 201.3125 201.183594 205.574219 C 199.78125 209.695312 199.105469 213.914062 199.15625 218.222656 C 199.1875 220.191406 199.777344 221.964844 200.929688 223.535156 C 201.875 224.035156 202.886719 224.289062 203.96875 224.296875 C 205.636719 224.121094 207.160156 223.699219 208.53125 223.03125 C 205.761719 225.703125 202.554688 226.378906 198.902344 225.054688 C 195.960938 222.636719 194.609375 219.515625 194.847656 215.695312 C 195.253906 207.382812 198.460938 200.382812 204.476562 194.695312 C 205.457031 193.957031 206.46875 193.367188 207.515625 192.925781 Z M 207.515625 192.925781 " fill-opacity="1" fill-rule="evenodd"/><path fill="#8e8c8d" d="M 208.023438 195.960938 C 207.730469 197.097656 207.054688 197.941406 205.996094 198.488281 C 206.289062 197.351562 206.964844 196.507812 208.023438 195.960938 Z M 208.023438 195.960938 " fill-opacity="1" fill-rule="evenodd"/><path fill="#372421" d="M 210.558594 194.441406 C 209.324219 194.328125 208.480469 194.832031 208.023438 195.960938 C 206.964844 196.507812 206.289062 197.351562 205.996094 198.488281 C 205.660156 198.488281 205.320312 198.488281 204.984375 198.488281 C 205.703125 197.175781 206.546875 195.910156 207.515625 194.695312 C 208.5625 193.914062 209.578125 193.832031 210.558594 194.441406 Z M 210.558594 194.441406 " fill-opacity="1" fill-rule="evenodd"/><path fill="#959191" d="M 210.558594 194.441406 C 210.894531 194.441406 211.0625 194.609375 211.0625 194.949219 C 209.957031 195.050781 208.941406 195.386719 208.023438 195.960938 C 208.480469 194.832031 209.324219 194.328125 210.558594 194.441406 Z M 210.558594 194.441406 " fill-opacity="1" fill-rule="evenodd"/><path fill="#e3250f" d="M 329.136719 222.777344 C 330.902344 223.269531 332.335938 224.28125 333.445312 225.8125 C 333.730469 227.835938 334.488281 229.605469 335.722656 231.128906 C 335.5625 231.964844 335.054688 232.46875 334.203125 232.644531 C 334.96875 233.070312 335.222656 233.660156 334.964844 234.417969 C 332.640625 231.796875 331.121094 228.761719 330.402344 225.308594 C 329.710938 225.691406 329.121094 225.4375 328.628906 224.550781 C 329.054688 224.039062 329.222656 223.445312 329.136719 222.777344 Z M 329.136719 222.777344 " fill-opacity="0.993" fill-rule="evenodd"/><path fill="#7e7c7d" d="M 211.570312 222.777344 C 211.234375 224.128906 210.386719 224.96875 209.035156 225.308594 C 209.710938 224.296875 210.558594 223.453125 211.570312 222.777344 Z M 211.570312 222.777344 " fill-opacity="1" fill-rule="evenodd"/><path fill="#a3a1a1" d="M 209.035156 225.308594 C 208.402344 226.136719 207.558594 226.726562 206.503906 227.078125 C 204.546875 227.488281 202.691406 227.40625 200.929688 226.824219 C 201.941406 226.824219 202.957031 226.824219 203.96875 226.824219 C 205.746094 226.613281 207.4375 226.109375 209.035156 225.308594 Z M 209.035156 225.308594 " fill-opacity="1" fill-rule="evenodd"/><path fill="#2a67b6" d="M 292.144531 227.332031 C 295.0625 227.15625 297.933594 227.40625 300.757812 228.089844 C 301.097656 229.441406 301.433594 230.789062 301.773438 232.140625 C 304.125 233.441406 306.574219 234.535156 309.121094 235.429688 C 309.253906 236.269531 309 237.027344 308.359375 237.703125 C 308.527344 237.875 308.699219 238.042969 308.867188 238.210938 C 311.417969 238.730469 313.953125 239.320312 316.46875 239.980469 C 317.6875 241.699219 318.445312 243.554688 318.75 245.546875 C 317.988281 244.113281 316.890625 243.019531 315.453125 242.257812 C 311.398438 240.234375 307.347656 238.210938 303.292969 236.1875 C 299.832031 233.699219 296.285156 231.339844 292.652344 229.101562 C 292.226562 228.589844 292.058594 228 292.144531 227.332031 Z M 292.144531 227.332031 " fill-opacity="0.966" fill-rule="evenodd"/><path fill="#3160a5" d="M 314.949219 226.824219 C 315.359375 226.242188 315.867188 226.242188 316.46875 226.824219 C 317.347656 228.191406 318.53125 229.203125 320.015625 229.863281 C 319.929688 230.03125 319.847656 230.199219 319.761719 230.367188 C 319.199219 229.753906 318.605469 229.753906 317.988281 230.367188 C 317.332031 228.871094 316.316406 227.6875 314.949219 226.824219 Z M 314.949219 226.824219 " fill-opacity="0.318" fill-rule="evenodd"/><path fill="#463e50" d="M 317.480469 230.875 C 318.15625 231.210938 318.15625 231.210938 317.480469 230.875 Z M 317.480469 230.875 " fill-opacity="0.039" fill-rule="evenodd"/><path fill="#2065b5" d="M 322.042969 232.390625 C 323.539062 233.164062 323.960938 234.175781 323.308594 235.429688 C 322.917969 235.355469 322.578125 235.1875 322.296875 234.921875 C 322.046875 234.09375 321.960938 233.25 322.042969 232.390625 Z M 322.042969 232.390625 " fill-opacity="0.898" fill-rule="evenodd"/><path fill="#bfb0ac" d="M 170.523438 242.007812 C 170.523438 243.523438 170.523438 245.042969 170.523438 246.558594 C 171.367188 246.558594 172.210938 246.558594 173.058594 246.558594 C 174.753906 246.476562 176.445312 246.5625 178.125 246.8125 C 175.425781 247.066406 172.726562 247.148438 170.015625 247.066406 C 169.859375 245.273438 170.027344 243.585938 170.523438 242.007812 Z M 170.523438 242.007812 " fill-opacity="1" fill-rule="evenodd"/><path fill="#dd8232" d="M 170.523438 242.007812 C 173.246094 241.839844 175.949219 242.007812 178.632812 242.511719 C 176.648438 243.75 174.792969 245.097656 173.058594 246.558594 C 172.210938 246.558594 171.367188 246.558594 170.523438 246.558594 C 170.523438 245.042969 170.523438 243.523438 170.523438 242.007812 Z M 170.523438 242.007812 " fill-opacity="1" fill-rule="evenodd"/><path fill="#eb2403" d="M 171.03125 243.019531 C 172.726562 242.933594 174.417969 243.019531 176.097656 243.269531 C 174.578125 244.199219 173.058594 245.125 171.539062 246.054688 C 171.046875 245.09375 170.878906 244.082031 171.03125 243.019531 Z M 171.03125 243.019531 " fill-opacity="1" fill-rule="evenodd"/><g clip-path="url(#263ad9ec93)"><path fill="#2762b0" d="M 337.246094 255.667969 C 337.246094 256.175781 337.246094 256.679688 337.246094 257.1875 C 336.191406 257.734375 336.019531 258.492188 336.738281 259.464844 C 336.257812 259.773438 335.835938 259.691406 335.472656 259.210938 C 333.734375 256.792969 332.636719 254.09375 332.175781 251.113281 C 329.894531 250.851562 329.640625 249.839844 331.417969 248.078125 C 334.375 249.515625 335.898438 251.875 335.976562 255.160156 C 336.316406 255.542969 336.738281 255.710938 337.246094 255.667969 Z M 337.246094 255.667969 " fill-opacity="0.957" fill-rule="evenodd"/></g></svg>