<svg xmlns="http://www.w3.org/2000/svg" xmlns:xlink="http://www.w3.org/1999/xlink" width="500" zoomAndPan="magnify" viewBox="0 0 375 374.999991" height="500" preserveAspectRatio="xMidYMid meet" version="1.0"><defs><clipPath id="6febddfbf7"><path d="M 73 167.5 L 113 167.5 L 113 207 L 73 207 Z M 73 167.5 " clip-rule="nonzero"/></clipPath><clipPath id="dbf6d74778"><path d="M 57 167.5 L 70 167.5 L 70 180 L 57 180 Z M 57 167.5 " clip-rule="nonzero"/></clipPath><clipPath id="b2e2c82b2a"><path d="M 37.5 167.5 L 73 167.5 L 73 207.25 L 37.5 207.25 Z M 37.5 167.5 " clip-rule="nonzero"/></clipPath><clipPath id="e38c5f1d65"><path d="M 145 167.5 L 178 167.5 L 178 207.25 L 145 207.25 Z M 145 167.5 " clip-rule="nonzero"/></clipPath><clipPath id="1dbc877e96"><path d="M 213 167.5 L 246 167.5 L 246 207.25 L 213 207.25 Z M 213 167.5 " clip-rule="nonzero"/></clipPath><clipPath id="490f2f1b37"><path d="M 302 167.5 L 337.5 167.5 L 337.5 207.25 L 302 207.25 Z M 302 167.5 " clip-rule="nonzero"/></clipPath></defs><rect x="-37.5" width="450" fill="#ffffff" y="-37.499999" height="449.999989" fill-opacity="1"/><rect x="-37.5" width="450" fill="#000000" y="-37.499999" height="449.999989" fill-opacity="1"/><g clip-path="url(#6febddfbf7)"><path fill="#5fff90" d="M 112.601562 169.777344 C 112.667969 169.113281 112.464844 168.714844 112.265625 168.484375 C 112.066406 168.25 111.699219 168.019531 111.132812 168.019531 L 104.195312 168.019531 C 103.363281 168.019531 102.730469 168.582031 102.59375 169.410156 L 99.996094 184.09375 C 99.527344 186.777344 99.226562 188.832031 99.0625 191.085938 C 98.828125 190.359375 98.59375 189.628906 98.359375 188.933594 L 93.589844 174.648438 L 93.359375 173.953125 C 92.792969 172.164062 92.289062 170.605469 91.957031 169.210938 C 91.722656 168.449219 91.15625 167.988281 90.390625 167.988281 L 81.6875 167.988281 C 80.851562 167.988281 80.1875 168.550781 80.085938 169.378906 L 73.949219 204.90625 L 73.949219 204.972656 C 73.882812 205.605469 74.082031 206 74.316406 206.199219 C 74.515625 206.433594 74.882812 206.664062 75.449219 206.664062 L 82.386719 206.664062 C 83.21875 206.664062 83.886719 206.101562 83.988281 205.273438 L 86.488281 190.6875 C 86.988281 187.804688 87.289062 185.652344 87.457031 183.265625 L 88.15625 185.417969 L 92.957031 200.035156 C 93.558594 201.824219 94.058594 203.582031 94.558594 205.472656 C 94.792969 206.234375 95.359375 206.699219 96.125 206.699219 L 104.863281 206.699219 C 105.695312 206.699219 106.332031 206.132812 106.464844 205.304688 Z M 112.601562 169.777344 " fill-opacity="1" fill-rule="nonzero"/></g><path fill="#5fff90" d="M 145.714844 168.648438 C 145.582031 168.417969 145.214844 168.019531 144.414062 168.019531 L 119.804688 168.019531 C 118.96875 168.019531 118.335938 168.582031 118.203125 169.410156 L 112.066406 204.90625 L 112.066406 204.972656 C 112 205.605469 112.199219 206 112.433594 206.199219 C 112.632812 206.433594 113 206.664062 113.566406 206.664062 L 137.945312 206.664062 C 138.777344 206.664062 139.445312 206.101562 139.546875 205.273438 L 140.578125 199.339844 L 140.578125 199.304688 C 140.644531 198.675781 140.445312 198.277344 140.210938 198.082031 C 140.011719 197.847656 139.644531 197.617188 139.078125 197.617188 L 123.4375 197.617188 L 124.539062 191.453125 L 136.34375 191.453125 C 137.175781 191.453125 137.8125 190.886719 137.945312 190.058594 L 139.011719 184.128906 L 139.011719 184.0625 C 139.078125 183.429688 138.878906 183.035156 138.644531 182.835938 C 138.445312 182.601562 138.078125 182.371094 137.511719 182.371094 L 126.074219 182.371094 L 127.007812 177.300781 L 141.480469 177.300781 C 142.246094 177.300781 142.78125 176.933594 143.046875 176.238281 L 145.75 170.171875 C 146.082031 169.378906 145.847656 168.882812 145.714844 168.648438 Z M 145.714844 168.648438 " fill-opacity="1" fill-rule="nonzero"/><g clip-path="url(#dbf6d74778)"><path fill="#ffcb00" d="M 69.414062 172.394531 C 69.347656 172.328125 69.28125 172.195312 69.148438 172.128906 C 68.515625 171.398438 67.8125 170.738281 67.011719 170.171875 C 65.210938 168.847656 62.945312 167.953125 60.277344 167.621094 L 60.175781 168.085938 L 60.078125 168.484375 L 58.042969 175.90625 L 57.941406 176.339844 L 57.84375 176.800781 C 59.777344 176.867188 61.011719 177.796875 61.644531 179.054688 L 62.011719 178.757812 L 62.34375 178.460938 L 68.714844 172.992188 L 69.046875 172.691406 Z M 69.414062 172.394531 " fill-opacity="1" fill-rule="nonzero"/></g><path fill="#ffff66" d="M 70.714844 174.382812 L 70.347656 174.679688 L 69.980469 174.980469 L 63.144531 180.8125 L 62.746094 181.144531 L 62.34375 181.476562 C 62.410156 182.070312 62.445312 182.601562 62.445312 183.164062 C 62.445312 183.796875 62.410156 184.492188 62.34375 185.253906 L 62.777344 185.21875 L 63.210938 185.1875 L 71.613281 184.191406 L 72.046875 184.160156 L 72.515625 184.09375 C 72.515625 183.695312 72.550781 183.332031 72.550781 182.933594 C 72.582031 179.585938 71.914062 176.703125 70.714844 174.382812 Z M 70.714844 174.382812 " fill-opacity="1" fill-rule="nonzero"/><g clip-path="url(#b2e2c82b2a)"><path fill="#5fff90" d="M 60.109375 192.746094 C 58.808594 195.128906 56.476562 197.949219 52.574219 197.949219 C 51.875 197.949219 51.273438 197.847656 50.738281 197.648438 C 48.039062 196.65625 47.570312 193.441406 47.570312 191.417969 C 47.570312 188.898438 48.203125 185.023438 49.90625 181.90625 C 50.871094 180.148438 52.007812 178.855469 53.308594 177.996094 C 53.875 177.632812 54.472656 177.332031 55.109375 177.167969 L 57.476562 167.523438 C 42.835938 167.753906 37.5 182.070312 37.5 191.75 C 37.5 196.457031 38.832031 200.367188 41.402344 203.050781 C 43.835938 205.605469 47.269531 207.0625 51.472656 207.261719 C 51.773438 207.261719 52.039062 207.261719 52.304688 207.261719 C 58.941406 207.261719 64.378906 204.277344 68.082031 198.644531 C 68.546875 197.914062 69.015625 197.152344 69.414062 196.324219 C 71.179688 193.109375 72.183594 189.527344 72.582031 186.214844 L 62.078125 187.210938 C 61.675781 189 61.042969 190.988281 60.109375 192.746094 Z M 60.109375 192.746094 " fill-opacity="1" fill-rule="nonzero"/></g><g clip-path="url(#e38c5f1d65)"><path fill="#ffffff" d="M 177.195312 172.425781 C 177.460938 171.863281 177.496094 171.234375 177.261719 170.703125 C 177.027344 170.207031 176.628906 169.84375 176.0625 169.675781 L 174.09375 168.980469 C 171.359375 167.953125 169.023438 167.523438 166.355469 167.523438 C 151.351562 167.523438 145.914062 181.941406 145.914062 191.617188 C 145.914062 201.230469 151.515625 207.195312 160.519531 207.195312 C 163.523438 207.195312 165.890625 206.863281 168.390625 206.101562 L 170.960938 205.304688 C 171.960938 205.007812 172.558594 204.113281 172.394531 203.050781 L 171.394531 197.980469 C 171.257812 197.152344 170.792969 196.753906 170.527344 196.589844 C 170.257812 196.421875 169.660156 196.191406 168.859375 196.457031 L 166.492188 197.152344 C 164.355469 197.78125 162.824219 198.046875 161.253906 198.046875 C 156.320312 198.046875 155.6875 194.402344 155.6875 191.21875 C 155.6875 186.445312 158.1875 176.539062 165.855469 176.539062 C 167.792969 176.539062 168.925781 176.703125 170.191406 177.199219 L 172.292969 177.929688 C 172.792969 178.128906 173.328125 178.128906 173.792969 177.960938 C 174.261719 177.761719 174.628906 177.398438 174.859375 176.933594 Z M 177.195312 172.425781 " fill-opacity="1" fill-rule="nonzero"/></g><path fill="#ffffff" d="M 206.742188 183.363281 C 205.808594 178.394531 205.140625 174.21875 204.875 169.941406 L 204.875 169.875 C 204.742188 168.75 203.941406 168.019531 202.839844 168.019531 L 195.101562 168.019531 C 194.234375 168.019531 193.535156 168.449219 193.136719 169.246094 L 193.101562 169.34375 C 191.167969 174.085938 188.667969 178.789062 186.464844 182.933594 L 175.09375 203.8125 C 174.726562 204.445312 174.695312 205.140625 175.027344 205.703125 C 175.359375 206.265625 175.996094 206.632812 176.730469 206.632812 L 182.898438 206.632812 C 184.03125 206.632812 184.566406 205.933594 184.765625 205.667969 L 187.367188 200.832031 L 200.539062 200.832031 L 201.371094 204.90625 C 201.539062 205.933594 202.375 206.632812 203.40625 206.632812 L 209.109375 206.632812 C 209.742188 206.632812 210.277344 206.367188 210.644531 205.933594 C 211.011719 205.472656 211.109375 204.90625 210.976562 204.277344 Z M 198.203125 189.265625 L 198.738281 191.914062 L 192.203125 191.914062 L 193.4375 189.660156 C 194.804688 187.175781 196.105469 184.589844 197.136719 182.335938 C 197.371094 184.523438 197.769531 186.976562 198.203125 189.265625 Z M 198.203125 189.265625 " fill-opacity="1" fill-rule="nonzero"/><g clip-path="url(#1dbc877e96)"><path fill="#ffffff" d="M 244.523438 170.074219 L 241.65625 169.078125 C 238.65625 168.019531 235.988281 167.523438 233.285156 167.523438 C 228.050781 167.523438 224.015625 168.980469 221.316406 171.832031 C 219.113281 174.117188 217.914062 177.300781 217.914062 180.746094 C 217.914062 185.882812 221.046875 188.171875 226.082031 190.226562 L 230.917969 192.148438 C 233.886719 193.339844 233.886719 194.433594 233.886719 194.929688 C 233.886719 197.285156 230.984375 198.113281 228.25 198.113281 C 225.851562 198.113281 223.78125 197.75 221.347656 196.886719 L 218.78125 195.925781 C 218.28125 195.726562 217.714844 195.695312 217.246094 195.894531 C 216.78125 196.089844 216.414062 196.457031 216.179688 196.953125 L 213.910156 201.527344 C 213.613281 202.089844 213.578125 202.6875 213.8125 203.21875 C 214.046875 203.714844 214.480469 204.113281 215.046875 204.277344 L 217.847656 205.273438 C 221.613281 206.632812 224.683594 207.226562 227.71875 207.226562 C 233.21875 207.226562 237.421875 205.734375 240.222656 202.851562 C 242.457031 200.53125 243.660156 197.285156 243.660156 193.738281 C 243.660156 188.203125 239.523438 185.75 235.085938 183.960938 L 230.484375 182.136719 C 227.652344 180.976562 227.652344 180.214844 227.652344 179.882812 C 227.652344 176.902344 231.554688 176.667969 232.71875 176.667969 C 234.488281 176.667969 236.222656 176.96875 238.054688 177.597656 L 240.625 178.492188 C 241.089844 178.691406 241.589844 178.726562 242.058594 178.558594 C 242.558594 178.394531 242.925781 177.996094 243.15625 177.5 L 245.59375 172.957031 L 245.625 172.925781 C 245.894531 172.359375 245.925781 171.730469 245.691406 171.203125 C 245.492188 170.636719 245.09375 170.273438 244.523438 170.074219 Z M 244.523438 170.074219 " fill-opacity="1" fill-rule="nonzero"/></g><path fill="#ffffff" d="M 299.417969 168.019531 L 293.679688 168.019531 C 292.613281 168.019531 291.78125 168.75 291.644531 169.742188 L 288.8125 186.578125 C 288.613281 187.839844 288.410156 188.933594 288.3125 189.960938 L 282.308594 174.714844 L 282.308594 174.679688 C 281.675781 172.824219 281.074219 171.035156 280.640625 169.578125 C 280.375 168.617188 279.609375 168.050781 278.574219 168.050781 L 271.539062 168.050781 C 270.46875 168.050781 269.636719 168.78125 269.503906 169.777344 L 263.601562 204.34375 L 263.601562 204.410156 C 263.535156 205.007812 263.699219 205.570312 264.066406 206 C 264.433594 206.398438 264.96875 206.632812 265.566406 206.632812 L 271.269531 206.632812 C 272.335938 206.632812 273.171875 205.902344 273.304688 204.90625 L 276.140625 188.171875 C 276.339844 186.84375 276.507812 185.652344 276.640625 184.523438 L 282.710938 199.96875 C 283.375 201.792969 283.910156 203.417969 284.375 205.105469 C 284.644531 206.066406 285.410156 206.632812 286.445312 206.632812 L 293.480469 206.632812 C 294.546875 206.632812 295.382812 205.902344 295.515625 204.90625 L 301.351562 170.339844 L 301.351562 170.273438 C 301.417969 169.675781 301.25 169.113281 300.882812 168.683594 C 300.515625 168.25 300.015625 168.019531 299.417969 168.019531 Z M 299.417969 168.019531 " fill-opacity="1" fill-rule="nonzero"/><g clip-path="url(#490f2f1b37)"><path fill="#ffffff" d="M 322.894531 167.523438 C 308.1875 167.523438 302.851562 181.941406 302.851562 191.652344 C 302.851562 201.230469 308.453125 207.195312 317.457031 207.195312 C 324.027344 207.195312 329.429688 204.210938 333.097656 198.542969 C 335.867188 194.269531 337.5 188.4375 337.5 182.96875 C 337.5 173.289062 332.0625 167.523438 322.894531 167.523438 Z M 317.757812 198.082031 C 314.355469 198.082031 312.621094 195.859375 312.621094 191.453125 C 312.621094 188.832031 313.257812 184.890625 315.023438 181.675781 C 316.890625 178.292969 319.457031 176.570312 322.660156 176.570312 C 326.027344 176.570312 327.730469 178.789062 327.730469 183.164062 C 327.730469 188.039062 325.292969 198.082031 317.757812 198.082031 Z M 317.757812 198.082031 " fill-opacity="1" fill-rule="nonzero"/></g><path fill="#ffffff" d="M 263.367188 169.046875 C 263.433594 168.417969 263.101562 168.019531 262.5 168.019531 L 253.664062 168.019531 C 253.128906 168.019531 252.695312 168.351562 252.628906 168.882812 L 246.191406 205.539062 C 246.125 206.167969 246.460938 206.566406 247.058594 206.566406 L 255.964844 206.566406 C 256.496094 206.566406 256.929688 206.234375 256.996094 205.703125 Z M 263.367188 169.046875 " fill-opacity="1" fill-rule="nonzero"/></svg>