<svg xmlns="http://www.w3.org/2000/svg" xmlns:xlink="http://www.w3.org/1999/xlink" width="500" zoomAndPan="magnify" viewBox="0 0 375 374.999991" height="500" preserveAspectRatio="xMidYMid meet" version="1.0"><defs><clipPath id="21ae6b2e0d"><path d="M 37.5 149 L 219 149 L 219 227 L 37.5 227 Z M 37.5 149 " clip-rule="nonzero"/></clipPath><clipPath id="0833aaf0af"><path d="M 206 149 L 337.5 149 L 337.5 227 L 206 227 Z M 206 149 " clip-rule="nonzero"/></clipPath></defs><rect x="-37.5" width="450" fill="#ffffff" y="-37.499999" height="449.999989" fill-opacity="1"/><rect x="-37.5" width="450" fill="#000000" y="-37.499999" height="449.999989" fill-opacity="1"/><g clip-path="url(#21ae6b2e0d)"><path fill="#41f2c0" d="M 46.09375 149.0625 C 41.34375 149.0625 37.5 152.902344 37.5 157.640625 L 37.5 217.640625 C 37.5 222.375 41.34375 226.21875 46.09375 226.21875 L 204.914062 226.21875 L 218.445312 149.0625 Z M 46.09375 149.0625 " fill-opacity="1" fill-rule="nonzero"/></g><path fill="#000000" d="M 78 201.972656 C 78.066406 205.902344 77.042969 209.257812 74.925781 212.039062 C 73.535156 213.9375 71.578125 215.261719 69.050781 216.023438 C 67.679688 216.457031 66.097656 216.671875 64.296875 216.671875 C 60.933594 216.671875 58.15625 215.851562 55.960938 214.207031 C 54.136719 212.84375 52.683594 211.003906 51.609375 208.6875 C 50.53125 206.375 49.910156 203.703125 49.742188 200.675781 L 57.859375 200.125 C 58.234375 203.394531 59.113281 205.761719 60.503906 207.226562 C 61.519531 208.335938 62.691406 208.859375 64.015625 208.800781 C 65.882812 208.738281 67.378906 207.832031 68.496094 206.085938 C 69.078125 205.199219 69.367188 203.953125 69.367188 202.347656 C 69.367188 199.980469 68.300781 197.640625 66.160156 195.335938 C 64.46875 193.75 61.921875 191.371094 58.542969 188.203125 C 55.703125 185.484375 53.703125 183.039062 52.546875 180.886719 C 51.28125 178.453125 50.648438 175.820312 50.648438 172.980469 C 50.648438 167.855469 52.378906 163.96875 55.84375 161.335938 C 57.980469 159.75 60.632812 158.957031 63.800781 158.957031 C 66.96875 158.957031 69.460938 159.632812 71.632812 160.992188 C 73.316406 162.046875 74.671875 163.511719 75.707031 165.394531 C 76.746094 167.277344 77.378906 169.445312 77.605469 171.898438 L 69.394531 173.375 C 69.167969 171.066406 68.503906 169.277344 67.40625 168 C 66.617188 167.054688 65.484375 166.585938 64.011719 166.585938 C 62.460938 166.585938 61.265625 167.269531 60.4375 168.652344 C 59.769531 169.761719 59.4375 171.144531 59.4375 172.785156 C 59.4375 175.363281 60.558594 177.984375 62.800781 180.667969 C 63.648438 181.675781 64.910156 182.863281 66.589844 184.246094 C 68.582031 185.894531 69.902344 187.042969 70.539062 187.703125 C 72.628906 189.804688 74.261719 191.875 75.417969 193.910156 C 75.960938 194.859375 76.398438 195.75 76.726562 196.570312 C 77.535156 198.5625 77.957031 200.363281 78 201.976562 Z M 78 201.972656 " fill-opacity="1" fill-rule="nonzero"/><path fill="#000000" d="M 98.527344 216.671875 C 94.753906 216.671875 91.546875 215.363281 88.921875 212.753906 C 86.289062 210.136719 84.972656 206.96875 84.972656 203.238281 L 84.972656 172.382812 C 84.972656 168.660156 86.300781 165.484375 88.953125 162.859375 C 91.609375 160.234375 94.804688 158.925781 98.53125 158.925781 C 102.265625 158.925781 105.5 160.238281 108.128906 162.875 C 110.75 165.511719 112.0625 168.6875 112.0625 172.390625 L 112.0625 178.816406 L 103.195312 178.816406 L 103.195312 172.238281 C 103.195312 170.878906 102.71875 169.722656 101.75 168.761719 C 100.789062 167.808594 99.621094 167.324219 98.253906 167.324219 C 96.886719 167.324219 95.757812 167.800781 94.804688 168.761719 C 93.847656 169.714844 93.371094 170.878906 93.371094 172.238281 L 93.371094 203.15625 C 93.371094 204.519531 93.847656 205.667969 94.804688 206.613281 C 95.757812 207.558594 96.910156 208.03125 98.253906 208.03125 C 99.601562 208.03125 100.789062 207.558594 101.75 206.613281 C 102.71875 205.667969 103.195312 204.515625 103.195312 203.15625 L 103.195312 195.402344 L 112.0625 195.402344 L 112.0625 203.25 C 112.0625 206.996094 110.734375 210.167969 108.078125 212.773438 C 105.425781 215.382812 102.246094 216.679688 98.53125 216.679688 Z M 98.527344 216.671875 " fill-opacity="1" fill-rule="nonzero"/><path fill="#000000" d="M 132.417969 158.953125 C 136.191406 158.953125 139.402344 160.269531 142.039062 162.90625 C 144.6875 165.546875 146.007812 168.722656 146.007812 172.449219 L 146.007812 203.179688 C 146.007812 206.929688 144.683594 210.117188 142.03125 212.738281 C 139.371094 215.363281 136.171875 216.675781 132.417969 216.675781 C 128.667969 216.675781 125.484375 215.359375 122.859375 212.71875 C 120.234375 210.089844 118.925781 206.90625 118.925781 203.179688 L 118.925781 172.445312 C 118.925781 168.695312 120.25 165.507812 122.910156 162.886719 C 125.5625 160.261719 128.730469 158.953125 132.425781 158.953125 Z M 137.082031 172.289062 C 137.082031 170.933594 136.609375 169.785156 135.671875 168.847656 C 134.730469 167.914062 133.570312 167.441406 132.203125 167.441406 C 130.835938 167.441406 129.703125 167.914062 128.734375 168.847656 C 127.777344 169.785156 127.289062 170.933594 127.289062 172.289062 L 127.289062 203.113281 C 127.289062 204.457031 127.769531 205.597656 128.734375 206.539062 C 129.703125 207.488281 130.859375 207.960938 132.203125 207.960938 C 133.550781 207.960938 134.730469 207.488281 135.671875 206.539062 C 136.609375 205.597656 137.082031 204.457031 137.082031 203.113281 Z M 137.082031 172.289062 " fill-opacity="1" fill-rule="nonzero"/><path fill="#000000" d="M 167.03125 159.628906 C 171.796875 159.628906 175.289062 160.941406 177.507812 163.550781 C 179.476562 165.835938 180.457031 169.007812 180.457031 173.066406 L 180.457031 181.25 C 180.457031 185.242188 178.941406 188.609375 175.894531 191.347656 L 182.230469 215.964844 L 173.011719 215.964844 L 167.796875 194.6875 C 167.550781 194.703125 167.289062 194.714844 167.023438 194.714844 L 162.121094 194.714844 L 162.121094 215.964844 L 153.570312 215.964844 L 153.570312 159.628906 L 167.035156 159.628906 Z M 172.128906 173.214844 C 172.128906 169.945312 170.503906 168.304688 167.261719 168.304688 L 162.113281 168.304688 L 162.113281 186.316406 L 167.261719 186.316406 C 168.628906 186.316406 169.773438 185.839844 170.71875 184.878906 C 171.660156 183.921875 172.128906 182.773438 172.128906 181.433594 Z M 172.128906 173.214844 " fill-opacity="1" fill-rule="nonzero"/><path fill="#000000" d="M 189.578125 159.628906 L 198.125 159.628906 L 198.125 215.964844 L 189.578125 215.964844 Z M 189.578125 159.628906 " fill-opacity="1" fill-rule="nonzero"/><g clip-path="url(#0833aaf0af)"><path fill="#ffffff" d="M 328.878906 149.0625 L 220.4375 149.0625 L 206.863281 226.210938 L 328.878906 226.210938 C 333.640625 226.210938 337.5 222.375 337.5 217.636719 L 337.5 157.640625 C 337.5 152.90625 333.640625 149.0625 328.878906 149.0625 Z M 328.878906 149.0625 " fill-opacity="1" fill-rule="nonzero"/></g><path fill="#000000" d="M 241.71875 159.628906 C 245.894531 159.628906 249.222656 160.941406 251.695312 163.550781 C 254.003906 166.042969 255.15625 169.210938 255.15625 173.066406 L 255.15625 181.25 C 255.15625 184.960938 253.855469 188.128906 251.238281 190.765625 C 248.625 193.402344 245.460938 194.722656 241.746094 194.722656 L 236.792969 194.722656 L 236.792969 215.96875 L 228.222656 215.96875 L 228.222656 159.628906 L 241.726562 159.628906 Z M 246.832031 173.214844 C 246.832031 171.738281 246.394531 170.546875 245.507812 169.652344 C 244.628906 168.75 243.441406 168.304688 241.949219 168.304688 L 236.792969 168.304688 L 236.792969 186.316406 L 241.949219 186.316406 C 243.324219 186.316406 244.476562 185.839844 245.417969 184.878906 C 246.363281 183.921875 246.832031 182.773438 246.832031 181.433594 Z M 246.832031 173.214844 " fill-opacity="1" fill-rule="nonzero"/><path fill="#000000" d="M 275.523438 159.628906 C 280.304688 159.628906 283.808594 160.941406 286.027344 163.550781 C 288.007812 165.835938 288.992188 169.007812 288.992188 173.066406 L 288.992188 181.25 C 288.992188 185.242188 287.464844 188.609375 284.414062 191.347656 L 290.773438 215.964844 L 281.519531 215.964844 L 276.289062 194.6875 C 276.035156 194.703125 275.785156 194.714844 275.511719 194.714844 L 270.589844 194.714844 L 270.589844 215.964844 L 262.019531 215.964844 L 262.019531 159.628906 Z M 280.636719 173.214844 C 280.636719 169.945312 279.011719 168.304688 275.757812 168.304688 L 270.597656 168.304688 L 270.597656 186.316406 L 275.757812 186.316406 C 277.128906 186.316406 278.285156 185.839844 279.226562 184.878906 C 280.171875 183.921875 280.636719 182.773438 280.636719 181.433594 Z M 280.636719 173.214844 " fill-opacity="1" fill-rule="nonzero"/><path fill="#000000" d="M 310.203125 158.953125 C 313.988281 158.953125 317.203125 160.269531 319.851562 162.90625 C 322.503906 165.546875 323.828125 168.722656 323.828125 172.449219 L 323.828125 203.179688 C 323.828125 206.929688 322.5 210.117188 319.835938 212.738281 C 317.175781 215.363281 313.960938 216.675781 310.203125 216.675781 C 306.4375 216.675781 303.238281 215.359375 300.613281 212.71875 C 297.980469 210.089844 296.667969 206.90625 296.667969 203.179688 L 296.667969 172.445312 C 296.667969 168.695312 297.996094 165.507812 300.660156 162.886719 C 303.324219 160.261719 306.503906 158.953125 310.203125 158.953125 Z M 314.871094 172.289062 C 314.871094 170.933594 314.398438 169.785156 313.457031 168.847656 C 312.511719 167.914062 311.347656 167.441406 309.976562 167.441406 C 308.609375 167.441406 307.46875 167.914062 306.503906 168.847656 C 305.539062 169.785156 305.050781 170.933594 305.050781 172.289062 L 305.050781 203.113281 C 305.050781 204.457031 305.53125 205.597656 306.503906 206.539062 C 307.46875 207.488281 308.625 207.960938 309.976562 207.960938 C 311.328125 207.960938 312.511719 207.488281 313.457031 206.539062 C 314.398438 205.597656 314.871094 204.457031 314.871094 203.113281 Z M 314.871094 172.289062 " fill-opacity="1" fill-rule="nonzero"/></svg>