<svg xmlns="http://www.w3.org/2000/svg" xmlns:xlink="http://www.w3.org/1999/xlink" width="500" zoomAndPan="magnify" viewBox="0 0 375 374.999991" height="500" preserveAspectRatio="xMidYMid meet" version="1.0"><defs><clipPath id="d55d7efdce"><path d="M 299 163 L 337.5 163 L 337.5 209 L 299 209 Z M 299 163 " clip-rule="nonzero"/></clipPath><clipPath id="b6a9989e2d"><path d="M 299 153.742188 L 321 153.742188 L 321 179 L 299 179 Z M 299 153.742188 " clip-rule="nonzero"/></clipPath><clipPath id="52077621c9"><path d="M 37.5 156 L 278 156 L 278 218 L 37.5 218 Z M 37.5 156 " clip-rule="nonzero"/></clipPath></defs><rect x="-37.5" width="450" fill="#ffffff" y="-37.499999" height="449.999989" fill-opacity="1"/><rect x="-37.5" width="450" fill="#000000" y="-37.499999" height="449.999989" fill-opacity="1"/><g clip-path="url(#d55d7efdce)"><path fill="#ff4200" d="M 319.765625 173.699219 C 322.699219 170.765625 324.050781 166.890625 323.757812 163.015625 L 327.335938 166.597656 L 334.441406 173.699219 C 338.492188 177.75 338.492188 184.324219 334.441406 188.375 L 317.296875 205.511719 C 313.246094 209.5625 306.671875 209.5625 302.621094 205.511719 C 298.570312 201.460938 298.570312 194.886719 302.621094 190.839844 Z M 319.765625 173.699219 " fill-opacity="1" fill-rule="nonzero"/></g><g clip-path="url(#b6a9989e2d)"><path fill="#8f00ff" d="M 317.296875 156.558594 C 321.347656 160.609375 321.347656 167.183594 317.296875 171.234375 L 309.960938 178.570312 L 302.621094 171.234375 C 298.570312 167.183594 298.570312 160.609375 302.621094 156.558594 C 306.671875 152.511719 313.246094 152.511719 317.296875 156.558594 Z M 317.296875 156.558594 " fill-opacity="1" fill-rule="nonzero"/></g><g clip-path="url(#52077621c9)"><path fill="#ffffff" d="M 76.253906 167.183594 C 66.683594 167.183594 58.933594 174.933594 58.933594 184.5 C 58.933594 194.066406 66.742188 201.8125 76.253906 201.8125 C 85.761719 201.8125 93.570312 194.066406 93.570312 184.5 C 93.570312 174.933594 85.820312 167.183594 76.253906 167.183594 Z M 76.253906 194.886719 C 70.5 194.886719 65.863281 190.25 65.863281 184.5 C 65.863281 178.746094 70.558594 174.109375 76.253906 174.109375 C 81.945312 174.109375 86.644531 178.746094 86.644531 184.5 C 86.644531 190.25 82.003906 194.886719 76.253906 194.886719 Z M 198.832031 167.183594 C 194.957031 167.183594 191.316406 168.476562 188.4375 170.648438 L 188.4375 160.257812 C 188.4375 158.320312 186.914062 156.792969 184.976562 156.792969 L 181.511719 156.792969 L 181.511719 201.8125 L 188.4375 201.8125 L 188.4375 198.351562 C 191.316406 200.523438 194.957031 201.8125 198.832031 201.8125 C 208.398438 201.8125 216.148438 194.066406 216.148438 184.5 C 216.148438 174.933594 208.398438 167.183594 198.832031 167.183594 Z M 198.832031 194.886719 C 193.078125 194.886719 188.4375 190.25 188.4375 184.5 C 188.4375 178.746094 193.078125 174.109375 198.832031 174.109375 C 204.582031 174.109375 209.222656 178.746094 209.222656 184.5 C 209.222656 190.25 204.582031 194.886719 198.832031 194.886719 Z M 167.011719 167.183594 L 173.9375 167.183594 L 173.9375 199.761719 C 173.9375 209.269531 166.425781 217.191406 156.914062 217.367188 C 147.226562 217.542969 139.300781 209.738281 139.300781 200.054688 L 143.175781 200.054688 C 144.761719 200.054688 146.113281 201.109375 146.523438 202.636719 C 147.699219 207.214844 151.925781 210.558594 156.914062 210.441406 C 162.550781 210.265625 167.011719 205.511719 167.011719 199.820312 L 167.011719 194.828125 C 164.078125 197 160.4375 198.292969 156.503906 198.292969 C 146.933594 198.234375 139.300781 190.25 139.300781 180.683594 L 139.300781 167.183594 L 142.765625 167.183594 C 144.703125 167.183594 146.230469 168.710938 146.230469 170.648438 L 146.230469 180.800781 C 146.230469 186.4375 150.632812 191.25 156.328125 191.425781 C 162.199219 191.601562 167.011719 186.847656 167.011719 181.035156 Z M 133.078125 184.5 L 133.078125 201.8125 L 129.617188 201.8125 C 127.679688 201.8125 126.152344 200.289062 126.152344 198.351562 L 126.152344 184.5 C 126.152344 178.746094 121.515625 174.109375 115.761719 174.109375 C 110.007812 174.109375 105.371094 178.746094 105.371094 184.5 L 105.371094 201.8125 L 98.441406 201.8125 L 98.441406 167.183594 L 105.371094 167.183594 L 105.371094 170.648438 C 108.246094 168.476562 111.886719 167.183594 115.761719 167.183594 C 125.332031 167.183594 133.078125 174.933594 133.078125 184.5 Z M 54.824219 194.886719 L 54.824219 201.8125 C 45.253906 201.8125 37.507812 194.066406 37.507812 184.5 L 37.507812 160.257812 L 40.96875 160.257812 C 42.90625 160.257812 44.433594 161.785156 44.433594 163.722656 L 44.433594 167.183594 L 54.824219 167.183594 L 54.824219 174.109375 L 44.433594 174.109375 L 44.433594 184.5 C 44.433594 190.191406 49.070312 194.886719 54.824219 194.886719 Z M 266.695312 174.109375 L 266.695312 184.5 C 266.695312 190.25 271.332031 194.886719 277.085938 194.886719 L 277.085938 201.8125 C 267.515625 201.8125 259.765625 194.066406 259.765625 184.5 L 259.765625 160.257812 L 263.230469 160.257812 C 265.167969 160.257812 266.695312 161.785156 266.695312 163.722656 L 266.695312 167.183594 L 277.085938 167.183594 L 277.085938 174.109375 Z M 254.425781 186.90625 C 254.542969 186.144531 254.601562 185.320312 254.601562 184.5 C 254.601562 174.695312 246.5 166.832031 236.636719 167.183594 C 227.65625 167.535156 220.375 174.8125 220.023438 183.792969 C 219.671875 193.65625 227.539062 201.753906 237.339844 201.753906 C 242.976562 201.753906 247.96875 199.054688 251.078125 194.945312 L 248.964844 193.714844 C 246.910156 192.539062 244.328125 192.480469 242.214844 193.597656 C 240.511719 194.535156 238.515625 195.003906 236.402344 194.769531 C 231.941406 194.359375 228.242188 191.132812 227.183594 186.847656 L 254.425781 186.847656 Z M 238.339844 174.167969 C 242.332031 174.578125 245.734375 177.339844 247.027344 181.035156 L 227.480469 181.035156 C 229.003906 176.691406 233.347656 173.640625 238.339844 174.167969 Z M 238.339844 174.167969 " fill-opacity="1" fill-rule="nonzero"/></g></svg>