<svg xmlns="http://www.w3.org/2000/svg" xmlns:xlink="http://www.w3.org/1999/xlink" width="500" zoomAndPan="magnify" viewBox="0 0 375 374.999991" height="500" preserveAspectRatio="xMidYMid meet" version="1.0"><defs><clipPath id="d1bef232b9"><path d="M 219 209 L 251 209 L 251 240.816406 L 219 240.816406 Z M 219 209 " clip-rule="nonzero"/></clipPath><clipPath id="1c1acb28ac"><path d="M 251 209 L 283 209 L 283 240.816406 L 251 240.816406 Z M 251 209 " clip-rule="nonzero"/></clipPath><clipPath id="d66670a12b"><path d="M 92 209 L 124 209 L 124 240.816406 L 92 240.816406 Z M 92 209 " clip-rule="nonzero"/></clipPath><clipPath id="a554d6a09a"><path d="M 124 209 L 156 209 L 156 240.816406 L 124 240.816406 Z M 124 209 " clip-rule="nonzero"/></clipPath><clipPath id="339f159185"><path d="M 187 209 L 219 209 L 219 240.816406 L 187 240.816406 Z M 187 209 " clip-rule="nonzero"/></clipPath><clipPath id="8c11ceee42"><path d="M 156 209 L 187 209 L 187 240.816406 L 156 240.816406 Z M 156 209 " clip-rule="nonzero"/></clipPath><clipPath id="2f98fbc2cf"><path d="M 239 134.316406 L 283 134.316406 L 283 194 L 239 194 Z M 239 134.316406 " clip-rule="nonzero"/></clipPath><clipPath id="d03b0b7296"><path d="M 95 134.316406 L 145 134.316406 L 145 194 L 95 194 Z M 95 134.316406 " clip-rule="nonzero"/></clipPath><clipPath id="acd15b6276"><path d="M 37.5 134.316406 L 85 134.316406 L 85 196 L 37.5 196 Z M 37.5 134.316406 " clip-rule="nonzero"/></clipPath><clipPath id="41f92c8cf4"><path d="M 155 134.316406 L 172 134.316406 L 172 194 L 155 194 Z M 155 134.316406 " clip-rule="nonzero"/></clipPath><clipPath id="fa5b7a8980"><path d="M 182 134.316406 L 231 134.316406 L 231 194 L 182 194 Z M 182 134.316406 " clip-rule="nonzero"/></clipPath><clipPath id="47668076c4"><path d="M 290 134.316406 L 337.5 134.316406 L 337.5 194 L 290 194 Z M 290 134.316406 " clip-rule="nonzero"/></clipPath></defs><rect x="-37.5" width="450" fill="#ffffff" y="-37.499999" height="449.999989" fill-opacity="1"/><rect x="-37.5" width="450" fill="#147b45" y="-37.499999" height="449.999989" fill-opacity="1"/><g clip-path="url(#d1bef232b9)"><path fill="#3aaa35" d="M 234.988281 209.804688 C 226.519531 209.804688 219.652344 216.746094 219.652344 225.3125 C 219.652344 233.882812 226.519531 240.824219 234.988281 240.824219 C 243.457031 240.824219 250.320312 233.882812 250.320312 225.3125 C 250.320312 216.746094 243.457031 209.804688 234.988281 209.804688 Z M 234.988281 209.804688 " fill-opacity="0.95" fill-rule="nonzero"/></g><g clip-path="url(#1c1acb28ac)"><path fill="#3aaa35" d="M 266.675781 209.804688 C 258.203125 209.804688 251.339844 216.746094 251.339844 225.3125 C 251.339844 233.878906 258.203125 240.824219 266.675781 240.824219 C 275.144531 240.824219 282.011719 233.878906 282.011719 225.3125 C 282.011719 216.746094 275.144531 209.804688 266.675781 209.804688 Z M 266.675781 209.804688 " fill-opacity="1" fill-rule="nonzero"/></g><g clip-path="url(#d66670a12b)"><path fill="#3aaa35" d="M 108.234375 209.804688 C 99.769531 209.804688 92.902344 216.746094 92.902344 225.3125 C 92.902344 233.882812 99.769531 240.824219 108.234375 240.824219 C 116.707031 240.824219 123.570312 233.882812 123.570312 225.3125 C 123.570312 216.746094 116.707031 209.804688 108.234375 209.804688 Z M 108.234375 209.804688 " fill-opacity="0.55" fill-rule="nonzero"/></g><g clip-path="url(#a554d6a09a)"><path fill="#3aaa35" d="M 139.925781 209.804688 C 131.453125 209.804688 124.589844 216.746094 124.589844 225.3125 C 124.589844 233.878906 131.453125 240.824219 139.925781 240.824219 C 148.394531 240.824219 155.261719 233.878906 155.261719 225.3125 C 155.261719 216.746094 148.394531 209.804688 139.925781 209.804688 Z M 139.925781 209.804688 " fill-opacity="0.65" fill-rule="nonzero"/></g><g clip-path="url(#339f159185)"><path fill="#3aaa35" d="M 203.300781 209.804688 C 194.832031 209.804688 187.964844 216.746094 187.964844 225.3125 C 187.964844 233.878906 194.832031 240.824219 203.300781 240.824219 C 211.769531 240.824219 218.636719 233.878906 218.636719 225.3125 C 218.636719 216.746094 211.769531 209.804688 203.300781 209.804688 Z M 203.300781 209.804688 " fill-opacity="0.85" fill-rule="nonzero"/></g><g clip-path="url(#8c11ceee42)"><path fill="#3aaa35" d="M 171.566406 209.804688 C 163.097656 209.804688 156.230469 216.746094 156.230469 225.3125 C 156.230469 233.882812 163.097656 240.824219 171.566406 240.824219 C 180.035156 240.824219 186.902344 233.882812 186.902344 225.3125 C 186.902344 216.746094 180.035156 209.804688 171.566406 209.804688 Z M 171.566406 209.804688 " fill-opacity="0.75" fill-rule="nonzero"/></g><g clip-path="url(#2f98fbc2cf)"><path fill="#ffffff" d="M 281.605469 180.414062 L 254.96875 180.386719 L 254.972656 170.058594 L 269.21875 170.074219 C 269.21875 170.074219 269.21875 170.074219 269.222656 170.074219 C 269.535156 170.074219 269.835938 169.953125 270.058594 169.730469 C 270.277344 169.507812 270.402344 169.207031 270.402344 168.890625 L 270.410156 157.761719 C 270.410156 157.109375 269.882812 156.578125 269.230469 156.578125 L 254.988281 156.558594 L 254.992188 147.859375 L 280.035156 147.878906 C 280.6875 147.878906 281.214844 147.351562 281.21875 146.695312 L 281.234375 135.570312 C 281.234375 135.253906 281.109375 134.953125 280.886719 134.730469 C 280.664062 134.507812 280.363281 134.382812 280.050781 134.382812 L 240.230469 134.34375 C 239.914062 134.34375 239.617188 134.46875 239.394531 134.691406 C 239.171875 134.914062 239.046875 135.214844 239.046875 135.527344 L 239 192.695312 C 239 193.351562 239.527344 193.882812 240.179688 193.882812 L 281.597656 193.917969 C 281.910156 193.917969 282.210938 193.796875 282.433594 193.574219 C 282.65625 193.351562 282.78125 193.050781 282.78125 192.738281 L 282.789062 181.597656 C 282.789062 180.945312 282.257812 180.414062 281.605469 180.414062 Z M 281.605469 180.414062 " fill-opacity="1" fill-rule="nonzero"/></g><g clip-path="url(#d03b0b7296)"><path fill="#ffffff" d="M 142.972656 134.34375 L 129.566406 134.339844 C 129.253906 134.339844 128.953125 134.464844 128.730469 134.683594 C 128.507812 134.90625 128.386719 135.207031 128.386719 135.523438 L 128.378906 165.351562 L 115.355469 135.058594 C 115.167969 134.625 114.742188 134.34375 114.269531 134.34375 L 97.058594 134.34375 C 96.402344 134.34375 95.875 134.875 95.875 135.527344 L 95.871094 192.730469 C 95.871094 193.382812 96.398438 193.914062 97.054688 193.914062 L 110.644531 193.917969 C 110.957031 193.917969 111.257812 193.792969 111.480469 193.570312 C 111.703125 193.347656 111.828125 193.046875 111.828125 192.734375 L 111.832031 158.917969 L 126.828125 193.203125 C 127.015625 193.632812 127.441406 193.910156 127.910156 193.910156 L 142.96875 193.921875 C 143.285156 193.921875 143.585938 193.796875 143.804688 193.574219 C 144.027344 193.351562 144.152344 193.050781 144.152344 192.734375 L 144.152344 135.527344 C 144.152344 134.875 143.625 134.34375 142.972656 134.34375 Z M 142.972656 134.34375 " fill-opacity="1" fill-rule="nonzero"/></g><g clip-path="url(#acd15b6276)"><path fill="#ffffff" d="M 84.261719 134.34375 L 69.160156 134.339844 C 69.011719 134.339844 68.863281 134.398438 68.757812 134.503906 C 68.652344 134.613281 68.59375 134.753906 68.59375 134.90625 L 68.59375 171.632812 C 68.59375 175.660156 65.320312 178.933594 61.296875 178.933594 C 57.277344 178.933594 54.003906 175.660156 54.003906 171.632812 L 54.003906 141.5 L 54.003906 141.503906 L 54.003906 134.910156 C 54.003906 134.597656 53.75 134.34375 53.4375 134.34375 L 38.335938 134.339844 C 38.183594 134.339844 38.039062 134.398438 37.933594 134.503906 C 37.824219 134.613281 37.765625 134.753906 37.765625 134.90625 L 37.765625 171.632812 C 37.765625 184.625 48.324219 195.195312 61.296875 195.195312 C 74.273438 195.195312 84.832031 184.625 84.832031 171.632812 L 84.832031 134.910156 C 84.832031 134.597656 84.578125 134.34375 84.261719 134.34375 Z M 84.261719 134.34375 " fill-opacity="1" fill-rule="nonzero"/></g><g clip-path="url(#41f92c8cf4)"><path fill="#ffffff" d="M 171.175781 135.546875 C 171.175781 134.894531 170.648438 134.363281 169.996094 134.363281 L 156.386719 134.339844 C 156.386719 134.339844 156.386719 134.339844 156.382812 134.339844 C 155.730469 134.339844 155.203125 134.867188 155.203125 135.519531 L 155.195312 192.671875 C 155.195312 192.984375 155.316406 193.285156 155.539062 193.507812 C 155.761719 193.730469 156.0625 193.855469 156.375 193.855469 L 169.988281 193.878906 C 170.300781 193.878906 170.601562 193.753906 170.824219 193.53125 C 171.046875 193.308594 171.167969 193.007812 171.167969 192.695312 Z M 171.175781 135.546875 " fill-opacity="1" fill-rule="nonzero"/></g><g clip-path="url(#fa5b7a8980)"><path fill="#ffffff" d="M 223.714844 161.660156 C 226.792969 158.78125 228.730469 154.6875 228.730469 150.132812 C 228.730469 141.410156 221.667969 134.339844 212.953125 134.339844 C 212.839844 134.339844 212.726562 134.351562 212.609375 134.355469 L 205.214844 134.339844 L 205.214844 134.351562 L 183.425781 134.34375 C 182.773438 134.34375 182.242188 134.875 182.242188 135.527344 L 182.214844 192.6875 C 182.214844 193 182.339844 193.300781 182.5625 193.523438 C 182.785156 193.746094 183.085938 193.871094 183.398438 193.871094 L 205.214844 193.875 L 205.214844 193.878906 L 209.113281 193.878906 C 209.121094 193.878906 209.125 193.878906 209.132812 193.878906 L 212.667969 193.878906 C 222.605469 193.878906 230.660156 185.8125 230.660156 175.863281 C 230.660156 170.085938 227.933594 164.957031 223.714844 161.660156 Z M 197.84375 146.257812 L 209.753906 146.257812 C 212.097656 146.257812 213.996094 148.160156 213.996094 150.507812 C 213.996094 152.851562 212.097656 154.753906 209.753906 154.753906 L 197.84375 154.753906 Z M 209.582031 179.679688 C 209.574219 179.679688 209.566406 179.679688 209.554688 179.679688 L 197.84375 179.679688 L 197.84375 167.253906 L 209.582031 167.253906 C 213.007812 167.253906 215.785156 170.035156 215.785156 173.46875 C 215.785156 176.898438 213.007812 179.679688 209.582031 179.679688 Z M 209.582031 179.679688 " fill-opacity="1" fill-rule="nonzero"/></g><g clip-path="url(#47668076c4)"><path fill="#ffffff" d="M 336.804688 134.777344 C 336.582031 134.554688 336.28125 134.429688 335.964844 134.429688 L 291.316406 134.34375 C 290.664062 134.34375 290.132812 134.875 290.132812 135.527344 L 290.113281 146.554688 C 290.113281 147.207031 290.640625 147.738281 291.292969 147.738281 L 305.308594 147.769531 L 305.234375 192.699219 C 305.234375 193.011719 305.359375 193.3125 305.582031 193.535156 C 305.800781 193.757812 306.101562 193.882812 306.417969 193.882812 L 320.539062 193.902344 C 321.191406 193.902344 321.722656 193.375 321.722656 192.71875 L 321.792969 147.792969 L 335.945312 147.820312 C 336.597656 147.820312 337.125 147.289062 337.128906 146.636719 L 337.148438 135.613281 C 337.148438 135.300781 337.023438 135 336.804688 134.777344 Z M 336.804688 134.777344 " fill-opacity="1" fill-rule="nonzero"/></g></svg>