<svg xmlns="http://www.w3.org/2000/svg" xmlns:xlink="http://www.w3.org/1999/xlink" width="500" zoomAndPan="magnify" viewBox="0 0 375 374.999991" height="500" preserveAspectRatio="xMidYMid meet" version="1.0"><defs><clipPath id="1e30a042d3"><path d="M 37.5 146.324219 L 335 146.324219 L 335 228.824219 L 37.5 228.824219 Z M 37.5 146.324219 " clip-rule="nonzero"/></clipPath></defs><rect x="-37.5" width="450" fill="#ffffff" y="-37.499999" height="449.999989" fill-opacity="1"/><rect x="-37.5" width="450" fill="#f76499" y="-37.499999" height="449.999989" fill-opacity="1"/><g clip-path="url(#1e30a042d3)"><path fill="#ffffff" d="M 333.375 175.421875 C 333.320312 175.363281 333.277344 175.320312 319.316406 161.734375 L 319.1875 161.621094 C 318.417969 160.964844 317.070312 160.1875 315.019531 160.1875 L 281.03125 160.1875 C 279.011719 160.1875 277.238281 160.988281 276.054688 162.382812 L 275.347656 161.714844 L 275.242188 161.621094 C 274.472656 160.964844 273.125 160.1875 271.074219 160.1875 L 237.085938 160.1875 C 234.695312 160.1875 232.699219 161.277344 231.574219 163.121094 L 230.066406 161.707031 L 229.96875 161.621094 C 229.199219 160.964844 227.851562 160.1875 225.800781 160.1875 L 218.535156 160.1875 L 205.363281 147.617188 L 205.234375 147.523438 C 204.160156 146.726562 202.855469 146.324219 201.359375 146.324219 L 193.925781 146.324219 C 190.867188 146.324219 188.46875 148.15625 187.695312 150.933594 L 183.835938 147.59375 L 183.683594 147.484375 C 182.585938 146.714844 181.273438 146.324219 179.785156 146.324219 L 170.027344 146.324219 C 166.992188 146.324219 164.609375 148.132812 163.816406 150.867188 L 160.121094 147.652344 L 159.964844 147.523438 C 158.890625 146.730469 157.585938 146.324219 156.089844 146.324219 L 148.652344 146.324219 C 145.582031 146.324219 143.179688 148.171875 142.414062 150.964844 L 138.523438 147.5625 L 138.414062 147.484375 C 137.3125 146.714844 136 146.324219 134.515625 146.324219 L 124.757812 146.324219 C 121.726562 146.324219 119.347656 148.125 118.550781 150.851562 L 114.84375 147.648438 L 114.695312 147.523438 C 113.617188 146.730469 112.3125 146.324219 110.816406 146.324219 L 103.515625 146.324219 C 101.140625 146.324219 99.144531 147.414062 98.011719 149.246094 L 96.15625 147.644531 L 96.03125 147.542969 C 94.964844 146.738281 93.664062 146.328125 92.164062 146.328125 L 84.265625 146.328125 C 81.382812 146.328125 79.015625 147.90625 78.03125 150.363281 L 74.851562 147.601562 L 74.703125 147.492188 C 73.621094 146.730469 72.292969 146.328125 70.855469 146.328125 L 65.148438 146.328125 C 62.300781 146.328125 59.960938 147.878906 58.9375 150.359375 L 55.761719 147.601562 L 55.605469 147.484375 C 54.519531 146.726562 53.179688 146.328125 51.738281 146.328125 L 43.839844 146.328125 C 41.347656 146.328125 39.84375 147.441406 39.015625 148.375 C 38.191406 149.308594 37.269531 150.9375 37.566406 153.414062 L 42.753906 196.015625 C 42.917969 197.476562 43.515625 198.769531 44.488281 199.757812 L 57.832031 212.757812 L 57.914062 212.835938 C 59.429688 214.183594 60.722656 214.964844 62.863281 214.964844 L 72.222656 214.964844 C 74.886719 214.964844 77.097656 213.589844 78.242188 211.296875 L 79.730469 212.746094 C 81.0625 214.074219 82.417969 214.960938 84.699219 214.960938 L 94.058594 214.960938 C 97.265625 214.960938 99.828125 212.992188 100.59375 209.957031 L 101.726562 205.609375 C 104.40625 208.222656 108.992188 212.691406 109.390625 213.089844 C 110.207031 213.949219 111.65625 214.960938 113.976562 214.960938 L 121.277344 214.960938 C 124.433594 214.960938 126.882812 213.007812 127.578125 210.085938 C 129.351562 211.828125 130.457031 212.910156 130.628906 213.082031 C 131.441406 213.941406 132.894531 214.960938 135.214844 214.960938 L 142.652344 214.960938 C 145.824219 214.960938 148.285156 212.988281 148.960938 210.039062 L 151.753906 212.746094 C 153.347656 214.359375 154.714844 214.960938 156.789062 214.960938 L 166.546875 214.960938 C 169.699219 214.960938 172.148438 213.015625 172.84375 210.101562 C 174.636719 211.847656 175.726562 212.910156 175.902344 213.085938 C 176.714844 213.945312 178.167969 214.960938 180.488281 214.960938 L 187.921875 214.960938 C 191.082031 214.960938 193.535156 213.003906 194.226562 210.078125 L 196.964844 212.746094 C 198.5625 214.339844 199.992188 214.960938 202.0625 214.960938 L 211.367188 214.960938 L 223.460938 226.96875 C 224.132812 227.667969 225.613281 228.824219 228.0625 228.824219 L 236.261719 228.824219 C 239.828125 228.824219 242.488281 226.332031 242.738281 222.765625 L 243.324219 214.378906 C 244.589844 215.613281 247.832031 218.769531 256.199219 226.910156 L 256.203125 226.914062 C 257.015625 227.785156 258.476562 228.824219 260.820312 228.824219 L 268.257812 228.824219 C 271.820312 228.824219 274.484375 226.332031 274.734375 222.765625 L 276.761719 193.707031 L 285.910156 193.707031 L 284.855469 208.808594 C 284.691406 211.15625 285.625 212.691406 286.4375 213.5625 C 286.484375 213.617188 286.585938 213.722656 300.085938 226.972656 C 300.523438 227.421875 302.109375 228.824219 304.765625 228.824219 L 312.199219 228.824219 C 315.765625 228.824219 318.429688 226.332031 318.679688 222.765625 L 320.707031 193.707031 L 327.929688 193.707031 C 331.492188 193.707031 334.15625 191.21875 334.40625 187.652344 L 334.925781 180.203125 C 335.058594 178.3125 334.519531 176.65625 333.371094 175.425781 Z M 329.859375 179.847656 L 329.335938 187.296875 C 329.273438 188.207031 328.839844 188.613281 327.933594 188.613281 L 318.640625 188.613281 C 318.292969 188.613281 317.964844 188.65625 317.671875 188.742188 L 316.429688 189.09375 L 315.984375 190.308594 C 315.875 190.601562 315.808594 190.929688 315.78125 191.285156 L 313.609375 222.410156 C 313.546875 223.320312 313.113281 223.730469 312.203125 223.730469 L 304.769531 223.730469 C 304.089844 223.730469 303.761719 223.445312 303.726562 223.414062 L 303.671875 223.359375 C 298.910156 218.683594 290.78125 210.703125 290.140625 210.066406 C 289.972656 209.871094 289.902344 209.566406 289.933594 209.160156 L 291.367188 188.613281 L 274.679688 188.613281 C 274.339844 188.613281 274.019531 188.65625 273.730469 188.738281 L 272.484375 189.089844 L 272.035156 190.308594 C 271.929688 190.601562 271.863281 190.929688 271.839844 191.285156 L 269.664062 222.410156 C 269.601562 223.320312 269.167969 223.726562 268.261719 223.726562 L 260.824219 223.726562 C 260.199219 223.726562 259.996094 223.511719 259.925781 223.4375 L 259.804688 223.308594 C 255.359375 218.984375 246.882812 210.738281 246.195312 210.0625 C 246.027344 209.867188 245.960938 209.566406 245.988281 209.160156 L 247.421875 188.613281 L 240.027344 188.613281 L 237.671875 222.410156 C 237.605469 223.320312 237.171875 223.726562 236.265625 223.726562 L 228.960938 223.726562 C 228.363281 223.726562 228.105469 223.519531 228.023438 223.429688 L 213.683594 209.476562 L 212.320312 209.808594 C 212.167969 209.84375 212 209.863281 211.824219 209.863281 L 202.066406 209.863281 C 201.4375 209.863281 201.285156 209.863281 200.550781 209.125 L 190.011719 198.867188 L 189.335938 208.542969 C 189.269531 209.457031 188.835938 209.863281 187.929688 209.863281 L 180.492188 209.863281 C 179.863281 209.863281 179.660156 209.644531 179.59375 209.574219 C 179.542969 209.519531 179.457031 209.425781 172.558594 202.710938 L 168.632812 198.886719 L 167.960938 208.546875 C 167.898438 209.457031 167.464844 209.863281 166.554688 209.863281 L 156.796875 209.863281 C 156.164062 209.863281 156.066406 209.863281 155.359375 209.144531 L 144.742188 198.839844 L 144.0625 208.546875 C 144 209.457031 143.566406 209.863281 142.65625 209.863281 L 135.222656 209.863281 C 134.59375 209.863281 134.390625 209.644531 134.320312 209.574219 C 134.269531 209.519531 134.175781 209.417969 127.296875 202.675781 L 123.367188 198.828125 L 122.6875 208.546875 C 122.625 209.457031 122.191406 209.863281 121.28125 209.863281 L 113.980469 209.863281 C 113.351562 209.863281 113.148438 209.644531 113.082031 209.574219 C 113.027344 209.515625 112.9375 209.421875 102.152344 198.90625 L 99.023438 195.855469 L 95.675781 208.675781 L 95.671875 208.695312 C 95.476562 209.472656 94.9375 209.867188 94.066406 209.867188 L 84.707031 209.867188 C 84.199219 209.867188 84.023438 209.832031 83.316406 209.128906 L 75.835938 201.847656 L 73.839844 208.664062 C 73.585938 209.496094 73.085938 209.867188 72.226562 209.867188 L 62.867188 209.867188 C 62.40625 209.867188 62.246094 209.867188 61.339844 209.0625 L 48.101562 196.164062 C 47.941406 195.992188 47.847656 195.757812 47.8125 195.429688 L 42.621094 152.796875 C 42.5625 152.320312 42.632812 151.96875 42.828125 151.75 C 43.019531 151.53125 43.363281 151.417969 43.84375 151.417969 L 51.742188 151.417969 C 52.09375 151.417969 52.402344 151.488281 52.628906 151.613281 L 61.914062 159.683594 L 63.550781 152.578125 C 63.746094 151.808594 64.285156 151.417969 65.152344 151.417969 L 70.859375 151.417969 C 71.195312 151.417969 71.496094 151.484375 71.710938 151.609375 L 81.171875 159.828125 L 82.667969 152.574219 L 82.671875 152.546875 C 82.851562 151.617188 83.636719 151.417969 84.269531 151.417969 L 92.167969 151.417969 C 92.496094 151.417969 92.765625 151.476562 92.925781 151.578125 L 101.667969 159.121094 L 102.113281 152.738281 C 102.175781 151.828125 102.609375 151.417969 103.519531 151.417969 L 110.820312 151.417969 C 111.167969 151.417969 111.441406 151.476562 111.625 151.585938 L 122.761719 161.230469 L 123.355469 152.738281 C 123.417969 151.824219 123.851562 151.417969 124.761719 151.417969 L 134.519531 151.417969 C 134.894531 151.417969 135.203125 151.484375 135.425781 151.609375 L 146.644531 161.421875 L 147.25 152.734375 C 147.316406 151.824219 147.75 151.417969 148.65625 151.417969 L 156.09375 151.417969 C 156.4375 151.417969 156.710938 151.476562 156.894531 151.582031 L 168.03125 161.28125 L 168.625 152.734375 C 168.691406 151.824219 169.125 151.417969 170.03125 151.417969 L 179.789062 151.417969 C 180.171875 151.417969 180.476562 151.484375 180.703125 151.609375 L 191.921875 161.3125 L 192.523438 152.734375 C 192.585938 151.824219 193.019531 151.414062 193.929688 151.414062 L 201.363281 151.414062 C 201.6875 151.414062 201.949219 151.46875 202.132812 151.566406 L 216.679688 165.441406 L 217.839844 165.324219 C 218.082031 165.300781 218.398438 165.277344 218.503906 165.277344 L 225.804688 165.277344 C 226.183594 165.277344 226.476562 165.347656 226.65625 165.480469 L 235.199219 173.523438 L 235.683594 166.597656 C 235.746094 165.6875 236.179688 165.277344 237.089844 165.277344 L 271.074219 165.277344 C 271.453125 165.277344 271.746094 165.347656 271.925781 165.480469 L 279.222656 172.398438 L 279.625 166.597656 C 279.691406 165.6875 280.125 165.277344 281.03125 165.277344 L 315.019531 165.277344 C 315.390625 165.277344 315.683594 165.34375 315.859375 165.472656 C 317.402344 166.96875 328.824219 178.085938 329.679688 178.921875 C 329.753906 179.007812 329.898438 179.230469 329.859375 179.84375 Z M 329.859375 179.847656 " fill-opacity="1" fill-rule="nonzero"/></g><path fill="#f0436c" d="M 331.515625 177.160156 C 331.460938 177.101562 317.546875 163.5625 317.546875 163.5625 C 317.050781 163.144531 316.25 162.734375 315.019531 162.734375 L 281.03125 162.734375 C 278.792969 162.734375 277.246094 164.183594 277.089844 166.421875 L 277.058594 166.84375 L 273.601562 163.5625 C 273.105469 163.144531 272.308594 162.734375 271.074219 162.734375 L 237.089844 162.734375 C 234.847656 162.734375 233.300781 164.183594 233.144531 166.421875 L 233.035156 167.996094 L 228.328125 163.566406 C 227.832031 163.144531 227.035156 162.734375 225.804688 162.734375 L 218.503906 162.734375 C 218.175781 162.734375 217.585938 162.796875 217.585938 162.796875 L 203.726562 149.574219 C 203.226562 149.203125 202.46875 148.871094 201.363281 148.871094 L 193.925781 148.871094 C 191.6875 148.871094 190.140625 150.320312 189.984375 152.5625 L 189.742188 156.066406 L 182.230469 149.574219 C 181.570312 149.113281 180.75 148.871094 179.789062 148.871094 L 170.03125 148.871094 C 167.792969 148.871094 166.242188 150.320312 166.085938 152.5625 L 165.847656 156.011719 L 158.453125 149.574219 C 157.953125 149.203125 157.195312 148.871094 156.089844 148.871094 L 148.652344 148.871094 C 146.414062 148.871094 144.867188 150.320312 144.710938 152.5625 L 144.460938 156.136719 L 136.957031 149.574219 C 136.296875 149.113281 135.476562 148.871094 134.515625 148.871094 L 124.757812 148.871094 C 122.519531 148.871094 120.96875 150.320312 120.8125 152.5625 L 120.574219 155.976562 L 113.179688 149.574219 C 112.679688 149.203125 111.921875 148.871094 110.816406 148.871094 L 103.515625 148.871094 C 101.277344 148.871094 99.726562 150.320312 99.570312 152.5625 L 99.480469 153.878906 L 94.496094 149.574219 C 93.988281 149.191406 93.242188 148.871094 92.164062 148.871094 L 84.261719 148.871094 C 82.148438 148.871094 80.542969 150.125 80.171875 152.066406 L 79.554688 155.058594 L 73.242188 149.574219 C 72.601562 149.125 71.785156 148.871094 70.855469 148.871094 L 65.144531 148.871094 C 63.105469 148.871094 61.542969 150.066406 61.070312 151.984375 L 60.378906 154.984375 L 54.152344 149.574219 C 53.507812 149.125 52.683594 148.871094 51.734375 148.871094 L 43.835938 148.871094 C 42.292969 148.871094 41.398438 149.519531 40.917969 150.0625 C 40.4375 150.601562 39.90625 151.570312 40.089844 153.105469 L 45.277344 195.722656 C 45.378906 196.632812 45.738281 197.398438 46.296875 197.964844 L 59.601562 210.929688 C 60.757812 211.957031 61.488281 212.414062 62.859375 212.414062 L 72.21875 212.414062 C 74.207031 212.414062 75.683594 211.3125 76.269531 209.394531 L 77.082031 206.617188 L 81.511719 210.929688 C 82.539062 211.957031 83.324219 212.414062 84.699219 212.414062 L 94.058594 212.414062 C 96.09375 212.414062 97.652344 211.226562 98.128906 209.3125 L 100.371094 200.734375 C 100.371094 200.734375 111.117188 211.207031 111.214844 211.3125 C 111.679688 211.8125 112.539062 212.414062 113.972656 212.414062 L 121.273438 212.414062 C 123.511719 212.414062 125.058594 210.964844 125.214844 208.726562 L 125.511719 204.5 C 125.511719 204.5 132.355469 211.207031 132.453125 211.3125 C 132.921875 211.8125 133.78125 212.414062 135.210938 212.414062 L 142.648438 212.414062 C 144.886719 212.414062 146.433594 210.964844 146.589844 208.726562 L 146.886719 204.480469 L 153.539062 210.933594 C 154.667969 212.085938 155.382812 212.414062 156.785156 212.414062 L 166.542969 212.414062 C 168.78125 212.414062 170.332031 210.964844 170.488281 208.726562 L 170.777344 204.539062 C 170.777344 204.539062 177.628906 211.207031 177.726562 211.3125 C 178.195312 211.816406 179.050781 212.414062 180.484375 212.414062 L 187.917969 212.414062 C 190.15625 212.414062 191.707031 210.96875 191.863281 208.726562 L 192.15625 204.519531 L 198.746094 210.933594 C 199.898438 212.085938 200.660156 212.414062 202.058594 212.414062 L 212.148438 212.414062 L 225.269531 225.179688 C 225.738281 225.679688 226.636719 226.277344 228.058594 226.277344 L 236.257812 226.277344 C 238.496094 226.277344 240.046875 224.832031 240.203125 222.589844 L 242.394531 191.164062 L 244.691406 191.164062 L 243.445312 208.988281 C 243.347656 210.421875 243.882812 211.324219 244.351562 211.828125 C 244.464844 211.953125 258.027344 225.140625 258.027344 225.140625 C 258.039062 225.152344 258.050781 225.164062 258.0625 225.175781 C 258.527344 225.679688 259.386719 226.277344 260.820312 226.277344 L 268.253906 226.277344 C 270.492188 226.277344 272.039062 224.832031 272.195312 222.589844 L 274.371094 191.464844 C 274.378906 191.320312 274.402344 191.234375 274.417969 191.191406 C 274.464844 191.179688 274.550781 191.164062 274.683594 191.164062 L 288.636719 191.164062 L 287.390625 208.988281 C 287.292969 210.421875 287.828125 211.324219 288.296875 211.828125 C 288.402344 211.941406 301.886719 225.179688 301.886719 225.179688 C 302.359375 225.675781 303.355469 226.277344 304.765625 226.277344 L 312.199219 226.277344 C 314.4375 226.277344 315.984375 224.828125 316.140625 222.589844 L 318.316406 191.464844 C 318.324219 191.316406 318.347656 191.234375 318.363281 191.191406 C 318.410156 191.179688 318.496094 191.160156 318.632812 191.160156 L 327.925781 191.160156 C 330.164062 191.160156 331.710938 189.714844 331.871094 187.472656 L 332.386719 180.023438 C 332.472656 178.839844 332.175781 177.875 331.511719 177.160156 Z M 331.515625 177.160156 " fill-opacity="1" fill-rule="nonzero"/><path fill="#ffffff" d="M 93.804688 152.882812 L 82.664062 195.511719 C 82.386719 196.644531 81.550781 197.242188 80.355469 197.242188 L 70.996094 197.242188 C 69.800781 197.242188 69.113281 196.644531 68.925781 195.511719 L 66.417969 179.152344 C 66.332031 178.488281 65.800781 178.488281 65.621094 179.152344 L 60.828125 195.511719 C 60.480469 196.644531 59.710938 197.242188 58.515625 197.242188 L 49.15625 197.242188 C 47.960938 197.242188 47.207031 196.644531 47.085938 195.511719 L 41.894531 152.882812 C 41.726562 151.488281 42.445312 150.6875 43.839844 150.6875 L 51.738281 150.6875 C 52.9375 150.6875 53.753906 151.289062 53.8125 152.417969 L 55.660156 180.152344 C 55.742188 180.816406 56.277344 180.816406 56.457031 180.152344 L 62.839844 152.417969 C 63.117188 151.289062 63.953125 150.6875 65.148438 150.6875 L 70.859375 150.6875 C 72.054688 150.6875 72.808594 151.289062 72.929688 152.417969 L 75.441406 180.152344 C 75.527344 180.816406 76.058594 180.816406 76.238281 180.152344 L 81.957031 152.417969 C 82.167969 151.289062 83.074219 150.6875 84.269531 150.6875 L 92.167969 150.6875 C 93.5625 150.6875 94.171875 151.488281 93.804688 152.882812 Z M 110.820312 150.6875 L 103.519531 150.6875 C 102.257812 150.6875 101.480469 151.355469 101.386719 152.683594 L 98.417969 195.246094 C 98.328125 196.507812 99.007812 197.242188 100.269531 197.242188 L 107.570312 197.242188 C 108.898438 197.242188 109.613281 196.507812 109.703125 195.246094 L 112.671875 152.683594 C 112.765625 151.355469 112.148438 150.6875 110.820312 150.6875 Z M 156.09375 150.6875 L 148.65625 150.6875 C 147.394531 150.6875 146.621094 151.355469 146.527344 152.683594 L 145.027344 174.164062 C 144.980469 174.832031 144.441406 174.964844 144.214844 174.363281 L 136.734375 152.21875 C 136.34375 151.152344 135.644531 150.6875 134.515625 150.6875 L 124.757812 150.6875 C 123.5 150.6875 122.722656 151.351562 122.628906 152.683594 L 119.65625 195.246094 C 119.570312 196.507812 120.246094 197.238281 121.511719 197.238281 L 128.945312 197.238281 C 130.273438 197.238281 130.988281 196.507812 131.074219 195.246094 L 132.574219 173.765625 C 132.621094 173.101562 133.160156 172.964844 133.386719 173.566406 L 140.867188 195.710938 C 141.257812 196.777344 141.957031 197.242188 143.085938 197.242188 L 152.84375 197.242188 C 154.171875 197.242188 154.886719 196.511719 154.972656 195.246094 L 157.945312 152.683594 C 158.039062 151.355469 157.421875 150.691406 156.09375 150.691406 Z M 201.363281 150.6875 L 193.929688 150.6875 C 192.667969 150.6875 191.890625 151.355469 191.796875 152.683594 L 190.300781 174.164062 C 190.253906 174.832031 189.710938 174.964844 189.488281 174.363281 L 182.003906 152.21875 C 181.613281 151.152344 180.917969 150.6875 179.789062 150.6875 L 170.03125 150.6875 C 168.769531 150.6875 167.992188 151.351562 167.898438 152.683594 L 164.929688 195.246094 C 164.839844 196.507812 165.519531 197.238281 166.78125 197.238281 L 174.214844 197.238281 C 175.542969 197.238281 176.257812 196.507812 176.347656 195.246094 L 177.847656 173.765625 C 177.894531 173.101562 178.433594 172.964844 178.65625 173.566406 L 186.140625 195.710938 C 186.53125 196.777344 187.226562 197.242188 188.355469 197.242188 L 198.113281 197.242188 C 199.441406 197.242188 200.15625 196.511719 200.246094 195.246094 L 203.214844 152.683594 C 203.308594 151.355469 202.691406 150.691406 201.363281 150.691406 Z M 225.933594 164.9375 L 218.632812 164.9375 C 217.371094 164.9375 216.59375 165.601562 216.5 166.933594 L 213.53125 209.496094 C 213.441406 210.757812 214.121094 211.488281 215.382812 211.488281 L 222.683594 211.488281 C 224.011719 211.488281 224.726562 210.757812 224.816406 209.496094 L 227.785156 166.933594 C 227.878906 165.601562 227.261719 164.9375 225.933594 164.9375 Z M 271.207031 164.9375 L 237.21875 164.9375 C 235.957031 164.9375 235.179688 165.601562 235.085938 166.933594 L 234.566406 174.382812 C 234.476562 175.644531 235.15625 176.375 236.417969 176.375 L 245.710938 176.375 C 247.039062 176.375 247.65625 177.039062 247.566406 178.371094 L 245.390625 209.496094 C 245.304688 210.757812 245.984375 211.488281 247.246094 211.488281 L 254.679688 211.488281 C 256.007812 211.488281 256.722656 210.757812 256.808594 209.496094 L 258.984375 178.371094 C 259.074219 177.039062 259.855469 176.375 261.113281 176.375 L 270.410156 176.375 C 271.734375 176.375 272.449219 175.644531 272.539062 174.382812 L 273.058594 166.933594 C 273.152344 165.601562 272.535156 164.9375 271.207031 164.9375 Z M 315.148438 164.9375 L 281.160156 164.9375 C 279.898438 164.9375 279.125 165.601562 279.03125 166.933594 L 278.507812 174.382812 C 278.421875 175.644531 279.101562 176.375 280.363281 176.375 L 289.65625 176.375 C 290.984375 176.375 291.601562 177.039062 291.507812 178.371094 L 289.335938 209.496094 C 289.246094 210.757812 289.925781 211.488281 291.1875 211.488281 L 298.621094 211.488281 C 299.949219 211.488281 300.664062 210.757812 300.753906 209.496094 L 302.925781 178.371094 C 303.019531 177.039062 303.796875 176.375 305.058594 176.375 L 314.351562 176.375 C 315.679688 176.375 316.394531 175.644531 316.480469 174.382812 L 317 166.933594 C 317.09375 165.601562 316.476562 164.9375 315.148438 164.9375 Z M 315.148438 164.9375 " fill-opacity="1" fill-rule="nonzero"/></svg>